<svg width="20" height="20" viewBox="0 0 20 20" fill="none" xmlns="http://www.w3.org/2000/svg">
<path fill-rule="evenodd" clip-rule="evenodd" d="M14.1805 2.63631C14.2455 2.31458 14.5304 2.08301 14.8614 2.08301H17.6392C18.0227 2.08301 18.3337 2.39122 18.3337 2.77141C18.3337 3.15161 18.0227 3.45982 17.6392 3.45982H15.4307L14.8531 6.3202C14.8501 6.33979 14.8462 6.3591 14.8414 6.37811L13.6815 12.1233C13.4853 13.1021 12.6113 13.8016 11.6054 13.7859H4.86746C3.86154 13.8016 2.98755 13.1021 2.79142 12.1233L2.79038 12.1181L1.67929 6.3424C1.64052 6.14087 1.69445 5.9327 1.82638 5.77462C1.9583 5.61654 2.15448 5.52504 2.36144 5.52504H13.5973L14.1805 2.63631ZM13.3193 6.90185H3.20083L4.15412 11.8572C4.2205 12.1831 4.51255 12.4156 4.84814 12.4092L4.86144 12.4091H11.6114L11.6247 12.4092C11.9611 12.4156 12.2537 12.1821 12.3192 11.8551L13.3193 6.90185ZM3.46268 15.566C4.00508 15.0283 4.88448 15.0283 5.42687 15.566C5.96927 16.1037 5.96926 16.9754 5.42687 17.5131C4.88448 18.0508 4.00508 18.0508 3.46269 17.5131C2.92029 16.9754 2.92029 16.1037 3.46268 15.566ZM11.1016 15.566C11.644 15.0283 12.5234 15.0283 13.0658 15.566C13.6081 16.1037 13.6081 16.9754 13.0658 17.5131C12.5234 18.0508 11.644 18.0508 11.1016 17.5131C10.5592 16.9754 10.5592 16.1037 11.1016 15.566Z" fill="#1F75F6"/>
<path fill-rule="evenodd" clip-rule="evenodd" d="M5.81055 9.6468C5.81055 9.34765 6.05306 9.10514 6.35221 9.10514H9.99999C10.2991 9.10514 10.5417 9.34765 10.5417 9.6468C10.5417 9.94596 10.2991 10.1885 9.99999 10.1885H6.35221C6.05306 10.1885 5.81055 9.94596 5.81055 9.6468Z" fill="#1F75F6"/>
<path fill-rule="evenodd" clip-rule="evenodd" d="M8.1761 12.0124C7.87694 12.0124 7.63443 11.7698 7.63443 11.4707L7.63443 7.82292C7.63443 7.52376 7.87694 7.28125 8.1761 7.28125C8.47525 7.28125 8.71776 7.52376 8.71776 7.82292L8.71776 11.4707C8.71776 11.7698 8.47525 12.0124 8.1761 12.0124Z" fill="#1F75F6"/>
</svg>
