<svg width="16" height="18" viewBox="0 0 16 18" fill="none" xmlns="http://www.w3.org/2000/svg">
<path fill-rule="evenodd" clip-rule="evenodd" d="M5.70001 15.6667L5.70001 12.9667H2.16668C1.35666 12.9667 0.700012 12.31 0.700012 11.5V2.33334C0.700012 1.52332 1.35666 0.866669 2.16668 0.866669H8.83335C9.64336 0.866669 10.3 1.52332 10.3 2.33334V5.03334H12.9172L15.3 7.41618V15.6667C15.3 16.4767 14.6434 17.1333 13.8333 17.1333H7.16668C6.35666 17.1333 5.70001 16.4767 5.70001 15.6667ZM1.96668 11.7H5.70001V6.5C5.70001 5.68998 6.35666 5.03334 7.16668 5.03334H9.03335V2.13334H1.96668V11.7ZM14.0333 7.94049L12.3929 6.3H6.96668V15.8667H14.0333V7.94049Z" fill="#333333"/>
</svg>
