<svg width="20" height="22" viewBox="0 0 20 22" fill="none" xmlns="http://www.w3.org/2000/svg">
<path d="M8.81 15.9496C8.62 15.9496 8.43 15.8797 8.28 15.7297L6.78 14.2296C6.49 13.9396 6.49 13.4596 6.78 13.1696C7.07 12.8796 7.55 12.8796 7.84 13.1696L8.81 14.1396L12.28 10.6696C12.57 10.3796 13.05 10.3796 13.34 10.6696C13.63 10.9596 13.63 11.4396 13.34 11.7296L9.34 15.7297C9.2 15.8797 9 15.9496 8.81 15.9496Z" fill="#F6891F"/>
<path d="M12 5.75H8C7.04 5.75 5.25 5.75 5.25 3C5.25 0.25 7.04 0.25 8 0.25H12C12.96 0.25 14.75 0.25 14.75 3C14.75 3.96 14.75 5.75 12 5.75ZM8 1.75C7.01 1.75 6.75 1.75 6.75 3C6.75 4.25 7.01 4.25 8 4.25H12C13.25 4.25 13.25 3.99 13.25 3C13.25 1.75 12.99 1.75 12 1.75H8Z" fill="#F6891F"/>
<path d="M13 21.7504H7C1.38 21.7504 0.25 19.1704 0.25 15.0004V9.0004C0.25 4.44042 1.9 2.49042 5.96 2.28042C6.37 2.26042 6.73 2.57042 6.75 2.99042C6.77 3.41042 6.45 3.75042 6.04 3.77042C3.2 3.93042 1.75 4.78042 1.75 9.0004V15.0004C1.75 18.7004 2.48 20.2504 7 20.2504H13C17.52 20.2504 18.25 18.7004 18.25 15.0004V9.0004C18.25 4.78042 16.8 3.93042 13.96 3.77042C13.55 3.75042 13.23 3.39042 13.25 2.98042C13.27 2.57042 13.62 2.25042 14.04 2.27042C18.1 2.49042 19.75 4.44042 19.75 8.99042V14.9904C19.75 19.1704 18.62 21.7504 13 21.7504Z" fill="#F6891F"/>
</svg>
