<svg width="18" height="17" viewBox="0 0 18 17" fill="none" xmlns="http://www.w3.org/2000/svg">
<path d="M13.1838 7.43315L8.5755 2.82482C8.12788 2.36136 8.14071 1.62278 8.60417 1.17515C9.05628 0.738491 9.77306 0.738491 10.2252 1.17515L16.825 7.77499C17.2805 8.22793 17.2826 8.9644 16.8297 9.41995C16.8281 9.42153 16.8266 9.42309 16.825 9.42466L10.2252 16.0245C9.77754 16.488 9.03895 16.5008 8.5755 16.0532C8.11204 15.6055 8.0992 14.867 8.54682 14.4035C8.55622 14.3938 8.56577 14.3842 8.5755 14.3748L13.1838 9.76649H2.00016H2.00016C1.35583 9.76649 0.833496 9.24416 0.833496 8.59983C0.833496 7.95549 1.35583 7.43316 2.00016 7.43316H13.1838L13.1838 7.43315Z" fill="black"/>
</svg>
