<svg width="14" height="18" viewBox="0 0 14 18" fill="none" xmlns="http://www.w3.org/2000/svg">
<path d="M11.6621 6.88793C11.6621 4.34299 9.57473 2.2799 6.99985 2.2799C4.42497 2.2799 2.33762 4.34299 2.33762 6.88793V13.032H11.6621V6.88793ZM13.2162 13.5442L13.527 13.9536C13.6557 14.1232 13.6209 14.3639 13.4493 14.4912C13.382 14.541 13.3002 14.568 13.2162 14.568H0.783539C0.568966 14.568 0.39502 14.3961 0.39502 14.184C0.39502 14.1009 0.422285 14.02 0.472723 13.9536L0.783539 13.5442V6.88793V6.88793C0.783538 3.49467 3.56667 0.743896 6.99985 0.743896C10.433 0.743896 13.2162 3.49467 13.2162 6.88793V13.5442V13.5442ZM5.05725 15.336H8.94244C8.94244 16.3964 8.07271 17.256 6.99985 17.256C5.92698 17.256 5.05725 16.3964 5.05725 15.336Z" fill="#333333"/>
</svg>