<svg width="16" height="16" viewBox="0 0 16 16" fill="none" xmlns="http://www.w3.org/2000/svg">
<path d="M7.3334 9.8334H14.6667C14.9401 9.8334 15.1667 9.60673 15.1667 9.3334V4.00007C15.1667 2.2534 13.7467 0.833398 12.0001 0.833398H6.00007C5.72673 0.833398 5.50007 1.06007 5.50007 1.3334V8.00007C5.50007 9.0134 6.32007 9.8334 7.3334 9.8334ZM14.1667 8.8334H7.3334C6.8734 8.8334 6.50007 8.46007 6.50007 8.00007V1.8334H12.0001C13.1934 1.8334 14.1667 2.80673 14.1667 4.00007V8.8334Z" fill="#1F75F6"/>
<path fill-rule="evenodd" clip-rule="evenodd" d="M12.0001 0.933398C13.6915 0.933398 15.0667 2.30863 15.0667 4.00007V9.3334C15.0667 9.5515 14.8848 9.7334 14.6667 9.7334H7.3334C6.37529 9.7334 5.60007 8.95817 5.60007 8.00007V1.3334C5.60007 1.11529 5.78196 0.933398 6.00006 0.933398H12.0001ZM15.2667 4.00007C15.2667 2.19817 13.802 0.733398 12.0001 0.733398H6.00006C5.6715 0.733398 5.40006 1.00484 5.40006 1.3334V8.00007C5.40006 9.06863 6.26484 9.9334 7.3334 9.9334H14.6667C14.9953 9.9334 15.2667 9.66196 15.2667 9.3334V4.00007ZM14.2667 4.00007C14.2667 2.7515 13.2486 1.7334 12.0001 1.7334H6.40006V8.00007C6.40006 8.51529 6.81817 8.9334 7.3334 8.9334H14.2667V4.00007ZM12.0001 1.9334C13.1382 1.9334 14.0667 2.86196 14.0667 4.00007V8.7334H7.3334C6.92863 8.7334 6.60007 8.40484 6.60007 8.00007V1.9334H12.0001Z" fill="#1F75F6"/>
<path d="M3.3334 13.8334H4.00007C4.2734 13.8334 4.50007 13.6067 4.50007 13.3334C4.50007 12.8734 4.8734 12.5001 5.3334 12.5001C5.7934 12.5001 6.16673 12.8734 6.16673 13.3334C6.16673 13.6067 6.3934 13.8334 6.66673 13.8334H9.3334C9.60673 13.8334 9.8334 13.6067 9.8334 13.3334C9.8334 12.8734 10.2067 12.5001 10.6667 12.5001C11.1267 12.5001 11.5001 12.8734 11.5001 13.3334C11.5001 13.6067 11.7267 13.8334 12.0001 13.8334H12.6667C14.0467 13.8334 15.1667 12.7134 15.1667 11.3334V9.3334C15.1667 9.06007 14.9401 8.8334 14.6667 8.8334H7.3334C6.8734 8.8334 6.50007 8.46007 6.50007 8.00007V3.3334C6.50007 3.06007 6.2734 2.8334 6.00007 2.8334H4.7734C4.1134 2.8334 3.50673 3.18674 3.18007 3.76007L2.04007 5.7534C1.9534 5.90673 1.9534 6.10007 2.04007 6.2534C2.12673 6.40673 2.2934 6.50006 2.4734 6.50006H3.3334C3.42673 6.50006 3.50007 6.5734 3.50007 6.66673V8.66673C3.50007 8.76007 3.42673 8.8334 3.3334 8.8334H1.3334C1.06007 8.8334 0.833398 9.06007 0.833398 9.3334V11.3334C0.833398 12.7134 1.9534 13.8334 3.3334 13.8334ZM3.56673 12.8334H3.3334C2.50673 12.8334 1.8334 12.1601 1.8334 11.3334V9.8334H3.3334C3.9734 9.8334 4.50007 9.30673 4.50007 8.66673V6.66673C4.50007 6.02673 3.98007 5.50006 3.3334 5.50006L4.04673 4.2534C4.1934 3.9934 4.4734 3.8334 4.7734 3.8334H5.50007V8.00007C5.50007 9.0134 6.32007 9.8334 7.3334 9.8334H14.1667V11.3334C14.1667 12.1601 13.4934 12.8334 12.6667 12.8334H12.4334C12.2134 12.0667 11.5067 11.5001 10.6667 11.5001C9.82673 11.5001 9.12007 12.0667 8.90007 12.8334H7.0934C6.8734 12.0667 6.16673 11.5001 5.32673 11.5001C4.48673 11.5001 3.78673 12.0667 3.56673 12.8334Z" fill="#1F75F6"/>
<path fill-rule="evenodd" clip-rule="evenodd" d="M6.00006 2.9334C6.21817 2.9334 6.40006 3.11529 6.40006 3.3334V8.00007C6.40006 8.51529 6.81817 8.9334 7.3334 8.9334H14.6667C14.8848 8.9334 15.0667 9.11529 15.0667 9.3334V11.3334C15.0667 12.6582 13.9915 13.7334 12.6667 13.7334H12.0001C11.782 13.7334 11.6001 13.5515 11.6001 13.3334C11.6001 12.8182 11.182 12.4001 10.6667 12.4001C10.1515 12.4001 9.7334 12.8182 9.7334 13.3334C9.7334 13.5515 9.5515 13.7334 9.3334 13.7334H6.66673C6.44863 13.7334 6.26673 13.5515 6.26673 13.3334C6.26673 12.8182 5.84863 12.4001 5.3334 12.4001C4.81817 12.4001 4.40006 12.8182 4.40006 13.3334C4.40006 13.5515 4.21817 13.7334 4.00007 13.7334H3.3334C2.00863 13.7334 0.933398 12.6582 0.933398 11.3334V9.3334C0.933398 9.11529 1.11529 8.9334 1.3334 8.9334H3.3334C3.48196 8.9334 3.60007 8.81529 3.60007 8.66673V6.66673C3.60007 6.51817 3.48196 6.40007 3.3334 6.40007H2.4734C2.32748 6.40007 2.1951 6.32446 2.12712 6.20419C2.05775 6.08147 2.05771 5.92559 2.127 5.80282C2.12704 5.80275 2.12695 5.8029 2.127 5.80282L3.26687 3.80972C3.57579 3.26754 4.14941 2.9334 4.7734 2.9334H6.00006ZM6.60007 3.3334C6.60007 3.00484 6.32863 2.7334 6.00006 2.7334H4.7734C4.07739 2.7334 3.43759 3.10608 3.09318 3.71057L1.95326 5.70375C1.84933 5.88762 1.84908 6.11874 1.95301 6.3026C2.05836 6.489 2.25931 6.60007 2.4734 6.60007H3.3334C3.3715 6.60007 3.40006 6.62863 3.40006 6.66673V8.66673C3.40006 8.70484 3.3715 8.7334 3.3334 8.7334H1.3334C1.00484 8.7334 0.733399 9.00484 0.733399 9.3334V11.3334C0.733399 12.7686 1.89817 13.9334 3.3334 13.9334H4.00007C4.32863 13.9334 4.60007 13.662 4.60007 13.3334C4.60007 12.9286 4.92863 12.6001 5.3334 12.6001C5.73817 12.6001 6.06673 12.9286 6.06673 13.3334C6.06673 13.662 6.33817 13.9334 6.66673 13.9334H9.3334C9.66196 13.9334 9.9334 13.662 9.9334 13.3334C9.9334 12.9286 10.262 12.6001 10.6667 12.6001C11.0715 12.6001 11.4001 12.9286 11.4001 13.3334C11.4001 13.662 11.6715 13.9334 12.0001 13.9334H12.6667C14.102 13.9334 15.2667 12.7686 15.2667 11.3334V9.3334C15.2667 9.00484 14.9953 8.7334 14.6667 8.7334H7.3334C6.92863 8.7334 6.60007 8.40484 6.60007 8.00007V3.3334ZM5.60007 3.7334H4.7734C4.43837 3.7334 4.12474 3.9119 3.95984 4.2039C3.95977 4.20402 3.95991 4.20378 3.95984 4.2039L3.16097 5.60007H3.3334C3.92447 5.60007 4.40006 6.08159 4.40006 6.66673V8.66673C4.40006 9.2515 3.91817 9.7334 3.3334 9.7334H1.7334V11.3334C1.7334 12.2153 2.4515 12.9334 3.3334 12.9334H3.64207L3.66285 12.861C3.87111 12.1353 4.53332 11.6001 5.32673 11.6001C6.12057 11.6001 6.78915 12.1357 6.99728 12.861L7.01806 12.9334H8.97541L8.99619 12.861C9.20432 12.1357 9.87289 11.6001 10.6667 11.6001C11.4606 11.6001 12.1291 12.1357 12.3373 12.861L12.3581 12.9334H12.6667C13.5486 12.9334 14.2667 12.2153 14.2667 11.3334V9.7334L7.3334 9.7334C6.37529 9.7334 5.60007 8.95817 5.60007 8.00007V3.7334ZM5.40006 3.9334V8.00007C5.40006 9.06863 6.26484 9.9334 7.3334 9.9334H14.0667V11.3334C14.0667 12.1048 13.4382 12.7334 12.6667 12.7334H12.5072C12.2527 11.9623 11.5262 11.4001 10.6667 11.4001C9.80726 11.4001 9.0808 11.9623 8.82628 12.7334H7.16719C6.91267 11.9623 6.1862 11.4001 5.32673 11.4001C4.46685 11.4001 3.74695 11.9627 3.49293 12.7334H3.3334C2.56196 12.7334 1.9334 12.1048 1.9334 11.3334V9.9334H3.3334C4.02863 9.9334 4.60007 9.36196 4.60007 8.66673V6.66673C4.60007 6.02766 4.12264 5.49266 3.49964 5.41089L4.13353 4.30306C4.26202 4.07528 4.50857 3.9334 4.7734 3.9334H5.40006Z" fill="#1F75F6"/>
<path d="M10.6667 15.1667C11.6801 15.1667 12.5001 14.3467 12.5001 13.3334C12.5001 12.3201 11.6801 11.5001 10.6667 11.5001C9.6534 11.5001 8.8334 12.3201 8.8334 13.3334C8.8334 14.3467 9.6534 15.1667 10.6667 15.1667ZM10.6667 12.5001C11.1267 12.5001 11.5001 12.8734 11.5001 13.3334C11.5001 13.7934 11.1267 14.1667 10.6667 14.1667C10.2067 14.1667 9.8334 13.7934 9.8334 13.3334C9.8334 12.8734 10.2067 12.5001 10.6667 12.5001Z" fill="#1F75F6"/>
<path fill-rule="evenodd" clip-rule="evenodd" d="M10.6667 11.6001C11.6248 11.6001 12.4001 12.3753 12.4001 13.3334C12.4001 14.2915 11.6248 15.0667 10.6667 15.0667C9.70863 15.0667 8.9334 14.2915 8.9334 13.3334C8.9334 12.3753 9.70863 11.6001 10.6667 11.6001ZM12.6001 13.3334C12.6001 12.2648 11.7353 11.4001 10.6667 11.4001C9.59817 11.4001 8.7334 12.2648 8.7334 13.3334C8.7334 14.402 9.59817 15.2667 10.6667 15.2667C11.7353 15.2667 12.6001 14.402 12.6001 13.3334ZM11.6001 13.3334C11.6001 12.8182 11.182 12.4001 10.6667 12.4001C10.1515 12.4001 9.7334 12.8182 9.7334 13.3334C9.7334 13.8486 10.1515 14.2667 10.6667 14.2667C11.182 14.2667 11.6001 13.8486 11.6001 13.3334ZM10.6667 12.6001C11.0715 12.6001 11.4001 12.9286 11.4001 13.3334C11.4001 13.7382 11.0715 14.0667 10.6667 14.0667C10.262 14.0667 9.9334 13.7382 9.9334 13.3334C9.9334 12.9286 10.262 12.6001 10.6667 12.6001Z" fill="#1F75F6"/>
<path d="M5.3334 15.1667C6.34673 15.1667 7.16673 14.3467 7.16673 13.3334C7.16673 12.3201 6.34673 11.5001 5.3334 11.5001C4.32007 11.5001 3.50007 12.3201 3.50007 13.3334C3.50007 14.3467 4.32007 15.1667 5.3334 15.1667ZM5.3334 12.5001C5.7934 12.5001 6.16673 12.8734 6.16673 13.3334C6.16673 13.7934 5.7934 14.1667 5.3334 14.1667C4.8734 14.1667 4.50007 13.7934 4.50007 13.3334C4.50007 12.8734 4.8734 12.5001 5.3334 12.5001Z" fill="#1F75F6"/>
<path fill-rule="evenodd" clip-rule="evenodd" d="M5.3334 11.6001C6.2915 11.6001 7.06673 12.3753 7.06673 13.3334C7.06673 14.2915 6.2915 15.0667 5.3334 15.0667C4.37529 15.0667 3.60007 14.2915 3.60007 13.3334C3.60007 12.3753 4.37529 11.6001 5.3334 11.6001ZM7.26673 13.3334C7.26673 12.2648 6.40196 11.4001 5.3334 11.4001C4.26484 11.4001 3.40007 12.2648 3.40007 13.3334C3.40007 14.402 4.26484 15.2667 5.3334 15.2667C6.40196 15.2667 7.26673 14.402 7.26673 13.3334ZM6.26673 13.3334C6.26673 12.8182 5.84863 12.4001 5.3334 12.4001C4.81817 12.4001 4.40006 12.8182 4.40006 13.3334C4.40006 13.8486 4.81817 14.2667 5.3334 14.2667C5.84863 14.2667 6.26673 13.8486 6.26673 13.3334ZM5.3334 12.6001C5.73817 12.6001 6.06673 12.9286 6.06673 13.3334C6.06673 13.7382 5.73817 14.0667 5.3334 14.0667C4.92863 14.0667 4.60007 13.7382 4.60007 13.3334C4.60007 12.9286 4.92863 12.6001 5.3334 12.6001Z" fill="#1F75F6"/>
<path d="M1.3334 9.8334L3.3334 9.8334C3.9734 9.8334 4.50007 9.30673 4.50007 8.66673V6.66673C4.50007 6.02673 3.9734 5.50006 3.3334 5.50006H2.4734C2.2934 5.50006 2.12673 5.5934 2.04007 5.7534L0.900065 7.7534C0.860065 7.82673 0.833398 7.9134 0.833398 8.00006L0.833398 9.3334C0.833398 9.60673 1.06006 9.8334 1.3334 9.8334ZM3.3334 6.50006C3.42673 6.50006 3.50007 6.5734 3.50007 6.66673V8.66673C3.50007 8.76007 3.42673 8.8334 3.3334 8.8334L1.8334 8.8334V8.1334L2.76673 6.50006H3.3334Z" fill="#1F75F6"/>
<path fill-rule="evenodd" clip-rule="evenodd" d="M3.3334 5.60007C3.91817 5.60007 4.40006 6.08196 4.40006 6.66673V8.66673C4.40006 9.2515 3.91817 9.7334 3.3334 9.7334H1.3334C1.11529 9.7334 0.933398 9.5515 0.933398 9.3334V8.00006C0.933398 7.93348 0.954082 7.86347 0.987427 7.80207L2.12801 5.80104C2.19623 5.6751 2.32802 5.60006 2.4734 5.60006L3.3334 5.60007ZM4.60007 6.66673C4.60007 5.9715 4.02863 5.40006 3.3334 5.40006H2.4734C2.25915 5.40006 2.05794 5.51133 1.95268 5.70477L0.81226 7.7055C0.765856 7.79058 0.733398 7.8936 0.733398 8.00006L0.733399 9.3334C0.733399 9.66196 1.00484 9.9334 1.3334 9.9334L3.3334 9.9334C4.02863 9.9334 4.60007 9.36196 4.60007 8.66673V6.66673ZM3.60007 6.66673C3.60007 6.51817 3.48196 6.40007 3.3334 6.40007L2.7087 6.40006L1.7334 8.10684V8.9334L3.3334 8.9334C3.48196 8.9334 3.60007 8.81529 3.60007 8.66673V6.66673ZM3.3334 6.60007C3.3715 6.60007 3.40006 6.62863 3.40006 6.66673V8.66673C3.40006 8.70484 3.3715 8.7334 3.3334 8.7334L1.9334 8.7334V8.15995L2.82476 6.60006L3.3334 6.60007Z" fill="#1F75F6"/>
</svg>
