<svg width="16" height="10" viewBox="0 0 16 10" fill="none" xmlns="http://www.w3.org/2000/svg">
<mask id="path-1-inside-1_1569_2202" fill="white">
<path d="M14.0498 5.00005C14.0498 3.63136 11.2065 1.98666 7.99502 1.97532C4.80544 1.96398 1.95084 3.62229 1.95084 5.00005C1.95084 6.38009 4.78956 8.02933 7.99805 8.02479C11.2156 8.02025 14.0498 6.37631 14.0498 5.00005ZM8.00031 9.53716C4.18764 9.54245 0.438477 7.50605 0.438477 5.00005C0.438477 2.49406 4.2073 0.450096 8.00031 0.462951C11.7933 0.475806 15.5622 2.49406 15.5622 5.00005C15.5622 7.50605 11.813 9.53186 8.00031 9.53716ZM8.00031 8.02479C6.3298 8.02479 4.97558 6.67057 4.97558 5.00005C4.97558 3.32954 6.3298 1.97532 8.00031 1.97532C9.67083 1.97532 11.025 3.32954 11.025 5.00005C11.025 6.67057 9.67083 8.02479 8.00031 8.02479ZM8.00031 6.51242C8.83557 6.51242 9.51268 5.83531 9.51268 5.00005C9.51268 4.1648 8.83557 3.48769 8.00031 3.48769C7.16506 3.48769 6.48795 4.1648 6.48795 5.00005C6.48795 5.83531 7.16506 6.51242 8.00031 6.51242Z"/>
</mask>
<path d="M14.0498 5.00005C14.0498 3.63136 11.2065 1.98666 7.99502 1.97532C4.80544 1.96398 1.95084 3.62229 1.95084 5.00005C1.95084 6.38009 4.78956 8.02933 7.99805 8.02479C11.2156 8.02025 14.0498 6.37631 14.0498 5.00005ZM8.00031 9.53716C4.18764 9.54245 0.438477 7.50605 0.438477 5.00005C0.438477 2.49406 4.2073 0.450096 8.00031 0.462951C11.7933 0.475806 15.5622 2.49406 15.5622 5.00005C15.5622 7.50605 11.813 9.53186 8.00031 9.53716ZM8.00031 8.02479C6.3298 8.02479 4.97558 6.67057 4.97558 5.00005C4.97558 3.32954 6.3298 1.97532 8.00031 1.97532C9.67083 1.97532 11.025 3.32954 11.025 5.00005C11.025 6.67057 9.67083 8.02479 8.00031 8.02479ZM8.00031 6.51242C8.83557 6.51242 9.51268 5.83531 9.51268 5.00005C9.51268 4.1648 8.83557 3.48769 8.00031 3.48769C7.16506 3.48769 6.48795 4.1648 6.48795 5.00005C6.48795 5.83531 7.16506 6.51242 8.00031 6.51242Z" fill="#333333"/>
<path d="M7.99502 1.97532L7.99146 2.97531L7.99149 2.97531L7.99502 1.97532ZM7.99805 8.02479L7.99663 7.02479H7.99663L7.99805 8.02479ZM4.97558 5.00005L3.97558 5.00005V5.00005H4.97558ZM11.025 5.00005H10.025H11.025ZM9.51268 5.00005L8.51268 5.00005V5.00005H9.51268ZM6.48795 5.00005H5.48795H6.48795ZM15.0498 5.00005C15.0498 4.3111 14.6991 3.72112 14.2938 3.27728C13.8777 2.82171 13.3186 2.42233 12.6914 2.0932C11.435 1.43388 9.76288 0.981556 7.99855 0.975325L7.99149 2.97531C9.43867 2.98042 10.7939 3.35612 11.762 3.86416C12.2471 4.11871 12.5995 4.38784 12.8169 4.62595C13.0451 4.8758 13.0498 5.00466 13.0498 5.00005H15.0498ZM7.99858 0.975325C6.24065 0.969073 4.56845 1.42016 3.31113 2.08183C2.68332 2.41222 2.12345 2.81379 1.70693 3.27175C1.3011 3.71795 0.950844 4.31004 0.950844 5.00005H2.95084C2.95084 5.00118 2.95741 4.86932 3.1865 4.61744C3.40488 4.37733 3.75801 4.1067 4.24254 3.85171C5.20993 3.34262 6.55981 2.97022 7.99146 2.97531L7.99858 0.975325ZM0.950844 5.00005C0.950844 5.68882 1.29835 6.28039 1.70389 6.72742C2.11952 7.18556 2.67845 7.58672 3.30574 7.91667C4.56216 8.57755 6.23447 9.02728 7.99946 9.02479L7.99663 7.02479C6.55313 7.02683 5.20184 6.65422 4.23679 6.1466C3.75333 5.8923 3.40205 5.62268 3.18516 5.3836C2.95818 5.1334 2.95084 5.0013 2.95084 5.00005H0.950844ZM7.99946 9.02479C9.76717 9.0223 11.4395 8.57202 12.6956 7.91207C13.3227 7.58261 13.8813 7.18233 14.2968 6.72515C14.7021 6.27909 15.0498 5.68838 15.0498 5.00005H13.0498C13.0498 5.00008 13.0498 5.00172 13.0494 5.00517C13.0489 5.00865 13.048 5.01424 13.0461 5.02206C13.0422 5.03783 13.0342 5.06261 13.0182 5.09649C12.9852 5.16609 12.9234 5.26261 12.8166 5.38012C12.6001 5.6184 12.2491 5.88743 11.7654 6.14156C10.8 6.64879 9.44648 7.02275 7.99663 7.02479L7.99946 9.02479ZM7.99893 8.53716C6.25591 8.53958 4.54159 8.07189 3.29211 7.34574C2.00144 6.59565 1.43848 5.72516 1.43848 5.00005H-0.561523C-0.561523 6.78094 0.750096 8.18164 2.28717 9.07493C3.86544 9.99216 5.93204 10.54 8.0017 10.5372L7.99893 8.53716ZM1.43848 5.00005C1.43848 4.27642 2.00438 3.40375 3.29926 2.65166C4.55182 1.92415 6.26577 1.45708 7.99692 1.46295L8.0037 -0.537043C5.94184 -0.544031 3.87487 0.00445321 2.29477 0.922211C0.756987 1.81538 -0.561523 3.2177 -0.561523 5.00005H1.43848ZM7.99692 1.46295C9.73275 1.46883 11.4494 1.93697 12.7028 2.66215C13.9986 3.41184 14.5622 4.27826 14.5622 5.00005H16.5622C16.5622 3.21586 15.2413 1.82015 13.7044 0.931C12.1252 0.0173386 10.0609 -0.530071 8.0037 -0.537043L7.99692 1.46295ZM14.5622 5.00005C14.5622 5.72441 14.0002 6.59232 12.7091 7.34142C11.4593 8.06661 9.74385 8.53474 7.99893 8.53716L8.0017 10.5372C10.0695 10.5343 12.1349 9.98685 13.7129 9.07131C15.2496 8.17968 16.5622 6.78169 16.5622 5.00005H14.5622ZM8.00031 7.02479C6.88208 7.02479 5.97558 6.11829 5.97558 5.00005H3.97558C3.97558 7.22285 5.77751 9.02479 8.00031 9.02479L8.00031 7.02479ZM5.97558 5.00005C5.97558 3.88182 6.88208 2.97532 8.00031 2.97532V0.975319C5.77751 0.975319 3.97558 2.77725 3.97558 5.00005L5.97558 5.00005ZM8.00031 2.97532C9.11854 2.97532 10.025 3.88182 10.025 5.00005H12.025C12.025 2.77725 10.2231 0.975319 8.00031 0.975319L8.00031 2.97532ZM10.025 5.00005C10.025 6.11829 9.11854 7.02479 8.00031 7.02479V9.02479C10.2231 9.02479 12.025 7.22285 12.025 5.00005L10.025 5.00005ZM8.00031 7.51242C9.38786 7.51242 10.5127 6.3876 10.5127 5.00005H8.51268C8.51268 5.28303 8.28329 5.51242 8.00031 5.51242L8.00031 7.51242ZM10.5127 5.00005C10.5127 3.61251 9.38786 2.48769 8.00031 2.48769V4.48769C8.28329 4.48769 8.51268 4.71708 8.51268 5.00005L10.5127 5.00005ZM8.00031 2.48769C6.61277 2.48769 5.48795 3.61251 5.48795 5.00005H7.48795C7.48795 4.71708 7.71734 4.48769 8.00031 4.48769L8.00031 2.48769ZM5.48795 5.00005C5.48795 6.3876 6.61277 7.51242 8.00031 7.51242V5.51242C7.71734 5.51242 7.48795 5.28303 7.48795 5.00005L5.48795 5.00005Z" fill="#1F75F6" mask="url(#path-1-inside-1_1569_2202)"/>
</svg>
