<svg width="14" height="16" viewBox="0 0 14 16" fill="none" xmlns="http://www.w3.org/2000/svg">
<path d="M10.2669 0.965332H10.7669C11.7392 0.965332 12.5274 1.75351 12.5274 2.72577V13.2745C12.5274 14.2468 11.7392 15.0349 10.7669 15.0349H3.23212C2.25986 15.0349 1.47168 14.2468 1.47168 13.2745V2.72577C1.47168 1.75351 2.25986 0.965332 3.23212 0.965332H3.49276L10.2669 0.965332ZM3.73212 1.47229H3.23212C2.53984 1.47229 1.97864 2.0335 1.97864 2.72577V13.2745C1.97864 13.9668 2.53984 14.528 3.23212 14.528H10.7669C11.4592 14.528 12.0204 13.9668 12.0204 13.2745V2.72577C12.0204 2.0335 11.4592 1.47229 10.7669 1.47229L3.73212 1.47229ZM4.73908 3.22577H9.25996C9.39996 3.22577 9.51344 3.33926 9.51344 3.47925C9.51344 3.61925 9.39996 3.73273 9.25996 3.73273H4.73908C4.59909 3.73273 4.4856 3.61925 4.4856 3.47925C4.4856 3.33926 4.59909 3.22577 4.73908 3.22577ZM4.73908 12.2675H6.24604C6.38604 12.2675 6.49952 12.381 6.49952 12.521C6.49952 12.661 6.38604 12.7745 6.24604 12.7745H4.73908C4.59909 12.7745 4.4856 12.661 4.4856 12.521C4.4856 12.381 4.59909 12.2675 4.73908 12.2675ZM4.73908 9.25362H9.25996C9.39996 9.25362 9.51344 9.3671 9.51344 9.5071C9.51344 9.64709 9.39996 9.76058 9.25996 9.76058H4.73908C4.59909 9.76058 4.4856 9.64709 4.4856 9.5071C4.4856 9.3671 4.59909 9.25362 4.73908 9.25362ZM4.73908 6.2397H9.25996C9.39996 6.2397 9.51344 6.35318 9.51344 6.49318C9.51344 6.63317 9.39996 6.74666 9.25996 6.74666H4.73908C4.59909 6.74666 4.4856 6.63317 4.4856 6.49318C4.4856 6.35318 4.59909 6.2397 4.73908 6.2397Z" fill="#333333" stroke="#1F75F6"/>
</svg>
