<svg width="16" height="16" viewBox="0 0 16 16" fill="none" xmlns="http://www.w3.org/2000/svg">
<path d="M7.33334 9.83334H14.6667C14.94 9.83334 15.1667 9.60667 15.1667 9.33334V4C15.1667 2.25334 13.7467 0.833337 12 0.833337H6C5.72667 0.833337 5.5 1.06 5.5 1.33334V8C5.5 9.01334 6.32 9.83334 7.33334 9.83334ZM14.1667 8.83334H7.33334C6.87334 8.83334 6.5 8.46 6.5 8V1.83334H12C13.1933 1.83334 14.1667 2.80667 14.1667 4V8.83334Z" fill="#333333"/>
<path fill-rule="evenodd" clip-rule="evenodd" d="M12 0.933337C13.6914 0.933337 15.0667 2.30857 15.0667 4V9.33334C15.0667 9.55144 14.8848 9.73334 14.6667 9.73334H7.33334C6.37523 9.73334 5.6 8.95811 5.6 8V1.33334C5.6 1.11523 5.7819 0.933337 6 0.933337H12ZM15.2667 4C15.2667 2.19811 13.8019 0.733337 12 0.733337H6C5.67144 0.733337 5.4 1.00478 5.4 1.33334V8C5.4 9.06857 6.26478 9.93334 7.33334 9.93334H14.6667C14.9952 9.93334 15.2667 9.6619 15.2667 9.33334V4ZM14.2667 4C14.2667 2.75144 13.2486 1.73334 12 1.73334H6.4V8C6.4 8.51523 6.81811 8.93334 7.33334 8.93334H14.2667V4ZM12 1.93334C13.1381 1.93334 14.0667 2.8619 14.0667 4V8.73334H7.33334C6.92857 8.73334 6.6 8.40478 6.6 8V1.93334H12Z" fill="#333333"/>
<path d="M3.33334 13.8333H4C4.27334 13.8333 4.5 13.6067 4.5 13.3333C4.5 12.8733 4.87334 12.5 5.33334 12.5C5.79334 12.5 6.16667 12.8733 6.16667 13.3333C6.16667 13.6067 6.39334 13.8333 6.66667 13.8333H9.33334C9.60667 13.8333 9.83334 13.6067 9.83334 13.3333C9.83334 12.8733 10.2067 12.5 10.6667 12.5C11.1267 12.5 11.5 12.8733 11.5 13.3333C11.5 13.6067 11.7267 13.8333 12 13.8333H12.6667C14.0467 13.8333 15.1667 12.7133 15.1667 11.3333V9.33334C15.1667 9.06 14.94 8.83334 14.6667 8.83334H7.33334C6.87334 8.83334 6.5 8.46 6.5 8V3.33334C6.5 3.06 6.27334 2.83334 6 2.83334H4.77334C4.11334 2.83334 3.50667 3.18668 3.18 3.76001L2.04 5.75334C1.95334 5.90667 1.95334 6.1 2.04 6.25334C2.12667 6.40667 2.29334 6.5 2.47334 6.5H3.33334C3.42667 6.5 3.5 6.57334 3.5 6.66667V8.66667C3.5 8.76 3.42667 8.83334 3.33334 8.83334H1.33334C1.06 8.83334 0.833337 9.06 0.833337 9.33334V11.3333C0.833337 12.7133 1.95334 13.8333 3.33334 13.8333ZM3.56667 12.8333H3.33334C2.50667 12.8333 1.83334 12.16 1.83334 11.3333V9.83334H3.33334C3.97334 9.83334 4.5 9.30667 4.5 8.66667V6.66667C4.5 6.02667 3.98 5.5 3.33334 5.5L4.04667 4.25334C4.19334 3.99334 4.47334 3.83334 4.77334 3.83334H5.5V8C5.5 9.01334 6.32 9.83334 7.33334 9.83334H14.1667V11.3333C14.1667 12.16 13.4933 12.8333 12.6667 12.8333H12.4333C12.2133 12.0667 11.5067 11.5 10.6667 11.5C9.82667 11.5 9.12001 12.0667 8.90001 12.8333H7.09334C6.87334 12.0667 6.16667 11.5 5.32667 11.5C4.48667 11.5 3.78667 12.0667 3.56667 12.8333Z" fill="#333333"/>
<path fill-rule="evenodd" clip-rule="evenodd" d="M6 2.93334C6.21811 2.93334 6.4 3.11523 6.4 3.33334V8C6.4 8.51523 6.81811 8.93334 7.33334 8.93334H14.6667C14.8848 8.93334 15.0667 9.11523 15.0667 9.33334V11.3333C15.0667 12.6581 13.9914 13.7333 12.6667 13.7333H12C11.7819 13.7333 11.6 13.5514 11.6 13.3333C11.6 12.8181 11.1819 12.4 10.6667 12.4C10.1514 12.4 9.73334 12.8181 9.73334 13.3333C9.73334 13.5514 9.55144 13.7333 9.33334 13.7333H6.66667C6.44857 13.7333 6.26667 13.5514 6.26667 13.3333C6.26667 12.8181 5.84857 12.4 5.33334 12.4C4.81811 12.4 4.4 12.8181 4.4 13.3333C4.4 13.5514 4.21811 13.7333 4 13.7333H3.33334C2.00857 13.7333 0.933337 12.6581 0.933337 11.3333V9.33334C0.933337 9.11523 1.11523 8.93334 1.33334 8.93334H3.33334C3.4819 8.93334 3.6 8.81523 3.6 8.66667V6.66667C3.6 6.51811 3.4819 6.4 3.33334 6.4H2.47334C2.32742 6.4 2.19504 6.3244 2.12706 6.20413C2.05769 6.08141 2.05765 5.92553 2.12694 5.80276C2.12698 5.80269 2.12689 5.80284 2.12694 5.80276L3.26681 3.80966C3.57573 3.26748 4.14934 2.93334 4.77334 2.93334H6ZM6.6 3.33334C6.6 3.00478 6.32857 2.73334 6 2.73334H4.77334C4.07733 2.73334 3.43753 3.10602 3.09312 3.71051L1.9532 5.70369C1.84927 5.88756 1.84902 6.11868 1.95295 6.30254C2.0583 6.48894 2.25925 6.6 2.47334 6.6H3.33334C3.37144 6.6 3.4 6.62857 3.4 6.66667V8.66667C3.4 8.70478 3.37144 8.73334 3.33334 8.73334H1.33334C1.00478 8.73334 0.733338 9.00478 0.733338 9.33334V11.3333C0.733338 12.7686 1.89811 13.9333 3.33334 13.9333H4C4.32857 13.9333 4.6 13.6619 4.6 13.3333C4.6 12.9286 4.92857 12.6 5.33334 12.6C5.73811 12.6 6.06667 12.9286 6.06667 13.3333C6.06667 13.6619 6.33811 13.9333 6.66667 13.9333H9.33334C9.6619 13.9333 9.93334 13.6619 9.93334 13.3333C9.93334 12.9286 10.2619 12.6 10.6667 12.6C11.0714 12.6 11.4 12.9286 11.4 13.3333C11.4 13.6619 11.6714 13.9333 12 13.9333H12.6667C14.1019 13.9333 15.2667 12.7686 15.2667 11.3333V9.33334C15.2667 9.00478 14.9952 8.73334 14.6667 8.73334H7.33334C6.92857 8.73334 6.6 8.40478 6.6 8V3.33334ZM5.6 3.73334H4.77334C4.43831 3.73334 4.12468 3.91184 3.95978 4.20384C3.95971 4.20396 3.95985 4.20372 3.95978 4.20384L3.16091 5.6H3.33334C3.9244 5.6 4.4 6.08153 4.4 6.66667V8.66667C4.4 9.25144 3.91811 9.73334 3.33334 9.73334H1.73334V11.3333C1.73334 12.2152 2.45144 12.9333 3.33334 12.9333H3.64201L3.66279 12.8609C3.87104 12.1352 4.53326 11.6 5.32667 11.6C6.12051 11.6 6.78909 12.1356 6.99722 12.8609L7.018 12.9333H8.97534L8.99613 12.8609C9.20426 12.1356 9.87283 11.6 10.6667 11.6C11.4605 11.6 12.1291 12.1356 12.3372 12.8609L12.358 12.9333H12.6667C13.5486 12.9333 14.2667 12.2152 14.2667 11.3333V9.73334L7.33334 9.73334C6.37523 9.73334 5.6 8.95811 5.6 8V3.73334ZM5.4 3.93334V8C5.4 9.06857 6.26478 9.93334 7.33334 9.93334H14.0667V11.3333C14.0667 12.1048 13.4381 12.7333 12.6667 12.7333H12.5071C12.2526 11.9623 11.5261 11.4 10.6667 11.4C9.8072 11.4 9.08074 11.9623 8.82622 12.7333H7.16713C6.91261 11.9623 6.18614 11.4 5.32667 11.4C4.46679 11.4 3.74689 11.9627 3.49287 12.7333H3.33334C2.5619 12.7333 1.93334 12.1048 1.93334 11.3333V9.93334H3.33334C4.02857 9.93334 4.6 9.3619 4.6 8.66667V6.66667C4.6 6.0276 4.12258 5.4926 3.49958 5.41083L4.13347 4.303C4.26196 4.07522 4.50851 3.93334 4.77334 3.93334H5.4Z" fill="#333333"/>
<path d="M10.6667 15.1667C11.68 15.1667 12.5 14.3467 12.5 13.3333C12.5 12.32 11.68 11.5 10.6667 11.5C9.65334 11.5 8.83334 12.32 8.83334 13.3333C8.83334 14.3467 9.65334 15.1667 10.6667 15.1667ZM10.6667 12.5C11.1267 12.5 11.5 12.8733 11.5 13.3333C11.5 13.7933 11.1267 14.1667 10.6667 14.1667C10.2067 14.1667 9.83334 13.7933 9.83334 13.3333C9.83334 12.8733 10.2067 12.5 10.6667 12.5Z" fill="#333333"/>
<path fill-rule="evenodd" clip-rule="evenodd" d="M10.6667 11.6C11.6248 11.6 12.4 12.3752 12.4 13.3333C12.4 14.2914 11.6248 15.0667 10.6667 15.0667C9.70857 15.0667 8.93334 14.2914 8.93334 13.3333C8.93334 12.3752 9.70857 11.6 10.6667 11.6ZM12.6 13.3333C12.6 12.2648 11.7352 11.4 10.6667 11.4C9.59811 11.4 8.73334 12.2648 8.73334 13.3333C8.73334 14.4019 9.59811 15.2667 10.6667 15.2667C11.7352 15.2667 12.6 14.4019 12.6 13.3333ZM11.6 13.3333C11.6 12.8181 11.1819 12.4 10.6667 12.4C10.1514 12.4 9.73334 12.8181 9.73334 13.3333C9.73334 13.8486 10.1514 14.2667 10.6667 14.2667C11.1819 14.2667 11.6 13.8486 11.6 13.3333ZM10.6667 12.6C11.0714 12.6 11.4 12.9286 11.4 13.3333C11.4 13.7381 11.0714 14.0667 10.6667 14.0667C10.2619 14.0667 9.93334 13.7381 9.93334 13.3333C9.93334 12.9286 10.2619 12.6 10.6667 12.6Z" fill="#333333"/>
<path d="M5.33334 15.1667C6.34667 15.1667 7.16667 14.3467 7.16667 13.3333C7.16667 12.32 6.34667 11.5 5.33334 11.5C4.32001 11.5 3.50001 12.32 3.50001 13.3333C3.50001 14.3467 4.32001 15.1667 5.33334 15.1667ZM5.33334 12.5C5.79334 12.5 6.16667 12.8733 6.16667 13.3333C6.16667 13.7933 5.79334 14.1667 5.33334 14.1667C4.87334 14.1667 4.5 13.7933 4.5 13.3333C4.5 12.8733 4.87334 12.5 5.33334 12.5Z" fill="#333333"/>
<path fill-rule="evenodd" clip-rule="evenodd" d="M5.33334 11.6C6.29144 11.6 7.06667 12.3752 7.06667 13.3333C7.06667 14.2914 6.29144 15.0667 5.33334 15.0667C4.37523 15.0667 3.6 14.2914 3.6 13.3333C3.6 12.3752 4.37523 11.6 5.33334 11.6ZM7.26667 13.3333C7.26667 12.2648 6.4019 11.4 5.33334 11.4C4.26478 11.4 3.4 12.2648 3.4 13.3333C3.4 14.4019 4.26478 15.2667 5.33334 15.2667C6.4019 15.2667 7.26667 14.4019 7.26667 13.3333ZM6.26667 13.3333C6.26667 12.8181 5.84857 12.4 5.33334 12.4C4.81811 12.4 4.4 12.8181 4.4 13.3333C4.4 13.8486 4.81811 14.2667 5.33334 14.2667C5.84857 14.2667 6.26667 13.8486 6.26667 13.3333ZM5.33334 12.6C5.73811 12.6 6.06667 12.9286 6.06667 13.3333C6.06667 13.7381 5.73811 14.0667 5.33334 14.0667C4.92857 14.0667 4.6 13.7381 4.6 13.3333C4.6 12.9286 4.92857 12.6 5.33334 12.6Z" fill="#333333"/>
<path d="M1.33334 9.83334L3.33334 9.83334C3.97334 9.83334 4.5 9.30667 4.5 8.66667V6.66667C4.5 6.02667 3.97334 5.5 3.33334 5.5H2.47334C2.29334 5.5 2.12667 5.59334 2.04 5.75334L0.900004 7.75334C0.860004 7.82667 0.833337 7.91334 0.833337 8L0.833337 9.33334C0.833337 9.60667 1.06 9.83334 1.33334 9.83334ZM3.33334 6.5C3.42667 6.5 3.5 6.57334 3.5 6.66667V8.66667C3.5 8.76 3.42667 8.83334 3.33334 8.83334L1.83334 8.83334V8.13334L2.76667 6.5H3.33334Z" fill="#333333"/>
<path fill-rule="evenodd" clip-rule="evenodd" d="M3.33334 5.6C3.91811 5.6 4.4 6.0819 4.4 6.66667V8.66667C4.4 9.25144 3.91811 9.73334 3.33334 9.73334H1.33334C1.11523 9.73334 0.933337 9.55144 0.933337 9.33334V8C0.933337 7.93342 0.954021 7.86341 0.987365 7.80201L2.12795 5.80098C2.19617 5.67504 2.32795 5.6 2.47334 5.6L3.33334 5.6ZM4.6 6.66667C4.6 5.97144 4.02857 5.4 3.33334 5.4H2.47334C2.25909 5.4 2.05788 5.51127 1.95262 5.70471L0.812199 7.70544C0.765795 7.79052 0.733337 7.89354 0.733337 8L0.733338 9.33334C0.733338 9.6619 1.00478 9.93334 1.33334 9.93334L3.33334 9.93334C4.02857 9.93334 4.6 9.3619 4.6 8.66667V6.66667ZM3.6 6.66667C3.6 6.51811 3.4819 6.4 3.33334 6.4L2.70864 6.4L1.73334 8.10678V8.93334L3.33334 8.93334C3.4819 8.93334 3.6 8.81523 3.6 8.66667V6.66667ZM3.33334 6.6C3.37144 6.6 3.4 6.62857 3.4 6.66667V8.66667C3.4 8.70478 3.37144 8.73334 3.33334 8.73334L1.93334 8.73334V8.15989L2.8247 6.6L3.33334 6.6Z" fill="#333333"/>
</svg>
