<svg width="24" height="24" viewBox="0 0 24 24" fill="none" xmlns="http://www.w3.org/2000/svg">
<path fill-rule="evenodd" clip-rule="evenodd" d="M7.54352 19.9518C8.25751 19.9518 8.83851 20.5318 8.83851 21.2458C8.83851 21.9598 8.25751 22.5408 7.54352 22.5408C6.82951 22.5408 6.24951 21.9598 6.24951 21.2458C6.24951 20.5318 6.82951 19.9518 7.54352 19.9518ZM18.8238 19.9518C19.5388 19.9518 20.1198 20.5318 20.1198 21.2458C20.1198 21.9598 19.5388 22.5408 18.8238 22.5408C18.1098 22.5408 17.5298 21.9598 17.5298 21.2458C17.5298 20.5318 18.1098 19.9518 18.8238 19.9518ZM3.26772 3.00937L5.34772 3.36937C5.68272 3.42837 5.93772 3.70637 5.96672 4.04637L6.20172 6.84737L7.07557 6.84775C7.21816 6.84781 7.35925 6.84788 7.49884 6.84794L9.10314 6.8487C9.23102 6.84877 9.35747 6.84883 9.4825 6.84889L11.2539 6.84987C11.3652 6.84993 11.4751 6.85 11.5838 6.85006L12.8251 6.85085C12.9234 6.85092 13.0205 6.85099 13.1164 6.85105L14.2082 6.85186C14.2944 6.85193 14.3794 6.85199 14.4633 6.85206L15.4152 6.85288C15.4901 6.85295 15.5639 6.85302 15.6366 6.85308L16.2623 6.85371C16.3287 6.85378 16.394 6.85385 16.4584 6.85391L17.1829 6.85476C17.2394 6.85483 17.295 6.8549 17.3496 6.85497L17.9614 6.85582C18.0088 6.85589 18.0554 6.85597 18.1011 6.85604L18.4899 6.85669C18.5306 6.85676 18.5706 6.85683 18.6097 6.8569L19.0428 6.85778C19.0759 6.85786 19.1083 6.85793 19.14 6.858L19.4066 6.85867C19.4342 6.85874 19.4611 6.85882 19.4874 6.85889L19.7732 6.85979C19.7946 6.85987 19.8154 6.85995 19.8357 6.86002L20.0035 6.86071C20.0205 6.86078 20.0371 6.86086 20.0531 6.86094L20.2229 6.86186C20.2352 6.86194 20.2471 6.86202 20.2586 6.86209L20.3511 6.8628C20.3602 6.86287 20.369 6.86295 20.3774 6.86303L20.4439 6.86374C20.4504 6.86382 20.4565 6.8639 20.4624 6.86398L20.5077 6.8647C20.512 6.86478 20.516 6.86486 20.5198 6.86494L20.5485 6.86566C20.5511 6.86574 20.5535 6.86582 20.5558 6.86591L20.5766 6.86688C20.5778 6.86697 20.579 6.86705 20.5801 6.86713C20.5898 6.86804 20.5913 6.86821 20.5927 6.86837C21.1497 6.94937 21.6397 7.24037 21.9737 7.68837C22.3077 8.13537 22.4477 8.68637 22.3677 9.23837L21.4187 15.7964C21.2397 17.0444 20.1557 17.9854 18.8957 17.9854H7.97472C6.65772 17.9854 5.54272 16.9574 5.43571 15.6424L4.51972 4.74837L3.01272 4.48837C2.60372 4.41637 2.33072 4.02937 2.40072 3.62037C2.47272 3.21137 2.86772 2.94537 3.26772 3.00937ZM6.87495 8.34771L6.32772 8.34737L6.93072 15.5194C6.97472 16.0714 7.42571 16.4854 7.97672 16.4854H18.8937C19.4147 16.4854 19.8597 16.0974 19.9337 15.5824L20.8837 9.02337C20.9057 8.86737 20.8667 8.71137 20.7717 8.58537C20.6777 8.45837 20.5397 8.37637 20.3837 8.35437C20.3765 8.35465 20.3592 8.3549 20.3324 8.35513L20.2236 8.35575C20.2009 8.35585 20.1759 8.35593 20.1486 8.35601L19.5821 8.35688C19.5343 8.35691 19.4846 8.35694 19.4331 8.35696L18.1011 8.35691C18.0268 8.35688 17.9511 8.35685 17.874 8.35682L16.3539 8.35589C16.2628 8.35583 16.1707 8.35576 16.0777 8.35569L15.2176 8.355C15.1196 8.35492 15.0209 8.35483 14.9215 8.35475L14.0105 8.35395C13.9076 8.35385 13.8042 8.35376 13.7004 8.35367L13.0728 8.35309C12.9675 8.35299 12.8619 8.35289 12.756 8.3528L11.7983 8.3519C11.6915 8.3518 11.5847 8.3517 11.4778 8.3516L10.8372 8.35101C10.7306 8.35091 10.6241 8.35081 10.5178 8.35071L9.88255 8.35013C9.77721 8.35004 9.67217 8.34995 9.5675 8.34985L8.63699 8.34905C8.53507 8.34897 8.43369 8.34888 8.33293 8.3488L7.15701 8.34791C7.06211 8.34784 6.96807 8.34778 6.87495 8.34771ZM17.2876 10.5437C17.7016 10.5437 18.0376 10.8797 18.0376 11.2937C18.0376 11.7077 17.7016 12.0437 17.2876 12.0437H14.5156C14.1006 12.0437 13.7656 11.7077 13.7656 11.2937C13.7656 10.8797 14.1006 10.5437 14.5156 10.5437H17.2876Z" fill="#474747"/>
</svg>
