<svg width="16" height="16" viewBox="0 0 16 16" fill="none" xmlns="http://www.w3.org/2000/svg">
<path d="M6.77958 6.04443C6.83809 5.94478 6.88953 5.83547 6.92138 5.71491L4.581 3.38253C4.6987 3.51359 4.83974 3.69725 4.98603 3.9073L6.77958 6.04443Z" fill="white"/>
<path d="M9.68825 9.37545L9.67158 9.38784C9.65356 9.40124 9.6359 9.41452 9.61876 9.42749L10.3374 10.2838C10.4535 10.1975 10.5182 10.1537 10.5606 10.13C10.5703 10.1334 10.5826 10.138 10.5978 10.1442C10.6748 10.1756 10.7746 10.2255 10.9412 10.3094C11.164 10.4217 11.52 10.6254 11.8713 10.8527C12.2235 11.0805 12.5295 11.3056 12.6949 11.4686L10.2661 9.04817C10.0349 9.11759 9.84394 9.25965 9.68825 9.37545Z" fill="white"/>
<path fill-rule="evenodd" clip-rule="evenodd" d="M4.96966 2.21571C5.06409 2.28987 5.16742 2.38739 5.28117 2.49974C5.53506 2.74964 5.82345 3.14291 6.06642 3.51237C6.313 3.88733 6.54356 4.28503 6.6745 4.56593C6.74586 4.71938 6.81357 4.86554 6.86152 4.99478C6.9104 5.12657 6.955 5.28166 6.95529 5.45518C6.95544 5.5472 6.94286 5.63361 6.92138 5.71491L4.581 3.38253C4.55176 3.34998 4.52396 3.32067 4.49788 3.29502L4.49708 3.29423C4.44296 3.24077 4.39974 3.19934 4.36492 3.1672C4.16161 3.25286 3.96653 3.35688 3.7821 3.47794C3.4109 3.7247 3.26935 3.8855 3.16658 4.10511C3.11645 4.21222 2.94779 4.82084 3.75357 6.28464C4.56704 7.76241 5.12373 8.49934 6.30478 9.67707C7.48093 10.8499 8.3749 11.4739 9.70852 12.2218C10.5214 12.677 11.0361 12.8324 11.3555 12.8723C11.649 12.9089 11.7928 12.8507 11.8922 12.8044C12.1141 12.701 12.2756 12.5603 12.5217 12.1907C12.6427 12.0072 12.7466 11.8131 12.8322 11.6107C12.8002 11.5761 12.7591 11.5333 12.7062 11.4799L12.7055 11.4792L12.6949 11.4686L10.2661 9.04817C10.3541 9.02173 10.448 9.00582 10.548 9.00593C10.7301 9.00612 10.8894 9.0576 11.0197 9.11078C11.1427 9.16097 11.2824 9.23134 11.4281 9.30478L11.4434 9.31246C11.7088 9.44629 12.1001 9.67119 12.4777 9.91548C12.7685 10.1036 13.078 10.3203 13.3199 10.5284H13.335L13.4988 10.6939C13.6115 10.8077 13.7092 10.911 13.7836 11.0054C13.855 11.0961 13.9435 11.2255 13.9813 11.3923C14.0243 11.5822 13.9846 11.7392 13.9472 11.8418C13.9306 11.8872 13.9113 11.93 13.8991 11.9572L13.8933 11.97C13.8818 11.9955 13.8726 12.016 13.8628 12.0395L13.8621 12.0412C13.7494 12.3084 13.6123 12.5646 13.4526 12.8067L13.4514 12.8085L13.2872 13.0574H13.2752C13.0202 13.3927 12.7485 13.6369 12.3635 13.8162C12.1147 13.9321 11.7595 14.0475 11.2174 13.9799C10.7013 13.9156 10.044 13.6891 9.16278 13.1955C7.75722 12.4072 6.77717 11.7245 5.51657 10.4675C4.26087 9.21529 3.64026 8.39352 2.77568 6.82292C1.90342 5.23836 1.88074 4.2192 2.15555 3.63198C2.3776 3.1575 2.7005 2.85639 3.16559 2.5474L3.16797 2.54582C3.41024 2.38665 3.66658 2.25001 3.93377 2.13759L3.96162 2.19816L3.93605 2.13663C3.95982 2.12676 3.98044 2.11752 4.00615 2.10599L4.01871 2.10036C4.04595 2.08817 4.08873 2.06903 4.13412 2.05254C4.23647 2.01537 4.39314 1.97581 4.58258 2.01853C4.74931 2.05612 4.87877 2.14433 4.96966 2.21571ZM10.3374 10.2838L9.61876 9.42749C9.59498 9.4455 9.57221 9.4629 9.55092 9.47918L9.54526 9.4835C9.50605 9.51348 9.47241 9.53914 9.44022 9.56284C9.37489 9.61094 9.33071 9.6395 9.29564 9.65775C9.26359 9.67444 9.24617 9.67868 9.23681 9.68018C9.2287 9.68147 9.21117 9.68332 9.17598 9.67581C9.07492 9.65426 8.83038 9.55593 8.49672 9.3481C8.17639 9.14858 7.81265 8.87219 7.47363 8.53425C7.13451 8.19621 6.85035 7.82632 6.6432 7.49898C6.42641 7.15644 6.32406 6.90817 6.30332 6.81154C6.29606 6.77771 6.29802 6.76163 6.29913 6.75483C6.30048 6.74659 6.30451 6.72976 6.3215 6.69753C6.34012 6.6622 6.36908 6.61788 6.41794 6.55167C6.44073 6.52078 6.46496 6.48895 6.49316 6.45191L6.49816 6.44535C6.52757 6.4067 6.56058 6.36328 6.5944 6.31723C6.65482 6.23497 6.72078 6.14457 6.77958 6.04443L4.98603 3.9073C4.83974 3.69725 4.6987 3.51359 4.581 3.38253L4.36492 3.1672L4.98603 3.9073C5.03492 3.97748 5.08439 4.0506 5.13377 4.12569C5.36407 4.47589 5.56301 4.82361 5.66261 5.03719C5.73903 5.20154 5.78565 5.30402 5.81495 5.38299C5.8259 5.41254 5.832 5.43263 5.83534 5.44526C5.82171 5.47089 5.78528 5.5332 5.69473 5.65648C5.67576 5.68231 5.65296 5.71216 5.62785 5.74506C5.53643 5.86481 5.41428 6.02481 5.33405 6.177C5.20634 6.41924 5.1386 6.70422 5.21193 7.04582C5.27464 7.33795 5.46217 7.72018 5.69996 8.0959C5.94737 8.48684 6.28247 8.92299 6.68557 9.3248C7.08878 9.72672 7.51997 10.0548 7.90655 10.2956C8.27979 10.528 8.65412 10.7059 8.94314 10.7675C9.28265 10.8399 9.56729 10.7747 9.81103 10.6479C9.97005 10.5651 10.1324 10.4405 10.2547 10.3467C10.2849 10.3234 10.3127 10.3021 10.3374 10.2838Z" fill="white"/>
</svg>
