<svg width="24" height="24" viewBox="0 0 24 24" fill="none" xmlns="http://www.w3.org/2000/svg">
<path fill-rule="evenodd" clip-rule="evenodd" d="M17.0162 3.16396C17.0942 2.77788 17.4361 2.5 17.8333 2.5H21.1667C21.6269 2.5 22 2.86985 22 3.32609C22 3.78232 21.6269 4.15217 21.1667 4.15217H18.5164L17.8234 7.58463C17.8197 7.60814 17.815 7.63132 17.8093 7.65412L16.4174 14.5483C16.4174 14.5484 16.4174 14.5483 16.4174 14.5483C16.182 15.7229 15.1332 16.5623 13.9261 16.5435H5.84055C4.63346 16.5623 3.58466 15.7229 3.34931 14.5483L3.34807 14.5421L2.01476 7.61127C1.96824 7.36943 2.03295 7.11963 2.19126 6.92994C2.34957 6.74024 2.58499 6.63043 2.83334 6.63043H16.3163L17.0162 3.16396ZM15.9827 8.28261H3.84061L4.98456 14.229C5.06421 14.6202 5.41466 14.8991 5.81737 14.8915L5.83334 14.8913H13.9333L13.9493 14.8915C14.3529 14.8991 14.704 14.6189 14.7826 14.2265L15.9827 8.28261ZM4.15483 18.6796C4.8057 18.0343 5.86098 18.0344 6.51185 18.6796C7.16273 19.3248 7.16272 20.3709 6.51185 21.0161C5.86098 21.6613 4.80571 21.6613 4.15484 21.0161C3.50396 20.3709 3.50396 19.3248 4.15483 18.6796ZM13.3215 18.6796C13.9724 18.0343 15.0276 18.0344 15.6785 18.6796C16.3294 19.3248 16.3294 20.3709 15.6785 21.0161C15.0276 21.6613 13.9724 21.6613 13.3215 21.0161C12.6706 20.3709 12.6706 19.3248 13.3215 18.6796Z" fill="#333333"/>
</svg>
