<svg width="22" height="22" viewBox="0 0 22 22" fill="none" xmlns="http://www.w3.org/2000/svg">
<path d="M3.02226 4.79765C3.2289 3.91673 3.91673 3.2289 4.79765 3.02226V3.02226C5.56108 2.84318 6.35559 2.84318 7.11902 3.02226V3.02226C7.99994 3.2289 8.68777 3.91673 8.89441 4.79765V4.79765C9.07348 5.56108 9.07348 6.35559 8.89441 7.11902V7.11902C8.68777 7.99994 7.99994 8.68777 7.11902 8.89441V8.89441C6.35559 9.07348 5.56108 9.07348 4.79765 8.89441V8.89441C3.91673 8.68777 3.2289 7.99994 3.02226 7.11902V7.11902C2.84318 6.35559 2.84318 5.56108 3.02226 4.79765V4.79765Z" stroke="#0A194B" stroke-width="1.5"/>
<path d="M3.02226 14.8809C3.2289 14 3.91673 13.3121 4.79765 13.1055V13.1055C5.56108 12.9264 6.35559 12.9264 7.11902 13.1055V13.1055C7.99994 13.3121 8.68777 14 8.89441 14.8809V14.8809C9.07348 15.6443 9.07348 16.4388 8.89441 17.2023V17.2023C8.68777 18.0832 7.99994 18.771 7.11902 18.9777V18.9777C6.35559 19.1567 5.56108 19.1567 4.79765 18.9777V18.9777C3.91673 18.771 3.2289 18.0832 3.02226 17.2023V17.2023C2.84318 16.4388 2.84318 15.6443 3.02226 14.8809V14.8809Z" stroke="#0A194B" stroke-width="1.5"/>
<path d="M13.1056 4.79765C13.3123 3.91673 14.0001 3.2289 14.881 3.02226V3.02226C15.6445 2.84318 16.439 2.84318 17.2024 3.02226V3.02226C18.0833 3.2289 18.7711 3.91673 18.9778 4.79765V4.79765C19.1569 5.56108 19.1569 6.35559 18.9778 7.11902V7.11902C18.7711 7.99994 18.0833 8.68777 17.2024 8.89441V8.89441C16.439 9.07348 15.6445 9.07348 14.881 8.89441V8.89441C14.0001 8.68777 13.3123 7.99994 13.1056 7.11902V7.11902C12.9266 6.35559 12.9266 5.56108 13.1056 4.79765V4.79765Z" stroke="#0A194B" stroke-width="1.5"/>
<path d="M13.1056 14.8809C13.3123 14 14.0001 13.3121 14.881 13.1055V13.1055C15.6445 12.9264 16.439 12.9264 17.2024 13.1055V13.1055C18.0833 13.3121 18.7711 14 18.9778 14.8809V14.8809C19.1569 15.6443 19.1569 16.4388 18.9778 17.2023V17.2023C18.7711 18.0832 18.0833 18.771 17.2024 18.9777V18.9777C16.439 19.1567 15.6445 19.1567 14.881 18.9777V18.9777C14.0001 18.771 13.3123 18.0832 13.1056 17.2023V17.2023C12.9266 16.4388 12.9266 15.6443 13.1056 14.8809V14.8809Z" stroke="#0A194B" stroke-width="1.5"/>
</svg>
