<svg width="14" height="14" viewBox="0 0 14 14" fill="none" xmlns="http://www.w3.org/2000/svg">
<path d="M7.94332 7.00016L9.82932 5.11483V5.11483C10.0898 4.85434 10.0898 4.43199 9.82932 4.1715C9.56882 3.911 9.14648 3.911 8.88598 4.1715L7.00065 6.0575L5.11532 4.1715V4.1715C4.85482 3.911 4.43248 3.911 4.17198 4.1715C3.91149 4.43199 3.91149 4.85434 4.17198 5.11483V5.11483L6.05798 7.00016L4.17198 8.8855V8.8855C3.91149 9.14599 3.91149 9.56834 4.17198 9.82883C4.43248 10.0893 4.85482 10.0893 5.11532 9.82883L7.00065 7.94283L8.88598 9.82883V9.82883C9.14648 10.0893 9.56882 10.0893 9.82932 9.82883C10.0898 9.56834 10.0898 9.14599 9.82932 8.8855V8.8855L7.94332 7.00016V7.00016ZM7.00065 13.6668C3.31865 13.6668 0.333984 10.6822 0.333984 7.00016C0.333984 3.31816 3.31865 0.333496 7.00065 0.333496C10.6827 0.333496 13.6673 3.31816 13.6673 7.00016C13.6673 10.6822 10.6827 13.6668 7.00065 13.6668Z" fill="#C4C4C4"/>
</svg>
