<svg width="24" height="24" viewBox="0 0 24 24" fill="none" xmlns="http://www.w3.org/2000/svg">
<rect opacity="0.4" width="24" height="24" rx="12" fill="white"/>
<path d="M12.8759 11.9332L15.2325 9.57588C15.4974 9.32009 15.5047 8.89805 15.2489 8.63321C14.9931 8.36838 14.5711 8.36104 14.3063 8.61683C14.3007 8.6222 14.2952 8.62766 14.2899 8.63321L11.9325 10.9899L9.57588 8.63321V8.63321C9.32009 8.36838 8.89805 8.36104 8.63321 8.61683C8.36838 8.87262 8.36104 9.29466 8.61683 9.5595C8.6222 9.56505 8.62766 9.57051 8.63321 9.57588L10.9899 11.9325L8.63321 14.2899H8.63321C8.36838 14.5457 8.36104 14.9677 8.61683 15.2325C8.87262 15.4974 9.29466 15.5047 9.5595 15.2489C9.56505 15.2436 9.57051 15.2381 9.57588 15.2325L11.9325 12.8759L14.2899 15.2325C14.5457 15.4974 14.9677 15.5047 15.2325 15.2489C15.4974 14.9931 15.5047 14.5711 15.2489 14.3063C15.2436 14.3007 15.2381 14.2952 15.2325 14.2899L12.8759 11.9325V11.9332Z" fill="white"/>
</svg>
