<svg width="18" height="18" viewBox="0 0 18 18" fill="none" xmlns="http://www.w3.org/2000/svg">
<path d="M9.41628 8.56146C9.65415 8.79933 9.65415 9.185 9.41628 9.42287C9.1784 9.66074 8.79274 9.66074 8.55487 9.42287C8.317 9.185 8.317 8.79933 8.55487 8.56146C8.79274 8.32359 9.17841 8.32359 9.41628 8.56146Z" fill="#333333"/>
<path d="M11.8523 8.56146C12.0902 8.79933 12.0902 9.185 11.8523 9.42287C11.6144 9.66074 11.2288 9.66074 10.9909 9.42287C10.753 9.185 10.753 8.79933 10.9909 8.56146C11.2288 8.32359 11.6144 8.32359 11.8523 8.56146Z" fill="#333333"/>
<path d="M6.97975 8.56146C7.21762 8.79933 7.21762 9.185 6.97975 9.42287C6.74188 9.66074 6.35621 9.66074 6.11835 9.42287C5.88047 9.185 5.88047 8.79933 6.11835 8.56146C6.35622 8.32359 6.74188 8.32359 6.97975 8.56146Z" fill="#333333"/>
<path d="M13.2917 4.68601V4.68601C10.9208 2.29957 7.06414 2.28702 4.67765 4.65798C2.90344 6.42069 2.38703 9.0888 3.37542 11.3862C3.43382 11.5073 3.45299 11.6435 3.43024 11.776L2.89422 14.3526H2.89422C2.85227 14.5532 2.91408 14.7615 3.05868 14.9068H3.05868C3.1766 15.0239 3.33722 15.0877 3.50333 15.0835H3.62515L6.23213 14.5597C6.36463 14.5437 6.499 14.5626 6.62196 14.6145C9.71214 15.9439 13.2949 14.5166 14.6244 11.4264C15.6128 9.129 15.0964 6.46089 13.3221 4.6982L13.2917 4.68601ZM13.7973 9.77816C13.3624 12.434 10.8569 14.2344 8.20102 13.7995C7.82179 13.7374 7.45124 13.6307 7.09709 13.4815C6.85622 13.3791 6.59746 13.3253 6.33571 13.3232C6.22137 13.324 6.10728 13.3342 5.99461 13.3536L4.27692 13.7008L4.62411 11.9831C4.69326 11.6111 4.64869 11.2269 4.4962 10.8806V10.8806C3.45162 8.40043 4.61544 5.54302 7.09566 4.49847C7.4498 4.34932 7.82035 4.24258 8.19958 4.18048C10.8553 3.74463 13.3614 5.54417 13.7973 8.19985C13.8831 8.72247 13.8831 9.25557 13.7973 9.77819V9.77816Z" fill="#333333"/>
</svg>
