<svg width="16" height="17" viewBox="0 0 16 17" fill="none" xmlns="http://www.w3.org/2000/svg">
<path d="M14.133 0.769127H6.46634C5.62071 0.769127 4.93301 1.45683 4.93301 2.30246V5.36913H1.86634C1.02071 5.36913 0.333008 6.05683 0.333008 6.90246V14.5691C0.333008 15.4148 1.02071 16.1025 1.86634 16.1025H9.53301C10.3786 16.1025 11.0663 15.4148 11.0663 14.5691V11.5025H14.133C14.9786 11.5025 15.6663 10.8148 15.6663 9.96913V2.30246C15.6663 1.45683 14.9786 0.769127 14.133 0.769127ZM1.86634 14.5691V6.90246H9.53301L9.53454 14.5691H1.86634ZM14.133 9.96913H11.0663V6.90246C11.0663 6.05683 10.3786 5.36913 9.53301 5.36913H6.46634V2.30246H14.133V9.96913Z" fill="#2C2D30"/>
</svg>
