<svg width="18" height="18" viewBox="0 0 18 18" fill="none" xmlns="http://www.w3.org/2000/svg">
<path d="M6.86337 3.13928V2.40668V2.40668C6.86337 2.00207 7.18225 1.67407 7.57562 1.67407H10.4246C10.818 1.67407 11.1369 2.00207 11.1369 2.40668V3.13928H13.9859C14.7726 3.13928 15.4104 3.79528 15.4104 4.60449V5.33709C15.4104 6.1463 14.7726 6.8023 13.9859 6.8023H13.8912L13.4068 14.2749V14.2749C13.3319 15.4291 12.3998 16.326 11.2751 16.3262H6.73943C5.61575 16.3261 4.68407 15.4309 4.60766 14.2778L4.11193 6.8023H4.01435H4.01435C3.22762 6.8023 2.58984 6.1463 2.58984 5.33709V4.60449L2.58984 4.60449C2.58984 3.79528 3.22762 3.13928 4.01435 3.13928H6.86337ZM13.9859 4.60449H4.01435V5.33709H13.9859V4.60449ZM5.53929 6.8023L6.02861 14.1782C6.05408 14.5626 6.36478 14.8611 6.73943 14.8609H11.2751C11.6502 14.861 11.9611 14.5617 11.9859 14.1767L12.4631 6.8023H5.54H5.53929ZM7.57562 7.5349C7.96899 7.5349 8.28787 7.8629 8.28787 8.26751V13.3957C8.28787 13.8003 7.96899 14.1283 7.57562 14.1283C7.18225 14.1283 6.86337 13.8003 6.86337 13.3957V8.26751C6.86337 7.8629 7.18225 7.5349 7.57562 7.5349ZM10.4246 7.5349C10.818 7.5349 11.1369 7.8629 11.1369 8.26751V13.3957C11.1369 13.8003 10.818 14.1283 10.4246 14.1283C10.0313 14.1283 9.71238 13.8003 9.71238 13.3957V8.26751C9.71238 7.8629 10.0313 7.5349 10.4246 7.5349Z" fill="#FF0000"/>
</svg>
