<svg width="18" height="18" viewBox="0 0 18 18" fill="none" xmlns="http://www.w3.org/2000/svg">
<path d="M6.86337 3.13904V2.40643V2.40643C6.86337 2.00183 7.18225 1.67383 7.57562 1.67383H10.4246C10.818 1.67383 11.1369 2.00183 11.1369 2.40643V3.13904H13.9859C14.7726 3.13904 15.4104 3.79503 15.4104 4.60424V5.33685C15.4104 6.14606 14.7726 6.80206 13.9859 6.80206H13.8912L13.4068 14.2746V14.2746C13.3319 15.4289 12.3998 16.3258 11.2751 16.3259H6.73943C5.61575 16.3259 4.68407 15.4307 4.60766 14.2775L4.11193 6.80206H4.01435H4.01435C3.22762 6.80205 2.58984 6.14606 2.58984 5.33685V4.60424L2.58984 4.60424C2.58984 3.79503 3.22762 3.13904 4.01435 3.13904H6.86337ZM13.9859 4.60424H4.01435V5.33685H13.9859V4.60424ZM5.53929 6.80206L6.02861 14.1779C6.05408 14.5624 6.36478 14.8608 6.73943 14.8607H11.2751C11.6502 14.8608 11.9611 14.5615 11.9859 14.1764L12.4631 6.80206H5.54H5.53929ZM7.57562 7.53466C7.96899 7.53466 8.28787 7.86266 8.28787 8.26726V13.3955C8.28787 13.8001 7.96899 14.1281 7.57562 14.1281C7.18225 14.1281 6.86337 13.8001 6.86337 13.3955V8.26726C6.86337 7.86266 7.18225 7.53466 7.57562 7.53466ZM10.4246 7.53466C10.818 7.53466 11.1369 7.86266 11.1369 8.26726V13.3955C11.1369 13.8001 10.818 14.1281 10.4246 14.1281C10.0313 14.1281 9.71238 13.8001 9.71238 13.3955V8.26726C9.71238 7.86266 10.0313 7.53466 10.4246 7.53466Z" fill="#FF0000"/>
</svg>
