<svg width="24" height="24" viewBox="0 0 24 24" fill="none" xmlns="http://www.w3.org/2000/svg">
<path d="M11.0698 14.5581H12C12.3814 14.5581 12.6977 14.2419 12.6977 13.8605C12.6977 13.4791 12.3814 13.1628 12 13.1628H11.0698C10.428 13.1628 9.90702 12.6419 9.90702 12V3.39535H17.5815C18.6791 3.39535 19.6838 3.99068 20.2233 4.94882C20.4094 5.2837 20.8373 5.40467 21.1721 5.21862C21.507 5.03258 21.628 4.60465 21.442 4.26977C20.6606 2.87442 19.1815 2 17.5815 2H9.20935C8.82795 2 8.51167 2.31628 8.51167 2.69767V12C8.51167 13.414 9.65586 14.5581 11.0698 14.5581Z" fill="#333333"/>
<path d="M5.48837 20.1399H6.4186C6.8 20.1399 7.11628 19.8236 7.11628 19.4422C7.11628 18.8003 7.63721 18.2794 8.27907 18.2794C8.92093 18.2794 9.44186 18.8003 9.44186 19.4422C9.44186 19.8236 9.75814 20.1399 10.1395 20.1399H13.8605C14.2419 20.1399 14.5581 19.8236 14.5581 19.4422C14.5581 18.8003 15.0791 18.2794 15.7209 18.2794C16.3628 18.2794 16.8837 18.8003 16.8837 19.4422C16.8837 19.8236 17.2 20.1399 17.5814 20.1399H18.5116C20.4372 20.1399 22 18.5771 22 16.6515C22 16.2701 21.6837 15.9538 21.3023 15.9538C20.9209 15.9538 20.6047 16.2701 20.6047 16.6515C20.6047 17.805 19.6651 18.7445 18.5116 18.7445H18.1861C17.8791 17.6747 16.893 16.884 15.7209 16.884C14.5488 16.884 13.5628 17.6747 13.2558 18.7445H10.7349C10.4279 17.6747 9.44186 16.884 8.26977 16.884C7.09767 16.884 6.11163 17.6747 5.80465 18.7445H5.48837C4.33488 18.7445 3.39535 17.805 3.39535 16.6515V14.5585H5.48837C6.3814 14.5585 7.11628 13.8236 7.11628 12.9306V10.1399C7.11628 9.24683 6.3907 8.51195 5.48837 8.51195L6.48372 6.77241C6.68837 6.40962 7.07907 6.18636 7.49767 6.18636H8.51163V12.0003C8.51163 13.4143 9.65581 14.5585 11.0698 14.5585H12C12.3814 14.5585 12.6977 14.2422 12.6977 13.8608C12.6977 13.4794 12.3814 13.1631 12 13.1631H11.0698C10.4279 13.1631 9.90698 12.6422 9.90698 12.0003V5.48869C9.90698 5.10729 9.5907 4.79102 9.2093 4.79102H7.49767C6.57674 4.79102 5.73023 5.28405 5.27442 6.08405L3.68372 8.86543C3.56279 9.07939 3.56279 9.34915 3.68372 9.56311C3.80465 9.77706 4.03721 9.90729 4.28837 9.90729H5.48837C5.6186 9.90729 5.72093 10.0096 5.72093 10.1399V12.9306C5.72093 13.0608 5.6186 13.1631 5.48837 13.1631H2.69767C2.31628 13.1631 2 13.4794 2 13.8608V16.6515C2 18.5771 3.56279 20.1399 5.48837 20.1399Z" fill="#333333"/>
<path d="M15.7212 22.0001C17.1351 22.0001 18.2793 20.8559 18.2793 19.4419C18.2793 18.028 17.1351 16.8838 15.7212 16.8838C14.3072 16.8838 13.163 18.028 13.163 19.4419C13.163 20.8559 14.3072 22.0001 15.7212 22.0001ZM15.7212 18.2791C16.363 18.2791 16.8839 18.8001 16.8839 19.4419C16.8839 20.0838 16.363 20.6047 15.7212 20.6047C15.0793 20.6047 14.5584 20.0838 14.5584 19.4419C14.5584 18.8001 15.0793 18.2791 15.7212 18.2791Z" fill="#333333"/>
<path d="M8.27878 22.0001C9.69273 22.0001 10.8369 20.8559 10.8369 19.4419C10.8369 18.028 9.69273 16.8838 8.27878 16.8838C6.86482 16.8838 5.72064 18.028 5.72064 19.4419C5.72064 20.8559 6.86482 22.0001 8.27878 22.0001ZM8.27878 18.2791C8.92064 18.2791 9.44157 18.8001 9.44157 19.4419C9.44157 20.0838 8.92064 20.6047 8.27878 20.6047C7.63691 20.6047 7.11598 20.0838 7.11598 19.4419C7.11598 18.8001 7.63691 18.2791 8.27878 18.2791Z" fill="#333333"/>
<path d="M2.69761 14.5582H5.4883C6.38133 14.5582 7.11621 13.8233 7.11621 12.9303V10.1396C7.11621 9.2466 6.38133 8.51172 5.4883 8.51172H4.2883C4.03714 8.51172 3.80458 8.64195 3.68365 8.86521L2.09296 11.6559C2.03714 11.7582 1.99993 11.8792 1.99993 12.0001V13.8606C1.99993 14.242 2.31621 14.5582 2.69761 14.5582ZM5.4883 9.90707C5.61854 9.90707 5.72086 10.0094 5.72086 10.1396V12.9303C5.72086 13.0606 5.61854 13.1629 5.4883 13.1629H3.39528V12.1861L4.69761 9.90707H5.4883Z" fill="#333333"/>
<path d="M15.7209 8.97738H21.3023C21.6837 8.97738 22 8.6611 22 8.27971C22 7.89831 21.6837 7.58203 21.3023 7.58203H15.7209C15.3395 7.58203 15.0233 7.89831 15.0233 8.27971C15.0233 8.6611 15.3395 8.97738 15.7209 8.97738Z" fill="#333333"/>
<path d="M17.5814 11.7674H21.3023C21.6837 11.7674 22 11.4511 22 11.0697C22 10.6883 21.6837 10.3721 21.3023 10.3721H17.5814C17.2 10.3721 16.8837 10.6883 16.8837 11.0697C16.8837 11.4511 17.2 11.7674 17.5814 11.7674Z" fill="#333333"/>
<path d="M19.4419 14.5584H21.3023C21.6837 14.5584 22 14.2422 22 13.8608C22 13.4794 21.6837 13.1631 21.3023 13.1631H19.4419C19.0605 13.1631 18.7442 13.4794 18.7442 13.8608C18.7442 14.2422 19.0605 14.5584 19.4419 14.5584Z" fill="#333333"/>
</svg>
