<svg width="24" height="24" viewBox="0 0 24 24" fill="none" xmlns="http://www.w3.org/2000/svg">
<g clip-path="url(#clip0_7_8981)">
<path d="M16.1401 16.1237C16.0612 16.1237 15.9823 16.1055 15.9095 16.063L10.5492 12.961C10.3306 12.8335 10.2578 12.5542 10.3853 12.3357C10.5127 12.1171 10.7859 12.0443 11.0105 12.1718L16.1401 15.1403L21.2393 12.19C21.4578 12.0625 21.7371 12.1415 21.8646 12.3539C21.992 12.5725 21.9132 12.8517 21.7007 12.9792L16.3769 16.063C16.298 16.0994 16.2191 16.1237 16.1401 16.1237Z" fill="#333333"/>
<path fill-rule="evenodd" clip-rule="evenodd" d="M10.9608 12.2585C10.783 12.1579 10.5709 12.2159 10.4716 12.3861C10.3719 12.5571 10.4289 12.7749 10.5994 12.8745L15.9595 15.9764C16.0154 16.009 16.0769 16.0237 16.1401 16.0237C16.1978 16.0237 16.2604 16.0062 16.3309 15.9741L21.6493 12.8934C21.8159 12.793 21.8768 12.574 21.7785 12.4048C21.678 12.2379 21.459 12.1776 21.2897 12.2764L16.1401 15.2558L10.9608 12.2585ZM10.2989 12.2853C10.4545 12.0186 10.7886 11.9308 11.0599 12.0848L16.1401 15.0247L21.1889 12.1036C21.4565 11.9477 21.7958 12.0449 21.9503 12.3025L21.9509 12.3035C22.107 12.5711 22.0098 12.9103 21.7522 13.0649L21.7508 13.0657L16.419 16.1542C16.3333 16.1937 16.2392 16.2237 16.1401 16.2237C16.0456 16.2237 15.949 16.2018 15.8592 16.1495L10.4991 13.0475C10.2326 12.8921 10.1437 12.5513 10.2989 12.2853Z" fill="#333333"/>
<path d="M16.1396 21.6238C15.8907 21.6238 15.6843 21.4174 15.6843 21.1685V15.6626C15.6843 15.4137 15.8907 15.2073 16.1396 15.2073C16.3884 15.2073 16.5948 15.4137 16.5948 15.6626V21.1685C16.5948 21.4174 16.3884 21.6238 16.1396 21.6238Z" fill="#333333"/>
<path fill-rule="evenodd" clip-rule="evenodd" d="M16.1396 15.3073C15.9459 15.3073 15.7843 15.4689 15.7843 15.6626V21.1685C15.7843 21.3622 15.9459 21.5238 16.1396 21.5238C16.3332 21.5238 16.4948 21.3622 16.4948 21.1685V15.6626C16.4948 15.4689 16.3332 15.3073 16.1396 15.3073ZM15.5843 15.6626C15.5843 15.3585 15.8354 15.1073 16.1396 15.1073C16.4437 15.1073 16.6948 15.3585 16.6948 15.6626V21.1685C16.6948 21.4727 16.4437 21.7238 16.1396 21.7238C15.8354 21.7238 15.5843 21.4727 15.5843 21.1685V15.6626Z" fill="#333333"/>
<path d="M16.1411 21.8588C15.6069 21.8588 15.0787 21.7435 14.6599 21.5128L11.4182 19.7099C10.538 19.2242 9.85205 18.0526 9.85205 17.0449V13.6151C9.85205 12.6074 10.538 11.4419 11.4182 10.9502L14.6599 9.15329C15.4915 8.69193 16.7906 8.69193 17.6223 9.15329L20.8639 10.9562C21.7441 11.4418 22.4301 12.6135 22.4301 13.6212V17.051C22.4301 18.0587 21.7441 19.2242 20.8639 19.716L17.6223 21.5128C17.2034 21.7435 16.6753 21.8588 16.1411 21.8588ZM16.1411 9.71785C15.7586 9.71785 15.3823 9.79677 15.103 9.94853L11.8614 11.7515C11.2786 12.0793 10.7626 12.9474 10.7626 13.6212V17.051C10.7626 17.7188 11.2786 18.5929 11.8614 18.9207L15.103 20.7237C15.6554 21.0333 16.6267 21.0333 17.1791 20.7237L20.4208 18.9207C21.0035 18.5929 21.5195 17.7248 21.5195 17.051V13.6212C21.5195 12.9534 21.0035 12.0793 20.4208 11.7515L17.1791 9.94853C16.8999 9.79677 16.5235 9.71785 16.1411 9.71785Z" fill="#333333"/>
<path fill-rule="evenodd" clip-rule="evenodd" d="M16.1411 8.90727C15.6213 8.90727 15.1062 9.02006 14.7084 9.24074L11.467 11.0375C11.0455 11.2729 10.6657 11.673 10.3913 12.1398C10.1168 12.6067 9.95205 13.1327 9.95205 13.6151V17.0449C9.95205 17.5274 10.1168 18.0549 10.3913 18.5226C10.6658 18.9902 11.0454 19.39 11.4665 19.6223L14.7081 21.4252C15.1092 21.646 15.6201 21.7588 16.1411 21.7588C16.6621 21.7588 17.1728 21.6462 17.5738 21.4253L20.8151 19.6287C21.2366 19.3932 21.6164 18.9931 21.8909 18.5263C22.1654 18.0594 22.3301 17.5334 22.3301 17.051V13.6212C22.3301 13.1387 22.1654 12.6112 21.8909 12.1435C21.6163 11.6759 21.2367 11.2761 20.8156 11.0438L17.5738 9.24074M15.1508 10.0364L11.9104 11.8386C11.6388 11.9915 11.3754 12.2754 11.1796 12.6074C10.9838 12.9394 10.8626 13.3073 10.8626 13.6212V17.051C10.8626 17.3617 10.9837 17.7297 11.1796 18.0626C11.3755 18.3954 11.6387 18.6806 11.9101 18.8334L15.1516 20.6363C15.4084 20.7802 15.7712 20.8559 16.1411 20.8559C16.5109 20.8559 16.8735 20.7803 17.1302 20.6364L20.3717 18.8336C20.6433 18.6807 20.9068 18.3967 21.1026 18.0648C21.2984 17.7328 21.4195 17.3649 21.4195 17.051V13.6212C21.4195 13.3104 21.2984 12.9425 21.1025 12.6096C20.9066 12.2767 20.6434 11.9915 20.372 11.8387L17.1314 10.0364C16.8706 9.89479 16.5115 9.81785 16.1411 9.81785C15.7706 9.81785 15.4115 9.89479 15.1508 10.0364Z" fill="#333333"/>
<path d="M19.1754 16.5439C18.9265 16.5439 18.7201 16.3375 18.7201 16.0886V14.134L13.1838 10.9409C12.9653 10.8134 12.8924 10.5342 13.0199 10.3217C13.1474 10.1032 13.4206 10.0303 13.6391 10.1578L19.4 13.4844C19.5396 13.5634 19.6307 13.7151 19.6307 13.879V16.1008C19.6307 16.3376 19.4243 16.5439 19.1754 16.5439Z" fill="#333333"/>
<path fill-rule="evenodd" clip-rule="evenodd" d="M13.5887 10.2442C13.4182 10.1447 13.2061 10.2009 13.1063 10.3721L13.1056 10.3731C13.0075 10.5367 13.0627 10.7543 13.234 10.8544L18.8201 14.0762V16.0886C18.8201 16.2823 18.9817 16.4439 19.1754 16.4439C19.3708 16.4439 19.5307 16.2806 19.5307 16.1008V13.879C19.5307 13.7518 19.4596 13.633 19.3508 13.5715L13.5887 10.2442ZM13.6893 10.0713C13.4229 9.91605 13.089 10.0053 12.9338 10.2708C12.7775 10.532 12.868 10.8725 13.1334 11.0273L18.6201 14.1918V16.0886C18.6201 16.3928 18.8713 16.6439 19.1754 16.6439C19.4778 16.6439 19.7307 16.3946 19.7307 16.1008V13.879C19.7307 13.6786 19.6199 13.494 19.4496 13.3976L13.6893 10.0713Z" fill="#333333"/>
<path fill-rule="evenodd" clip-rule="evenodd" d="M7.88029 5.33411C7.71974 5.24321 7.52868 5.29561 7.43918 5.44904C7.34923 5.60323 7.40065 5.79963 7.55436 5.8894L12.3441 8.66124L12.5024 8.75286C12.5527 8.78219 12.6081 8.79545 12.6653 8.79545C12.7168 8.79545 12.7734 8.77981 12.8378 8.75049L12.9847 8.66543L17.7469 5.90691C17.8972 5.81627 17.952 5.6188 17.8635 5.4664C17.7728 5.31581 17.5753 5.2616 17.4228 5.35054L12.6653 8.10317L7.88029 5.33411ZM7.26642 5.34826C7.41222 5.09832 7.72529 5.01617 7.97935 5.16037L12.6653 7.8721L17.322 5.17779C17.5728 5.03162 17.8906 5.12281 18.0354 5.36403L18.036 5.36509C18.1823 5.61589 18.0911 5.93362 17.8498 6.0784L17.8485 6.0792L12.9259 8.9306C12.8463 8.96733 12.7583 8.99545 12.6653 8.99545C12.5768 8.99545 12.4863 8.97495 12.4021 8.9259L7.45403 6.06241C7.20437 5.91678 7.12104 5.59749 7.26642 5.34826Z" fill="#333333"/>
<path fill-rule="evenodd" clip-rule="evenodd" d="M12.3441 8.23743V8.66124V10.4509C12.3441 10.4509 12.3465 10.454 12.3489 10.4566C12.3586 10.4664 12.3774 10.4799 12.4081 10.4933C12.4693 10.5201 12.5602 10.5391 12.6644 10.5391C12.7685 10.5391 12.8594 10.5201 12.9206 10.4933C12.9514 10.4799 12.9702 10.4664 12.9798 10.4566C12.9823 10.454 12.9847 10.4509 12.9847 10.4509V8.66543V8.23743C12.9847 8.23743 12.9823 8.23431 12.9798 8.23177C12.9702 8.22191 12.9514 8.20847 12.9206 8.19502C12.8594 8.16826 12.7685 8.14918 12.6644 8.14918C12.5602 8.14918 12.4693 8.16826 12.4081 8.19502C12.3774 8.20847 12.3586 8.22191 12.3489 8.23177L12.3466 8.23427L12.3441 8.23743ZM12.328 8.01177C12.4195 7.97176 12.5388 7.94918 12.6644 7.94918C12.79 7.94918 12.9092 7.97176 13.0007 8.01177C13.0463 8.0317 13.0895 8.05793 13.1228 8.09194C13.1564 8.12629 13.1847 8.17407 13.1847 8.23295V10.4554C13.1847 10.5143 13.1564 10.562 13.1228 10.5964C13.0895 10.6304 13.0463 10.6566 13.0007 10.6766C12.9092 10.7166 12.79 10.7391 12.6644 10.7391C12.5388 10.7391 12.4195 10.7166 12.328 10.6766C12.2824 10.6566 12.2392 10.6304 12.206 10.5964C12.1724 10.562 12.1441 10.5143 12.1441 10.4554V8.23295C12.1441 8.17407 12.1724 8.12629 12.206 8.09194C12.2392 8.05793 12.2824 8.0317 12.328 8.01177Z" fill="#333333"/>
<path d="M8.30665 4.11918C7.4941 4.57309 6.86087 5.649 6.86087 6.57923V9.10777L7.70144 8.64809V6.58485C7.70144 5.96282 8.17777 5.16146 8.71574 4.85886L11.7082 3.19454C11.9659 3.05444 12.3134 2.98159 12.6664 2.98159C13.0195 2.98159 13.3669 3.05444 13.6247 3.19454L16.6171 4.85886C17.1551 5.16146 17.6314 5.96843 17.6314 6.58485V9.33231L18.472 9.75101V6.58484C18.472 5.65461 17.8387 4.57306 17.0262 4.12475L14.0338 2.46043C13.266 2.03454 12.0668 2.03454 11.2991 2.46043L8.30665 4.11918Z" fill="#333333"/>
<path fill-rule="evenodd" clip-rule="evenodd" d="M12.6664 2.24102C12.1876 2.24102 11.7134 2.34494 11.3476 2.54788L8.35542 4.20648C7.96779 4.42306 7.61808 4.79127 7.36526 5.22127C7.1124 5.65132 6.96087 6.13552 6.96087 6.57923V8.93911L7.60144 8.5888V6.58485C7.60144 6.25077 7.72838 5.87738 7.92072 5.55127C8.11307 5.22513 8.37803 4.93408 8.66671 4.7717L11.6596 3.10715C11.9358 2.95704 12.3016 2.88159 12.6664 2.88159C13.0312 2.88159 13.3962 2.95657 13.6724 3.10668L16.6657 4.77146C16.9546 4.93394 17.2199 5.22675 17.4122 5.55345C17.6044 5.88012 17.7314 6.2535 17.7314 6.58485V9.27041L18.372 9.58948V6.58484C18.372 6.14109 18.2204 5.65545 17.9676 5.2247C17.7147 4.79392 17.3652 4.42598 16.9779 4.21231L13.9852 2.54788C13.6194 2.34494 13.1453 2.24102 12.6664 2.24102ZM12.6664 2.04102C13.1711 2.04102 13.6804 2.15004 14.0823 2.37299L17.0745 4.03719C17.4997 4.27185 17.8732 4.6689 18.14 5.12345C18.4069 5.5781 18.572 6.09836 18.572 6.58484V9.91253L17.5314 9.39422V6.58485C17.5314 6.29978 17.4202 5.96147 17.2398 5.65489C17.0595 5.34845 16.8174 5.0863 16.5683 4.94614L13.5769 3.2824C13.3376 3.15246 13.0075 3.08159 12.6664 3.08159C12.3254 3.08159 11.9956 3.15224 11.7563 3.28217L8.76476 4.94602C8.51556 5.08627 8.27323 5.34727 8.09299 5.65287C7.91267 5.9586 7.80144 6.2969 7.80144 6.58485V8.70738L6.76087 9.27643V6.57923C6.76087 6.0927 6.92595 5.57384 7.19285 5.1199C7.45975 4.66595 7.83301 4.26922 8.25788 4.03187L11.2506 2.37299C11.6525 2.15004 12.1618 2.04102 12.6664 2.04102Z" fill="#333333"/>
<path d="M15.4665 9.28309C15.2367 9.28309 15.0462 9.09256 15.0462 8.86281V7.05843L9.93551 4.11081C9.73377 3.99312 9.66651 3.73534 9.78419 3.5392C9.90188 3.33747 10.1541 3.27021 10.3558 3.38789L15.6738 6.45881C15.8027 6.53166 15.8868 6.67173 15.8868 6.82303V8.87407C15.8868 9.09262 15.6963 9.28309 15.4665 9.28309Z" fill="#333333"/>
<path fill-rule="evenodd" clip-rule="evenodd" d="M10.3054 3.47427C10.1517 3.38461 9.96062 3.43523 9.87057 3.58959L9.86995 3.59066C9.78161 3.7379 9.83117 3.93403 9.9857 4.02431L15.1462 7.00067V8.86281C15.1462 9.03733 15.292 9.18309 15.4665 9.18309C15.6428 9.18309 15.7868 9.03564 15.7868 8.87407V6.82303C15.7868 6.70841 15.7227 6.60128 15.6246 6.54586L10.3054 3.47427ZM10.406 3.3014C10.1564 3.15596 9.84354 3.23965 9.69813 3.48828C9.55159 3.73318 9.63651 4.05216 9.88512 4.19718L14.9462 7.1162V8.86281C14.9462 9.14779 15.1815 9.38309 15.4665 9.38309C15.7497 9.38309 15.9868 9.1496 15.9868 8.87407V6.82303C15.9868 6.63521 15.883 6.46233 15.7235 6.37198L10.406 3.3014Z" fill="#333333"/>
<path fill-rule="evenodd" clip-rule="evenodd" d="M7.85875 21.1007C7.32454 21.1007 6.79641 20.9854 6.37755 20.7547L3.13591 18.9517C2.25569 18.4661 1.56973 17.2945 1.56973 16.2868V12.857C1.56973 11.8493 2.25569 10.6837 3.13591 10.192L6.37755 8.39515C7.20921 7.9338 8.50829 7.9338 9.33995 8.39515L12.5816 10.1981C12.6619 10.2424 12.7406 10.2924 12.8173 10.3475L11.8957 10.8583L8.8968 9.19039C8.61756 9.03863 8.24119 8.95971 7.85875 8.95971C7.47631 8.95971 7.09994 9.03863 6.82069 9.19039L5.89283 9.70645L10.3883 12.3024C10.1489 12.7492 10.0058 13.2424 10.0058 13.7027V14.1973L8.31406 15.1773V20.1597C8.5307 20.1224 8.73232 20.0577 8.8968 19.9655L10.6695 18.9796C10.8628 19.2406 11.0892 19.4706 11.3363 19.6481L9.33995 20.7547C8.92108 20.9854 8.39295 21.1007 7.85875 21.1007ZM10.0188 13.1314L7.85841 14.3814L2.97311 11.5542C3.14963 11.3168 3.35961 11.1168 3.57906 10.9933L4.97015 10.2196L10.0188 13.1314ZM7.40348 15.1743L2.55843 12.3704C2.50823 12.539 2.4803 12.7063 2.4803 12.863V16.2929C2.4803 16.9606 2.99629 17.8348 3.57906 18.1626L6.82069 19.9655C6.98519 20.0577 7.18682 20.1225 7.40348 20.1597V15.1743Z" fill="#333333"/>
<path fill-rule="evenodd" clip-rule="evenodd" d="M7.85875 7.94913C8.40434 7.94913 8.95459 8.06702 9.38846 8.30771L12.6299 10.1105C12.7138 10.1568 12.796 10.2091 12.8756 10.2662L13.0039 10.3584L11.8956 10.9727L8.84905 9.27826C8.58827 9.13665 8.22921 9.05971 7.85875 9.05971C7.48829 9.05971 7.12965 9.13643 6.86887 9.27802L6.09563 9.70808L10.5222 12.2642L10.4764 12.3496C10.3453 12.5944 10.2444 12.8525 10.1813 13.1097L10.2187 13.1313L10.1695 13.1598C10.1279 13.3432 10.1058 13.5259 10.1058 13.7027V14.255L8.41406 15.2349V20.0379C8.57664 20.0009 8.72473 19.9473 8.84791 19.8783L10.6976 18.8495L10.7498 18.9201C10.9378 19.1739 11.1571 19.3962 11.3947 19.5669L11.5229 19.659L9.38843 20.8421C8.95181 21.0826 8.40606 21.2007 7.85875 21.2007C7.31144 21.2007 6.76592 21.0827 6.32931 20.8423L3.0876 19.0393C2.62857 18.786 2.22497 18.3571 1.9365 17.8657C1.64796 17.3742 1.46973 16.812 1.46973 16.2868V12.857C1.46973 12.3317 1.64799 11.7711 1.93653 11.2803C2.22507 10.7896 2.62843 10.361 3.08714 10.1047L6.32904 8.30771C6.7629 8.06702 7.31316 7.94913 7.85875 7.94913ZM10.0014 13.006L4.97104 10.1047L3.53046 10.9059C3.29562 11.038 3.07526 11.2492 2.89286 11.4946L2.82593 11.5846L7.8584 14.4969L9.93997 13.2925C9.91759 13.4304 9.90581 13.5677 9.90581 13.7027V14.1397L8.21406 15.1196V20.2784L8.33102 20.2583C8.5557 20.2196 8.76873 20.1519 8.9455 20.0529L10.6423 19.1091C10.7956 19.3058 10.9678 19.4842 11.1541 19.6348L9.29171 20.6671C8.89062 20.8879 8.37977 21.0007 7.85875 21.0007C7.33771 21.0007 6.82701 20.888 6.42592 20.6672L3.18451 18.8644C2.7634 18.632 2.38349 18.2321 2.10897 17.7644C1.83447 17.2968 1.66973 16.7693 1.66973 16.2868V12.857C1.66973 12.3745 1.83444 11.8485 2.10894 11.3817C2.3834 10.9149 2.76308 10.5149 3.18454 10.2794L6.42603 8.48261C6.82382 8.26194 7.33897 8.14913 7.85875 8.14913C8.37853 8.14913 8.89365 8.26193 9.29144 8.4826L12.533 10.2855C12.5639 10.3025 12.5949 10.3207 12.6254 10.3395L11.8958 10.7439L8.94541 9.103C8.64774 8.94122 8.25297 8.85971 7.85875 8.85971C7.46453 8.85971 7.07061 8.94075 6.77294 9.10253L5.69003 9.70482L10.2555 12.3412C10.1478 12.5556 10.0613 12.7798 10.0014 13.006ZM9.81883 13.1316L4.96925 10.3345L3.62809 11.0805C3.45106 11.1801 3.27686 11.3358 3.12247 11.5251L7.85841 14.2658L9.81883 13.1316ZM2.49878 12.2204L7.50348 15.1166V20.2784L7.38652 20.2583C7.16179 20.2196 6.94873 20.1519 6.77193 20.0528L3.53045 18.25C3.21922 18.0749 2.93274 17.759 2.72496 17.4059C2.5172 17.0529 2.3803 16.6499 2.3803 16.2929V12.863C2.3803 12.6947 2.41022 12.5177 2.46259 12.3419L2.49878 12.2204ZM2.62165 12.5226C2.59461 12.6405 2.5803 12.7552 2.5803 12.863V16.2929C2.5803 16.6036 2.70139 16.9716 2.89733 17.3045C3.09316 17.6373 3.35636 17.9225 3.62779 18.0753L6.8693 19.8781C6.9925 19.9472 7.14089 20.0009 7.30348 20.0379V15.232L2.62165 12.5226Z" fill="#333333"/>
<path fill-rule="evenodd" clip-rule="evenodd" d="M12.2441 8.71891L7.50411 5.97586C7.30238 5.85818 7.23512 5.60039 7.3528 5.39865C7.47048 5.19691 7.72265 5.12965 7.92999 5.24733L12.6653 7.98763L17.3724 5.26416C17.5741 5.14648 17.8319 5.21934 17.9496 5.41548C18.0673 5.61722 17.9945 5.87497 17.7984 5.99265L13.0847 8.72307V10.4554C13.0847 10.5558 12.8941 10.6391 12.6644 10.6391C12.4346 10.6391 12.2441 10.5558 12.2441 10.4554V8.71891ZM12.6653 8.79545C12.6081 8.79545 12.5527 8.78219 12.5024 8.75286L12.3441 8.66124V8.23743L12.3466 8.23427L12.3489 8.23177C12.3586 8.22191 12.3774 8.20847 12.4081 8.19502C12.4693 8.16826 12.5602 8.14918 12.6644 8.14918C12.7685 8.14918 12.8594 8.16826 12.9206 8.19502C12.9514 8.20847 12.9702 8.22191 12.9798 8.23177C12.9823 8.23431 12.9847 8.23743 12.9847 8.23743V8.66543L12.8378 8.75049C12.7734 8.77981 12.7168 8.79545 12.6653 8.79545Z" fill="#333333"/>
<path d="M12.5024 8.75286C12.5527 8.78219 12.6081 8.79545 12.6653 8.79545C12.7168 8.79545 12.7734 8.77981 12.8378 8.75049L12.9847 8.66543V8.23743C12.9847 8.23743 12.9823 8.23431 12.9798 8.23177C12.9702 8.22191 12.9514 8.20847 12.9206 8.19502C12.8594 8.16826 12.7685 8.14918 12.6644 8.14918C12.5602 8.14918 12.4693 8.16826 12.4081 8.19502C12.3774 8.20847 12.3586 8.22191 12.3489 8.23177L12.3466 8.23427L12.3441 8.23743V8.66124L12.5024 8.75286Z" fill="#333333"/>
</g>
<defs>
<clipPath id="clip0_7_8981">
<rect width="24" height="24" fill="white"/>
</clipPath>
</defs>
</svg>
