<svg width="24" height="24" viewBox="0 0 24 24" fill="none" xmlns="http://www.w3.org/2000/svg">
<path fill-rule="evenodd" clip-rule="evenodd" d="M11.4921 2.03669C11.9061 2.03669 12.2421 2.37269 12.2421 2.78669C12.2421 3.20069 11.9061 3.53669 11.4921 3.53669H7.75312C5.16912 3.53669 3.50012 5.30669 3.50012 8.04569V16.3597C3.50012 19.0987 5.16912 20.8687 7.75312 20.8687H16.5771C19.1611 20.8687 20.8311 19.0987 20.8311 16.3597V12.3317C20.8311 11.9177 21.1671 11.5817 21.5811 11.5817C21.9951 11.5817 22.3311 11.9177 22.3311 12.3317V16.3597C22.3311 19.9537 20.0181 22.3687 16.5771 22.3687H7.75312C4.31212 22.3687 2.00012 19.9537 2.00012 16.3597V8.04569C2.00012 4.45169 4.31212 2.03669 7.75312 2.03669H11.4921ZM20.2017 2.91529L21.4187 4.13229C22.0117 4.72429 22.3377 5.51129 22.3367 6.34929C22.3367 7.18729 22.0107 7.97329 21.4187 8.56429L13.9097 16.0733C13.3587 16.6243 12.6247 16.9283 11.8447 16.9283H8.09872C7.89672 16.9283 7.70272 16.8463 7.56172 16.7013C7.42072 16.5573 7.34372 16.3623 7.34872 16.1593L7.44272 12.3803C7.46172 11.6283 7.76472 10.9213 8.29672 10.3883H8.29772L15.7707 2.91529C16.9927 1.69529 18.9797 1.69529 20.2017 2.91529ZM15.1551 5.65129L9.35772 11.4493C9.09872 11.7083 8.95172 12.0523 8.94272 12.4173L8.86772 15.4283H11.8447C12.2247 15.4283 12.5807 15.2813 12.8497 15.0123L18.6821 9.17829L15.1551 5.65129ZM16.8307 3.97629L16.2151 4.59029L19.7421 8.11829L20.3587 7.50329C20.6667 7.19529 20.8367 6.78529 20.8367 6.34929C20.8367 5.91229 20.6667 5.50129 20.3587 5.19329L19.1417 3.97629C18.5047 3.34129 17.4687 3.34129 16.8307 3.97629Z" fill="#474747"/>
</svg>
