<svg width="15" height="15" viewBox="0 0 15 15" fill="none" xmlns="http://www.w3.org/2000/svg">
<path d="M10.0533 3.9791L3.27482 10.7576L2.83157 12.2696L4.31282 11.8413L11.1138 5.04035L10.0533 3.9791ZM11.2098 2.8226L12.2703 3.8831L13.2588 2.8946C13.4052 2.74816 13.4052 2.51079 13.2588 2.36435L12.7278 1.8341C12.5814 1.68771 12.344 1.68771 12.1976 1.8341L11.2106 2.8226H11.2098ZM13.7891 0.773602L14.3193 1.30385C15.0513 2.03604 15.0513 3.22291 14.3193 3.9551L5.10032 13.1748L1.93532 14.0898C1.53732 14.2046 1.12165 13.975 1.0069 13.577C0.967525 13.4404 0.967759 13.2955 1.00757 13.1591L1.94357 9.96785L11.1386 0.772851V0.772852C11.8708 0.0408854 13.0576 0.0408855 13.7898 0.772851L13.7891 0.773602Z" fill="#F6891F"/>
</svg>
