<svg width="16" height="16" viewBox="0 0 16 16" fill="none" xmlns="http://www.w3.org/2000/svg">
<path d="M4.24396 5.06609L7.61604 8.07028C7.83847 8.26833 8.174 8.26833 8.39642 8.07028L11.7691 5.06609H4.24396ZM12.6944 5.81303L9.1774 8.94689C8.50993 9.54175 7.50254 9.54175 6.83507 8.94689L3.30632 5.80188V10.9336H12.6944V5.81303ZM3.30632 3.89258H12.6944C13.3425 3.89258 13.8679 4.41798 13.8679 5.06609V10.9336C13.8679 11.5818 13.3425 12.1072 12.6944 12.1072H3.30632C2.65821 12.1072 2.13281 11.5818 2.13281 10.9336V5.06609C2.13281 4.41798 2.65821 3.89258 3.30632 3.89258Z" fill="white"/>
</svg>
