<svg width="128" height="128" viewBox="0 0 128 128" fill="none" xmlns="http://www.w3.org/2000/svg">
<path fill-rule="evenodd" clip-rule="evenodd" d="M87.2233 35.1362L87.4546 37.3498L90.0912 37.381H90.106C96.5804 37.381 104.993 41.6102 107.95 54.8539L112.146 87.3308L112.149 87.3483C113.591 97.394 111.736 105.014 107.113 110.347C102.507 115.66 95.0408 118.685 85.1246 118.685H40.602C29.5297 118.685 22.4318 115.972 18.1499 110.999L18.1486 110.998C13.8451 106.007 12.1411 98.2184 13.7836 87.2788L13.7875 87.2529L17.9207 55.1569C20.4355 41.6744 29.3167 37.381 35.818 37.381H38.0615L38.3034 35.1505C38.9075 29.5802 41.4221 24.2801 45.3972 20.3172C49.9695 15.7751 56.2848 13.1687 62.7209 13.1687H62.8329C75.478 13.1687 85.9348 22.8085 87.2233 35.1362ZM20.8905 55.5564L20.8779 55.6242L16.7549 87.668C15.3903 96.8426 16.3066 104.272 20.4197 109.046C24.495 113.777 31.4304 115.685 40.602 115.685H85.1246C90.8478 115.685 99.4759 114.583 104.843 108.386C109.164 103.402 110.397 96.2692 109.175 87.7335L105.008 55.3608L104.984 55.2496C103.09 46.7452 97.7857 40.381 90.106 40.381H35.818C34.3415 40.381 31.227 40.6741 28.124 42.8231C24.9551 45.0176 22.1185 48.9257 20.8905 55.5564ZM47.5185 22.4423L47.5171 22.4436C44.2424 25.7037 42.1102 29.9762 41.4197 34.5014L40.9808 37.3784L84.549 37.3801L84.1198 34.5102C82.5691 24.1413 73.6098 16.1687 62.8169 16.1687H62.7369C57.0577 16.1687 51.5334 18.4515 47.5185 22.4423Z" fill="#D0D0D0"/>
<path d="M47.7744 64.4883C48.9569 64.4883 49.8971 65.4622 49.8971 66.4883C49.8971 67.6705 49.0407 68.4883 48.0144 68.4883H47.7744C46.671 68.4883 45.7744 67.5917 45.7744 66.4883C45.7744 65.3849 46.671 64.4883 47.7744 64.4883Z" fill="#D0D0D0"/>
<path d="M77.8975 64.4883C79.0799 64.4883 80.0201 65.4622 80.0201 66.4883C80.0201 67.6742 79.1655 68.4883 78.1428 68.4883H77.8975C76.794 68.4883 75.8975 67.5917 75.8975 66.4883C75.8975 65.3849 76.794 64.4883 77.8975 64.4883Z" fill="#D0D0D0"/>
<path d="M77.7961 90.6882C78.3213 90.6882 78.75 90.2621 78.7185 89.7378C78.613 87.9813 78.2156 86.2524 77.5405 84.6227C76.744 82.6996 75.5765 80.9523 74.1047 79.4805C72.6329 78.0087 70.8856 76.8412 68.9625 76.0447C67.0395 75.2481 64.9784 74.8381 62.897 74.8381C60.8155 74.8381 58.7544 75.2481 56.8314 76.0447C54.9084 76.8412 53.1611 78.0087 51.6893 79.4805C50.2174 80.9523 49.0499 82.6996 48.2534 84.6227C47.5783 86.2524 47.1809 87.9813 47.0754 89.7378C47.0439 90.2621 47.4727 90.6882 47.9979 90.6882C48.5231 90.6882 48.9455 90.262 48.9813 89.738C49.0842 88.2315 49.4312 86.7495 50.0106 85.3505C50.7116 83.6583 51.739 82.1207 53.0342 80.8255C54.3294 79.5303 55.867 78.5028 57.5593 77.8019C59.2515 77.1009 61.0653 76.7402 62.897 76.7402C64.7287 76.7402 66.5424 77.1009 68.2347 77.8019C69.9269 78.5028 71.4646 79.5303 72.7598 80.8255C74.055 82.1207 75.0824 83.6583 75.7833 85.3505C76.3628 86.7495 76.7098 88.2315 76.8126 89.738C76.8484 90.262 77.2708 90.6882 77.7961 90.6882Z" fill="#D0D0D0"/>
</svg>
