<svg width="36" height="36" viewBox="0 0 36 36" fill="none" xmlns="http://www.w3.org/2000/svg">
<path d="M31.9573 18.7394L31.0026 19.6686L29.8873 18.6302V20.0831C29.8873 20.6547 30.3507 21.1181 30.9223 21.1181C30.9491 21.1181 30.9757 21.1171 31.0021 21.1151L31.0329 21.1123C31.5525 21.0571 31.9573 20.6174 31.9573 20.0831V18.7394Z" fill="#F6891F"/>
<path fill-rule="evenodd" clip-rule="evenodd" d="M31.9573 18.7394V20.0831C31.9573 20.6174 31.5525 21.0571 31.0329 21.1123L31.0021 21.1151C30.9757 21.1171 30.9491 21.1181 30.9223 21.1181C30.3507 21.1181 29.8873 20.6547 29.8873 20.0831V18.6302L28.397 17.2427C27.9786 16.8532 27.3237 16.8766 26.9342 17.295C26.5447 17.7133 26.5681 18.3683 26.9865 18.7578L30.3132 21.855C30.7171 22.231 31.3449 22.224 31.7404 21.8391L34.9225 18.7419C35.3321 18.3432 35.341 17.688 34.9423 17.2783C34.5436 16.8687 33.8884 16.8599 33.4787 17.2585L31.9573 18.7394ZM12.6006 11.5652C12.029 11.5652 11.5656 12.0286 11.5656 12.6002V23.4002C11.5656 23.9718 12.029 24.4352 12.6006 24.4352H23.4006C23.9722 24.4352 24.4356 23.9718 24.4356 23.4002V12.6002C24.4356 12.0286 23.9722 11.5652 23.4006 11.5652H12.6006ZM17.6856 13.6352H18.3156V15.1652H17.6856V13.6352ZM15.6156 16.2002V13.6352H13.6356V22.3652H22.3656V13.6352H20.3856V16.2002C20.3856 16.7718 19.9222 17.2352 19.3506 17.2352H16.6506C16.079 17.2352 15.6156 16.7718 15.6156 16.2002ZM5.68802 14.1455C5.28414 13.7695 4.65631 13.7765 4.26088 14.1613L1.07874 17.2585C0.669113 17.6572 0.66025 18.3125 1.05894 18.7221C1.45763 19.1317 2.11289 19.1406 2.52252 18.7419L4.00563 17.2984V18.0115C4.00563 25.5689 10.2994 31.6352 18.0021 31.6352C22.2351 31.6293 26.2478 29.7664 28.9214 26.5514C29.2869 26.1119 29.2269 25.4594 28.7874 25.0939C28.3479 24.7284 27.6953 24.7884 27.3298 25.2279C25.0562 27.9619 21.6297 29.5601 17.9992 29.5652C11.3829 29.5645 6.07563 24.3686 6.07563 18.0115V17.3346L7.60431 18.7578C8.02268 19.1473 8.67758 19.1238 9.06708 18.7055C9.45658 18.2871 9.43318 17.6322 9.01481 17.2427L5.68802 14.1455Z" fill="#F6891F"/>
<path d="M17.9635 4.36524C13.7149 4.36016 9.68722 6.24021 7.02675 9.48562C6.66436 9.92769 6.72895 10.5798 7.17101 10.9422C7.61308 11.3046 8.26521 11.24 8.6276 10.7979C10.8869 8.04194 14.3228 6.43089 17.9623 6.43524C24.5764 6.43524 29.8873 11.6358 29.8873 17.9855V18.6302L31.0026 19.6686L31.9573 18.7394V17.9855C31.9573 10.4361 25.6627 4.3659 17.9635 4.36524Z" fill="#F6891F"/>
</svg>
