<svg width="36" height="36" viewBox="0 0 36 36" fill="none" xmlns="http://www.w3.org/2000/svg">
<path d="M18.0003 3.28223L5.38477 7.4874V20.1029C5.38477 27.071 11.0322 32.7185 18.0003 32.7185C24.9684 32.7185 30.6158 27.071 30.6158 20.1029V7.4874L18.0003 3.28223ZM28.2504 20.1029C28.2504 25.7635 23.6609 30.3531 18.0003 30.3531C12.3397 30.3531 7.75018 25.7635 7.75018 20.1029V9.26146L18.0003 5.64764L28.2504 9.26146V20.1029Z" fill="#F6891F"/>
<path d="M13.6112 16.7881C13.5015 16.678 13.3712 16.5906 13.2278 16.5309C13.0843 16.4713 12.9304 16.4406 12.775 16.4406C12.6197 16.4406 12.4658 16.4713 12.3223 16.5309C12.1789 16.5906 12.0486 16.678 11.9389 16.7881C11.8288 16.8977 11.7414 17.028 11.6818 17.1715C11.6222 17.315 11.5915 17.4688 11.5915 17.6242C11.5915 17.7796 11.6222 17.9334 11.6818 18.0769C11.7414 18.2204 11.8288 18.3507 11.9389 18.4603L16.2591 22.7805C16.3628 22.8843 16.4859 22.9668 16.6215 23.023C16.7571 23.0792 16.9024 23.1082 17.0492 23.1082C17.196 23.1082 17.3413 23.0792 17.4769 23.023C17.6125 22.9668 17.7356 22.8843 17.8393 22.7805L25.182 15.4378C25.2858 15.3341 25.3683 15.211 25.4245 15.0754C25.4807 14.9398 25.5097 14.7945 25.5097 14.6477C25.5097 14.5009 25.4807 14.3556 25.4245 14.22C25.3683 14.0844 25.2858 13.9613 25.182 13.8576L25.09 13.7656C24.9863 13.6617 24.8631 13.5793 24.7276 13.5231C24.592 13.4668 24.4466 13.4379 24.2999 13.4379C24.1531 13.4379 24.0077 13.4668 23.8722 13.5231C23.7366 13.5793 23.6134 13.6617 23.5097 13.7656L17.0476 20.2245L13.6112 16.7881Z" fill="#F6891F"/>
</svg>
