<svg width="36" height="36" viewBox="0 0 36 36" fill="none" xmlns="http://www.w3.org/2000/svg">
<path d="M9.2173 20.9258C10.061 20.9256 10.8788 21.2169 11.5323 21.7504C12.1859 22.284 12.635 23.0269 12.8038 23.8535H23.1241V9.21481H7.02149C6.245 9.21481 5.50032 9.52327 4.95126 10.0723C4.4022 10.6214 4.09375 11.3661 4.09375 12.1426V23.8535H5.63081C5.79955 23.0269 6.2487 22.284 6.90226 21.7504C7.55581 21.2169 8.37363 20.9256 9.2173 20.9258ZM9.2173 28.2451C8.37363 28.2453 7.55581 27.954 6.90226 27.4205C6.2487 26.8869 5.79955 26.144 5.63081 25.3174H4.18747C3.32724 25.3174 2.62988 24.62 2.62988 23.7598V12.1426C2.62988 10.9778 3.09256 9.8608 3.91615 9.03721C4.73974 8.21363 5.85676 7.75094 7.02149 7.75094H23.1241C23.5123 7.75094 23.8847 7.90517 24.1592 8.1797C24.4337 8.45423 24.5879 8.82657 24.5879 9.21481V12.1426H28.9796L33.3712 17.9702V23.7598C33.3712 24.62 32.6738 25.3174 31.8136 25.3174H30.3702C30.2022 26.1447 29.7534 26.8885 29.0998 27.4227C28.4462 27.957 27.6279 28.2488 26.7837 28.2488C25.9396 28.2488 25.1213 27.957 24.4677 27.4227C23.8141 26.8885 23.3653 26.1447 23.1973 25.3174H12.8038C12.635 26.144 12.1859 26.8869 11.5323 27.4205C10.8788 27.954 10.061 28.2453 9.2173 28.2451ZM9.2173 22.3896C8.63493 22.3896 8.07642 22.621 7.66463 23.0328C7.25283 23.4446 7.02149 24.0031 7.02149 24.5855C7.02149 25.1678 7.25283 25.7263 7.66463 26.1381C8.07642 26.5499 8.63493 26.7813 9.2173 26.7813C9.79966 26.7813 10.3582 26.5499 10.77 26.1381C11.1818 25.7263 11.4131 25.1678 11.4131 24.5855C11.4131 24.0031 11.1818 23.4446 10.77 23.0328C10.3582 22.621 9.79966 22.3896 9.2173 22.3896ZM26.7837 20.9258C27.6274 20.9256 28.4452 21.2169 29.0988 21.7504C29.7523 22.284 30.2015 23.0269 30.3702 23.8535H31.9073V18.4606L31.5589 17.998H24.5879V21.6577C25.2209 21.1817 25.9917 20.9247 26.7837 20.9258ZM26.7837 22.3896C26.2014 22.3896 25.6429 22.621 25.2311 23.0328C24.8193 23.4446 24.5879 24.0031 24.5879 24.5855C24.5879 25.1678 24.8193 25.7263 25.2311 26.1381C25.6429 26.5499 26.2014 26.7813 26.7837 26.7813C27.3661 26.7813 27.9246 26.5499 28.3364 26.1381C28.7482 25.7263 28.9796 25.1678 28.9796 24.5855C28.9796 24.0031 28.7482 23.4446 28.3364 23.0328C27.9246 22.621 27.3661 22.3896 26.7837 22.3896ZM24.5879 13.6064V16.5342H30.4566L28.2476 13.6064H24.5879Z" fill="#F6891F"/>
<path d="M7.3324 21.8178L7.15684 21.1902C6.99984 21.2854 6.84889 21.3919 6.70526 21.5092C6.06241 22.0339 5.60181 22.7454 5.38489 23.542H4.40527V12.1426C4.40527 11.9503 4.42643 11.7602 4.46747 11.5755L4.18734 10.574C3.92397 11.0499 3.78223 11.5889 3.78223 12.1426V24.1651H5.88517L5.93604 23.9159C6.09041 23.1596 6.50133 22.4799 7.09925 21.9918C7.17466 21.9302 7.25246 21.8722 7.3324 21.8178Z" fill="#F6891F"/>
<path d="M7.02149 8.90332C6.16239 8.90332 5.33847 9.2446 4.73099 9.85208C4.51499 10.0681 4.33265 10.3114 4.18734 10.574L4.46747 11.5755C4.57453 11.0934 4.81685 10.6473 5.17154 10.2926C5.66218 9.802 6.32763 9.52636 7.02149 9.52636H22.8126V23.542H13.0497C12.8328 22.7454 12.3722 22.0339 11.7293 21.5092C11.0202 20.9303 10.1327 20.6141 9.21723 20.6143C8.48721 20.6142 7.77503 20.8152 7.15684 21.1902L7.3324 21.8178C7.8863 21.4407 8.54285 21.2372 9.21736 21.2373C9.98921 21.2372 10.7374 21.5037 11.3353 21.9918C11.9333 22.4799 12.3442 23.1596 12.4986 23.9159L12.5494 24.1651H23.4356V8.90332H7.02149Z" fill="#F6891F"/>
<path d="M7.09925 27.1792C6.82973 26.9592 6.5982 26.7002 6.41103 26.4128L5.38489 25.6289C5.60181 26.4255 6.06241 27.137 6.70526 27.6618C7.41442 28.2407 8.30192 28.5568 9.21736 28.5567L8.19122 27.7728C7.79622 27.6457 7.42538 27.4454 7.09925 27.1792Z" fill="#F6891F"/>
<path d="M4.13643 9.25752C4.9016 8.49236 5.93938 8.06249 7.02149 8.06249H23.1241C23.4297 8.06249 23.7228 8.1839 23.9389 8.40001C24.155 8.61612 24.2764 8.90922 24.2764 9.21484V12.4541H28.8242L33.0596 18.0745V23.7598C33.0596 24.448 32.5018 25.0059 31.8136 25.0059H30.1156L30.0649 25.2554C29.9113 26.0123 29.5006 26.6928 28.9026 27.1815C28.3046 27.6703 27.5561 27.9373 26.7837 27.9373C26.0114 27.9373 25.2629 27.6703 24.6649 27.1815C24.0669 26.6928 23.6562 26.0123 23.5026 25.2554L23.4519 25.0059H12.5494L12.4986 25.2551C12.3442 26.0114 11.9333 26.6911 11.3353 27.1792C10.7374 27.6673 9.98909 27.9338 9.21723 27.9336C9.15861 27.9337 9.10011 27.9321 9.04181 27.9291L9.21736 28.5567C10.1328 28.5568 11.0202 28.2407 11.7293 27.6618C12.3722 27.137 12.8328 26.4255 13.0497 25.6289H22.9511C23.1674 26.4262 23.6277 27.1385 24.2706 27.6639C24.9798 28.2437 25.8677 28.5604 26.7837 28.5604C27.6998 28.5604 28.5877 28.2437 29.2969 27.6639C29.9398 27.1385 30.4001 26.4262 30.6164 25.6289H31.8136C32.8459 25.6289 33.6827 24.7921 33.6827 23.7598V17.866L29.1349 11.8311H24.8995V9.21484C24.8995 8.74398 24.7124 8.2924 24.3795 7.95945C24.0465 7.6265 23.5949 7.43945 23.1241 7.43945H7.02149C5.77414 7.43945 4.57788 7.93496 3.69587 8.81697L3.89337 9.52302C3.97014 9.43135 4.05121 9.34275 4.13643 9.25752Z" fill="#F6891F"/>
<path d="M3.69587 8.81697C2.81387 9.69898 2.31836 10.8952 2.31836 12.1426L3.69587 8.81697Z" fill="#F6891F"/>
<path d="M8.19122 27.7728L9.21736 28.5567L9.04181 27.9291C8.75122 27.9139 8.4654 27.861 8.19122 27.7728Z" fill="#F6891F"/>
<path d="M2.31836 23.7598C2.31836 24.7921 3.15519 25.6289 4.18748 25.6289C4.18748 25.6289 3.04829 24.4898 2.31836 23.7598Z" fill="#F6891F"/>
<path d="M2.9414 23.7598V12.1426C2.9414 11.181 3.28084 10.2544 3.89337 9.52302L3.69587 8.81697L2.31836 12.1426C2.31836 12.1426 2.31836 19.223 2.31836 23.7598C3.04829 24.4898 4.18748 25.6289 4.18748 25.6289H5.38489L6.41103 26.4128C6.183 26.0627 6.02082 25.6705 5.93604 25.2551L5.88517 25.0059H4.18748C3.49929 25.0059 2.9414 24.448 2.9414 23.7598Z" fill="#F6891F"/>
</svg>
