<svg width="36" height="36" viewBox="0 0 36 36" fill="none" xmlns="http://www.w3.org/2000/svg">
<path d="M26.9874 8.06196C25.8076 6.88476 24.4052 5.95424 22.862 5.32469C21.3189 4.69513 19.6658 4.37913 17.9992 4.39511L17.9098 4.39487C14.5594 4.39512 11.3463 5.72625 8.97724 8.09545C6.60823 10.4646 5.27734 13.6779 5.27734 17.0283V23.8309C5.27821 24.6038 5.58565 25.3449 6.1322 25.8914C6.67876 26.438 7.4198 26.7454 8.19275 26.7463H10.1363C10.9093 26.7454 11.6503 26.438 12.1969 25.8914C12.7434 25.3449 13.0509 24.6038 13.0518 23.8309V18.9719C13.0509 18.1989 12.7434 17.4579 12.1969 16.9113C11.6503 16.3648 10.9093 16.0573 10.1363 16.0565H7.26407C7.50833 13.3867 8.74662 10.9061 10.7335 9.10625C12.7205 7.30639 15.3111 6.31864 17.9919 6.33871H18.0065C20.6873 6.31858 23.2779 7.30633 25.2648 9.10619C27.2518 10.9061 28.49 13.3867 28.7342 16.0565H25.8619C25.089 16.0573 24.3479 16.3648 23.8014 16.9113C23.2548 17.4579 22.9474 18.1989 22.9465 18.9719V23.8309C22.9474 24.6038 23.2548 25.3449 23.8014 25.8914C24.3479 26.438 25.089 26.7454 25.8619 26.7463H27.8055C28.1366 26.7464 28.4653 26.6899 28.7773 26.5791V26.7463C28.7765 27.5192 28.469 28.2603 27.9225 28.8068C27.3759 29.3534 26.6349 29.6608 25.8619 29.6617H18.8826C18.6248 29.6617 18.3776 29.7641 18.1954 29.9463C18.0131 30.1286 17.9108 30.3758 17.9108 30.6335C17.9108 30.8912 18.0131 31.1384 18.1954 31.3207C18.3776 31.5029 18.6248 31.6053 18.8826 31.6053H25.862C27.1503 31.6038 28.3853 31.0914 29.2962 30.1805C30.2072 29.2696 30.7196 28.0345 30.721 26.7463V17.0283C30.7259 15.3606 30.3982 13.7087 29.7571 12.1691C29.1161 10.6296 28.1744 9.23337 26.9874 8.06196ZM10.1363 18.0001C10.394 18.0004 10.641 18.1029 10.8232 18.2851C11.0053 18.4672 11.1078 18.7142 11.1082 18.9719V23.8309C11.1078 24.0885 11.0053 24.3355 10.8232 24.5177C10.641 24.6999 10.394 24.8024 10.1363 24.8027H8.19275C7.93511 24.8024 7.68811 24.6999 7.50594 24.5177C7.32376 24.3355 7.22127 24.0885 7.22095 23.8309V18.0001H10.1363ZM27.8056 24.8027H25.862C25.6044 24.8024 25.3574 24.6999 25.1752 24.5177C24.993 24.3355 24.8906 24.0885 24.8902 23.8309V18.9719C24.8906 18.7142 24.993 18.4672 25.1752 18.2851C25.3574 18.1029 25.6044 18.0004 25.862 18.0001H28.7774V23.8309C28.7771 24.0885 28.6746 24.3355 28.4925 24.5177C28.3103 24.6999 28.0633 24.8024 27.8056 24.8027Z" fill="#F6891F"/>
</svg>
