<svg width="24" height="24" viewBox="0 0 24 24" fill="none" xmlns="http://www.w3.org/2000/svg">
<path d="M10.1172 17.9866H2.88306" stroke="#474747" stroke-width="1.5" stroke-linecap="round" stroke-linejoin="round"/>
<path fill-rule="evenodd" clip-rule="evenodd" d="M21.1179 17.9866C21.1179 19.5772 19.8285 20.8666 18.2379 20.8666C16.6473 20.8666 15.3579 19.5772 15.3579 17.9866C15.3579 16.3948 16.6473 15.1066 18.2379 15.1066C19.8285 15.1066 21.1179 16.3948 21.1179 17.9866Z" stroke="#474747" stroke-width="1.5" stroke-linecap="round" stroke-linejoin="round"/>
<path d="M13.8827 6.26212H21.118" stroke="#474747" stroke-width="1.5" stroke-linecap="round" stroke-linejoin="round"/>
<path fill-rule="evenodd" clip-rule="evenodd" d="M2.88257 6.26211C2.88257 7.85388 4.17198 9.14211 5.76257 9.14211C7.35316 9.14211 8.64257 7.85388 8.64257 6.26211C8.64257 4.67152 7.35316 3.38211 5.76257 3.38211C4.17198 3.38211 2.88257 4.67152 2.88257 6.26211Z" stroke="#474747" stroke-width="1.5" stroke-linecap="round" stroke-linejoin="round"/>
</svg>
