<svg width="40" height="28" viewBox="0 0 40 28" fill="none" xmlns="http://www.w3.org/2000/svg">
<path d="M13.8664 25.9701L2.50916 14.6101H2.57322L0.773927 12.8747C-0.0506203 12.0795 -0.0743567 10.7664 0.720919 9.94181C1.51619 9.11726 2.8293 9.09353 3.65385 9.8888C3.67114 9.90547 3.68813 9.92244 3.70482 9.9397L3.71067 9.94574L15.3296 21.5647L33.9461 2.9541V2.95586L35.6689 1.23177C36.4789 0.421196 37.7927 0.420733 38.6032 1.23073C39.4138 2.04073 39.4143 3.35447 38.6043 4.16503L16.7992 25.9701C16.4109 26.3584 15.884 26.576 15.3349 26.5749L15.3328 27.5818L15.3308 26.5749C14.7817 26.576 14.2547 26.3583 13.8664 25.9701Z" fill="#2DBD4D"/>
</svg>
