<svg width="24" height="24" viewBox="0 0 24 24" fill="none" xmlns="http://www.w3.org/2000/svg">
<path fill-rule="evenodd" clip-rule="evenodd" d="M12.2347 5.03912C13.8607 4.01112 16.0207 3.72712 17.8867 4.32512C21.9457 5.63412 23.2057 10.0591 22.0787 13.5801C20.3397 19.1101 12.9127 23.2351 12.5977 23.4081C12.4857 23.4701 12.3617 23.5011 12.2377 23.5011C12.1137 23.5011 11.9907 23.4711 11.8787 23.4101C11.5657 23.2391 4.19271 19.1751 2.39571 13.5811C2.39471 13.5811 2.39471 13.5801 2.39471 13.5801C1.26671 10.0581 2.52271 5.63212 6.57771 4.32512C8.48171 3.70912 10.5567 3.98012 12.2347 5.03912ZM7.03771 5.75312C3.75671 6.81112 2.93271 10.3401 3.82371 13.1231C5.22571 17.4851 10.7647 21.0121 12.2367 21.8851C13.7137 21.0031 19.2927 17.4371 20.6497 13.1271C21.5407 10.3411 20.7137 6.81212 17.4277 5.75312C15.8357 5.24212 13.9787 5.55312 12.6967 6.54512C12.4287 6.75112 12.0567 6.75512 11.7867 6.55112C10.4287 5.53012 8.65471 5.23112 7.03771 5.75312ZM16.4677 7.73902C17.8307 8.18002 18.7857 9.38702 18.9027 10.814C18.9357 11.227 18.6287 11.589 18.2157 11.622C18.1947 11.624 18.1747 11.625 18.1537 11.625C17.7667 11.625 17.4387 11.328 17.4067 10.936C17.3407 10.114 16.7907 9.42002 16.0077 9.16702C15.6127 9.03902 15.3967 8.61602 15.5237 8.22302C15.6527 7.82902 16.0717 7.61502 16.4677 7.73902Z" fill="#474747"/>
</svg>
