<svg width="32" height="32" viewBox="0 0 32 32" fill="none" xmlns="http://www.w3.org/2000/svg">
<path d="M0 4C0 1.79086 1.79086 0 4 0H28C30.2091 0 32 1.79086 32 4V28C32 30.2091 30.2091 32 28 32H4C1.79086 32 0 30.2091 0 28V4Z" fill="#2C2D30"/>
<path fill-rule="evenodd" clip-rule="evenodd" d="M16 10.6667C16.3682 10.6667 16.6667 10.9651 16.6667 11.3333V20.6667C16.6667 21.0349 16.3682 21.3333 16 21.3333C15.6319 21.3333 15.3334 21.0349 15.3334 20.6667V11.3333C15.3334 10.9651 15.6319 10.6667 16 10.6667Z" fill="white"/>
<path fill-rule="evenodd" clip-rule="evenodd" d="M10.6666 16C10.6666 15.6318 10.9651 15.3333 11.3333 15.3333H20.6666C21.0348 15.3333 21.3333 15.6318 21.3333 16C21.3333 16.3682 21.0348 16.6667 20.6666 16.6667H11.3333C10.9651 16.6667 10.6666 16.3682 10.6666 16Z" fill="white"/>
<path d="M4 1H28V-1H4V1ZM31 4V28H33V4H31ZM28 31H4V33H28V31ZM1 28V4H-1V28H1ZM4 31C2.34315 31 1 29.6569 1 28H-1C-1 30.7614 1.23858 33 4 33V31ZM31 28C31 29.6569 29.6569 31 28 31V33C30.7614 33 33 30.7614 33 28H31ZM28 1C29.6569 1 31 2.34315 31 4H33C33 1.23858 30.7614 -1 28 -1V1ZM4 -1C1.23858 -1 -1 1.23858 -1 4H1C1 2.34315 2.34315 1 4 1V-1Z" fill="#2C2D30"/>
</svg>
