<svg width="20" height="20" viewBox="0 0 20 20" fill="none" xmlns="http://www.w3.org/2000/svg">
<path d="M10.0005 17.2134C6.01654 17.2134 2.78711 13.984 2.78711 10C2.78711 6.01605 6.01654 2.78662 10.0005 2.78662C13.9844 2.78662 17.2139 6.01605 17.2139 10C17.2139 13.984 13.9844 17.2134 10.0005 17.2134ZM10.0005 15.7707C13.1876 15.7707 15.7712 13.1871 15.7712 10C15.7712 6.81293 13.1876 4.2293 10.0005 4.2293H10.0005C6.81342 4.2293 4.22979 6.81293 4.22979 10C4.22979 13.1871 6.81342 15.7707 10.0005 15.7707H10.0005ZM10.0005 8.55733C10.3989 8.55733 10.7218 8.88028 10.7218 9.27867V12.8854C10.7218 13.2837 10.3989 13.6067 10.0005 13.6067C9.60211 13.6067 9.27916 13.2837 9.27916 12.8854V9.27867C9.27916 8.88028 9.60211 8.55733 10.0005 8.55733ZM10.0005 7.83599C9.60211 7.83599 9.27916 7.51304 9.27916 7.11465C9.27916 6.71627 9.60211 6.39331 10.0005 6.39331C10.3989 6.39331 10.7218 6.71627 10.7218 7.11465C10.7218 7.51304 10.3989 7.83599 10.0005 7.83599Z" fill="#333333"/>
</svg>
