<svg width="24" height="24" viewBox="0 0 24 24" fill="none" xmlns="http://www.w3.org/2000/svg">
<path d="M16.017 2H7.947V2C4.66377 2.00386 2.00331 4.66477 2 7.948V16.018L2 16.0178C2.00376 19.3011 4.66459 21.9616 7.94782 21.965H16.0178C19.3011 21.9611 21.9615 19.3002 21.9648 16.017V7.947V7.94718C21.9611 4.66402 19.3003 2.00351 16.0172 2L16.017 2ZM19.957 16.017C19.957 18.193 18.193 19.957 16.017 19.957H7.947C5.77139 19.9564 4.008 18.1926 4.008 16.017V7.947L4.008 7.948C4.008 5.77239 5.77139 4.00855 7.947 4.008H16.017H16.017C18.1926 4.00855 19.956 5.77239 19.956 7.948V16.018L19.957 16.017Z" fill="#0A194B"/>
<path d="M11.9819 6.81909C9.13249 6.8235 6.8238 9.13263 6.81995 11.9821V11.982C6.82321 14.8323 9.13264 17.1422 11.9829 17.1461C14.8335 17.1428 17.1436 14.8327 17.1469 11.9821V11.9821C17.1425 9.1319 14.8322 6.8229 11.982 6.8201L11.9819 6.81909ZM11.9819 15.1381H11.9819C10.2395 15.1381 8.82695 13.7256 8.82695 11.9831C8.82695 10.2406 10.2395 8.82809 11.9819 8.82809C13.7244 8.82809 15.1369 10.2406 15.1369 11.9831C15.1369 13.7256 13.7244 15.1381 11.9819 15.1381H11.9819Z" fill="#0A194B"/>
<path d="M18.0308 5.9834C18.5138 6.46648 18.5138 7.2497 18.0308 7.73278C17.5477 8.21586 16.7645 8.21586 16.2814 7.73278C15.7983 7.2497 15.7983 6.46648 16.2814 5.9834C16.7645 5.50032 17.5477 5.50032 18.0308 5.9834Z" fill="#0A194B"/>
</svg>
