<svg width="18" height="18" viewBox="0 0 18 18" fill="none" xmlns="http://www.w3.org/2000/svg">
<path d="M12.3468 0.666993H5.62185V0.666993C2.88582 0.670208 0.668774 2.88763 0.666016 5.62366V12.3487L0.666016 12.3485C0.669148 15.0845 2.88651 17.3017 5.62253 17.3045H12.3475C15.0836 17.3013 17.3006 15.0839 17.3034 12.3478V5.62283V5.62298C17.3002 2.88701 15.083 0.669917 12.347 0.666992L12.3468 0.666993ZM15.6302 12.3478C15.6302 14.1612 14.1602 15.6312 12.3468 15.6312H5.62185C3.80884 15.6307 2.33935 14.1608 2.33935 12.3478V5.62283L2.33935 5.62366C2.33935 3.81065 3.80884 2.34078 5.62185 2.34033H12.3468H12.3468C14.1599 2.34079 15.6293 3.81065 15.6293 5.62366V12.3487L15.6302 12.3478Z" fill="white"/>
<path d="M8.98526 4.68262C6.61071 4.68629 4.6868 6.61057 4.68359 8.98512V8.98506C4.68631 11.3603 6.61083 13.2852 8.98603 13.2885C11.3616 13.2857 13.2866 11.3606 13.2894 8.98512V8.98513C13.2857 6.60996 11.3604 4.68579 8.98527 4.68346L8.98526 4.68262ZM8.98526 11.6151H8.98526C7.53321 11.6151 6.35609 10.438 6.35609 8.98595C6.35609 7.5339 7.53321 6.35678 8.98526 6.35678C10.4373 6.35678 11.6144 7.5339 11.6144 8.98595C11.6144 10.438 10.4373 11.6151 8.98526 11.6151H8.98526Z" fill="white"/>
<path d="M14.0254 3.98649C14.4279 4.38906 14.4279 5.04174 14.0254 5.44431C13.6228 5.84688 12.9701 5.84688 12.5675 5.44431C12.165 5.04175 12.165 4.38906 12.5675 3.98649C12.9701 3.58393 13.6228 3.58393 14.0254 3.98649Z" fill="white"/>
</svg>
