<svg width="24" height="24" viewBox="0 0 24 24" fill="none" xmlns="http://www.w3.org/2000/svg">
<path fill-rule="evenodd" clip-rule="evenodd" d="M15.2263 4.53841L13.9717 8.3H20C20.9374 8.3 21.7001 9.06269 21.7001 10V12C21.7001 12.0851 21.6852 12.1683 21.6562 12.2456L18.8992 19.5965C18.6511 20.2566 18.0109 20.7 17.307 20.7H4.00005C3.06273 20.7 2.30005 19.9373 2.30005 19V10C2.30005 9.06269 3.06273 8.3 4.00005 8.3H6.67156L11.4613 2.55237C11.5957 2.39209 11.7926 2.3 12 2.3H13.612C14.1567 2.3 14.6741 2.5647 14.9927 3.00648C15.3111 3.44799 15.3981 4.02147 15.2263 4.53841ZM6.30005 9.9C6.30005 9.78954 6.21051 9.7 6.10005 9.7H3.90005C3.78959 9.7 3.70005 9.78954 3.70005 9.9V19.1C3.70005 19.2105 3.78959 19.3 3.90005 19.3H6.10005C6.21051 19.3 6.30005 19.2105 6.30005 19.1V9.9ZM17.3763 19.3C17.4597 19.3 17.5343 19.2483 17.5636 19.1702L20.3 11.8734V9.9C20.3 9.78954 20.2105 9.7 20.1 9.7H13C12.7753 9.7 12.5639 9.5918 12.4325 9.40866C12.3004 9.22532 12.2646 8.99121 12.3363 8.77899L13.9425 3.96328C13.9857 3.83377 13.8893 3.7 13.7528 3.7H12.4212C12.3619 3.7 12.3056 3.72637 12.2676 3.77197L7.7464 9.19777C7.71645 9.23371 7.70005 9.27901 7.70005 9.3258V19.1C7.70005 19.2105 7.78959 19.3 7.90005 19.3H17.3763Z" fill="#474747"/>
</svg>
