<svg width="106" height="24" viewBox="0 0 106 24" fill="none" xmlns="http://www.w3.org/2000/svg">
<path d="M18.4909 13.3364C18.8 13.3364 19.0091 13.5545 19.1182 13.9909C19.2455 14.4091 19.3091 14.9636 19.3091 15.6545C19.3091 16.3636 19.2545 16.9364 19.1455 17.3727C19.0545 17.7909 18.8364 18 18.4909 18H17.0727C16.6545 18 16.2091 17.9545 15.7364 17.8636C15.2818 17.7545 14.8182 17.5364 14.3455 17.2091C13.9273 17.4636 13.4818 17.6636 13.0091 17.8091C12.5545 17.9364 12.0818 18 11.5909 18H11.5364C10.8091 17.9455 10.1182 17.7818 9.46364 17.5091C8.82727 17.2182 8.26364 16.8455 7.77273 16.3909C7.28182 15.9182 6.89091 15.3636 6.6 14.7273C6.32727 14.0909 6.19091 13.3909 6.19091 12.6273C6.19091 12.4273 6.2 12.2364 6.21818 12.0545C6.25455 11.8545 6.29091 11.7 6.32727 11.5909H5.64545C5.46364 11.5909 5.30909 11.6545 5.18182 11.7818C5.07273 11.8909 5.01818 12.0364 5.01818 12.2182V23.2636H0.681818V12.2182C0.681818 11.5273 0.809091 10.8818 1.06364 10.2818C1.31818 9.66364 1.67273 9.12727 2.12727 8.67273C2.58182 8.21818 3.10909 7.86364 3.70909 7.60909C4.30909 7.35455 4.95455 7.22727 5.64545 7.22727H11.8091C12.5364 7.26364 13.2091 7.42727 13.8273 7.71818C14.4636 8.00909 15.0091 8.4 15.4636 8.89091C15.9364 9.36364 16.3 9.91818 16.5545 10.5545C16.8273 11.1909 16.9636 11.8818 16.9636 12.6273V12.9C16.9636 12.9727 16.9818 13.0455 17.0182 13.1182C17.0909 13.2636 17.2182 13.3364 17.4 13.3364H18.4909ZM11.5909 13.6091C11.8818 13.6091 12.1273 13.5182 12.3273 13.3364C12.5273 13.1364 12.6273 12.9 12.6273 12.6273C12.6273 12.3364 12.5273 12.1 12.3273 11.9182C12.1455 11.7364 11.9091 11.6273 11.6182 11.5909H11.5909C11.3 11.6273 11.0636 11.7364 10.8818 11.9182C10.7 12.1 10.6091 12.3364 10.6091 12.6273C10.6091 12.9 10.7 13.1364 10.8818 13.3364C11.0636 13.5182 11.3 13.6091 11.5909 13.6091ZM18.4863 18C18.1591 18 17.95 17.7909 17.8591 17.3727C17.75 16.9364 17.6954 16.3636 17.6954 15.6545C17.6954 14.9636 17.7591 14.4091 17.8863 13.9909C17.9954 13.5545 18.1954 13.3364 18.4863 13.3364H20.3954C20.5954 13.3364 20.6954 13.2091 20.6954 12.9545V8.15455H25.3591V13.0364C25.3591 13.2364 25.4591 13.3364 25.6591 13.3364H27.5681C27.8591 13.3364 28.0591 13.5545 28.1681 13.9909C28.2954 14.4091 28.3591 14.9636 28.3591 15.6545C28.3591 16.3636 28.3045 16.9364 28.1954 17.3727C28.1045 17.7909 27.8954 18 27.5681 18H25.6318C24.65 18 23.7681 17.7636 22.9863 17.2909C22.2045 17.7636 21.3409 18 20.3954 18H18.4863ZM19.2772 6.32727V2.86364H26.4227V6.32727H19.2772ZM32.6684 0.927273H36.1047V4.36364H32.6684V0.927273ZM35.1775 13.3364C35.3593 13.3364 35.5502 13.2636 35.7502 13.1182C35.9684 12.9545 36.1775 12.7727 36.3774 12.5727C36.5956 12.3727 36.7865 12.1636 36.9502 11.9455C37.1138 11.7273 37.2411 11.5636 37.332 11.4545C37.0229 11.3636 36.7047 11.2636 36.3774 11.1545C36.0684 11.0455 35.7684 10.9455 35.4774 10.8545C35.1865 10.7636 34.9138 10.6909 34.6593 10.6364C34.4047 10.5636 34.1865 10.5182 34.0047 10.5H33.9229C33.7229 10.5 33.5047 10.5636 33.2684 10.6909C33.032 10.8182 32.8047 10.9727 32.5865 11.1545C32.3684 11.3364 32.1684 11.5182 31.9865 11.7C31.8047 11.8636 31.6593 12 31.5502 12.1091L28.5775 10.2273C29.0865 9.46364 29.5502 8.81818 29.9684 8.29091C30.3865 7.74545 30.8047 7.30909 31.2229 6.98182C31.6593 6.63636 32.1047 6.39091 32.5593 6.24545C33.032 6.08182 33.5684 6 34.1684 6C34.4956 6 34.9593 6.1 35.5593 6.3C36.1775 6.5 36.832 6.72727 37.5229 6.98182C38.2138 7.23636 38.9138 7.49091 39.6229 7.74545C40.332 8 40.9502 8.18182 41.4775 8.29091C41.5138 8.29091 41.6138 8.3 41.7775 8.31818C41.9411 8.31818 42.1229 8.32727 42.3229 8.34545C42.5411 8.34545 42.732 8.35455 42.8956 8.37273C43.0774 8.37273 43.1956 8.37273 43.2502 8.37273H44.7502V12.1909H42.432C42.2138 12.1909 42.0502 12.2636 41.9411 12.4091C41.8865 12.4818 41.8411 12.5545 41.8047 12.6273C41.4593 13.1909 41.0865 13.7909 40.6865 14.4273C40.3047 15.0455 39.8593 15.6273 39.3502 16.1727C38.8411 16.7 38.2502 17.1364 37.5775 17.4818C36.9047 17.8273 36.1047 18 35.1775 18H27.5411C27.2138 18 27.0047 17.7909 26.9138 17.3727C26.8047 16.9364 26.7502 16.3636 26.7502 15.6545C26.7502 14.9636 26.8138 14.4091 26.9411 13.9909C27.0502 13.5545 27.2502 13.3364 27.5411 13.3364H35.1775ZM51.9374 13.3364C52.2283 13.3364 52.4283 13.5545 52.5374 13.9909C52.6647 14.4091 52.7283 14.9636 52.7283 15.6545C52.7283 16.3636 52.6738 16.9364 52.5647 17.3727C52.4738 17.7909 52.2647 18 51.9374 18H50.7919C50.1192 18 49.4738 17.8727 48.8556 17.6182C48.2556 17.3455 47.7283 16.9909 47.2738 16.5545C46.8374 16.1 46.4828 15.5727 46.2101 14.9727C45.9556 14.3727 45.8283 13.7364 45.8283 13.0636V3H50.4919V13.0636C50.4919 13.2455 50.6101 13.3364 50.8465 13.3364H51.9374ZM51.9434 18C51.6161 18 51.407 17.7909 51.3161 17.3727C51.207 16.9364 51.1525 16.3636 51.1525 15.6545C51.1525 14.9636 51.2161 14.4091 51.3434 13.9909C51.4525 13.5545 51.6525 13.3364 51.9434 13.3364H53.8525C53.9434 13.3364 54.0161 13.3091 54.0706 13.2545C54.1434 13.2 54.1797 13.1364 54.1797 13.0636V8.7H58.8434V13.0636C58.8434 13.1545 58.9161 13.2364 59.0615 13.3091C59.207 13.3636 59.407 13.3909 59.6615 13.3909C59.8979 13.3909 60.0797 13.3636 60.207 13.3091C60.3525 13.2364 60.4252 13.1545 60.4252 13.0636V8.7H65.0343V13.0091C65.0343 13.2636 65.1525 13.3909 65.3888 13.3909H66.6161V8.1H71.2797V18H65.3888C64.407 18 63.5343 17.7455 62.7706 17.2364C62.3888 17.4727 61.8888 17.6727 61.2706 17.8364C60.6525 17.9818 60.0979 18.0545 59.607 18.0545C59.1343 18.0545 58.5888 17.9909 57.9706 17.8636C57.3706 17.7364 56.8797 17.5455 56.4979 17.2909C56.1161 17.5455 55.707 17.7273 55.2706 17.8364C54.8343 17.9455 54.3615 18 53.8525 18H51.9434ZM91.9768 13.3364C92.2678 13.3364 92.4678 13.5545 92.5768 13.9909C92.7041 14.4091 92.7678 14.9636 92.7678 15.6545C92.7678 16.3636 92.7132 16.9364 92.6041 17.3727C92.5132 17.7909 92.3041 18 91.9768 18H90.8859C90.6314 18 90.395 17.9818 90.1768 17.9455C89.9587 17.9091 89.7405 17.8545 89.5223 17.7818C88.8678 18.8 88.0041 19.6182 86.9314 20.2364C85.8768 20.8545 84.7132 21.1636 83.4405 21.1636C82.4587 21.1636 81.5314 20.9727 80.6587 20.5909C79.8041 20.2273 79.0496 19.7273 78.395 19.0909C77.7405 18.4545 77.2223 17.7091 76.8405 16.8545C76.4587 16 76.2678 15.0909 76.2678 14.1273V10.8818H80.9314V13.9909C80.9314 14.3364 80.995 14.6636 81.1223 14.9727C81.2496 15.2818 81.4223 15.5545 81.6405 15.7909C81.8768 16.0091 82.1496 16.1818 82.4587 16.3091C82.7678 16.4364 83.095 16.5 83.4405 16.5C83.7859 16.5 84.1041 16.4364 84.395 16.3091C84.7041 16.1818 84.9678 16.0091 85.1859 15.7909C85.4223 15.5545 85.6041 15.2818 85.7314 14.9727C85.8768 14.6636 85.9496 14.3364 85.9496 13.9909V9.05455H90.5859V13.0909C90.5859 13.2545 90.6859 13.3364 90.8859 13.3364H91.9768ZM81.1768 5.61818H84.6132V9.05455H81.1768V5.61818ZM99.9265 7.44545C100.636 7.44545 101.308 7.58182 101.945 7.85455C102.599 8.12727 103.163 8.5 103.636 8.97273C104.127 9.44545 104.508 10.0091 104.781 10.6636C105.072 11.3 105.217 11.9909 105.217 12.7364C105.217 13.4818 105.072 14.1727 104.781 14.8091C104.508 15.4455 104.127 16 103.636 16.4727C103.163 16.9455 102.599 17.3182 101.945 17.5909C101.308 17.8636 100.636 18 99.9265 18C99.3993 18 98.8993 17.9273 98.4265 17.7818C97.9538 17.6182 97.5083 17.4091 97.0902 17.1545C96.6902 17.4091 96.2629 17.6182 95.8083 17.7818C95.3538 17.9273 94.872 18 94.3629 18H91.9629C91.6174 18 91.3993 17.7909 91.3083 17.3727C91.1993 16.9364 91.1447 16.3636 91.1447 15.6545C91.1447 14.9636 91.2083 14.4091 91.3356 13.9909C91.4447 13.5545 91.6538 13.3364 91.9629 13.3364H94.3629C94.4356 13.3364 94.4993 13.3091 94.5538 13.2545C94.6265 13.2 94.6629 13.1364 94.6629 13.0636V12.0273H93.4356V7.44545H99.9265ZM100.745 12.6818C100.745 12.4818 100.663 12.3 100.499 12.1364C100.336 11.9727 100.154 11.9 99.9538 11.9182H99.1356V12.6818C99.1356 12.9182 99.2083 13.1182 99.3538 13.2818C99.5174 13.4455 99.7174 13.5182 99.9538 13.5C100.154 13.5 100.327 13.4273 100.472 13.2818C100.636 13.1182 100.727 12.9182 100.745 12.6818Z" fill="#FFAC2F"/>
</svg>
