<svg width="24" height="24" viewBox="0 0 24 24" fill="none" xmlns="http://www.w3.org/2000/svg">
<path d="M11.9999 6.74898C12.4832 6.74898 12.8751 6.35715 12.8751 5.87381C12.8751 5.39047 12.4832 4.99864 11.9999 4.99864C11.5166 4.99864 11.1247 5.39047 11.1247 5.87381C11.1247 6.35715 11.5166 6.74898 11.9999 6.74898ZM11.9999 8.49932H11.9999C10.5499 8.49932 9.37439 7.32383 9.37439 5.87381C9.37439 4.42378 10.5499 3.2483 11.9999 3.2483V3.2483C13.4499 3.2483 14.6254 4.42378 14.6254 5.87381C14.6254 7.32383 13.4499 8.49932 11.9999 8.49932H11.9999ZM11.9999 20.7517H11.9999C10.5499 20.7517 9.37439 19.5762 9.37439 18.1262C9.37439 16.6762 10.5499 15.5007 11.9999 15.5007C13.4499 15.5007 14.6254 16.6762 14.6254 18.1262C14.6254 19.5762 13.4499 20.7517 11.9999 20.7517H11.9999ZM11.9999 19.0014C12.4832 19.0014 12.8751 18.6095 12.8751 18.1262C12.8751 17.6428 12.4832 17.251 11.9999 17.251C11.5166 17.251 11.1247 17.6428 11.1247 18.1262C11.1247 18.6095 11.5166 19.0014 11.9999 19.0014ZM11.9999 14.6255H11.9999C10.5499 14.6255 9.37439 13.45 9.37439 12C9.37439 10.55 10.5499 9.37449 11.9999 9.37449C13.4499 9.37449 14.6254 10.55 14.6254 12C14.6254 13.45 13.4499 14.6255 11.9999 14.6255H11.9999ZM11.9999 12.8752C12.4832 12.8752 12.8751 12.4833 12.8751 12C12.8751 11.5167 12.4832 11.1248 11.9999 11.1248C11.5166 11.1248 11.1247 11.5167 11.1247 12C11.1247 12.4833 11.5166 12.8752 11.9999 12.8752Z" fill="#474747"/>
</svg>
