<svg width="24" height="24" viewBox="0 0 24 24" fill="none" xmlns="http://www.w3.org/2000/svg">
<path fill-rule="evenodd" clip-rule="evenodd" d="M13.9754 2.0003C14.0184 2.0003 14.0605 2.00391 14.1015 2.01086L14.2383 2.0117C14.4423 2.0117 14.6373 2.0947 14.7793 2.2417L19.8443 7.5187C19.9783 7.6577 20.0535 7.8447 20.0535 8.0377V17.2037C20.0713 19.7127 18.1173 21.7627 15.6043 21.8647L7.58534 21.8657H7.47634C5.0264 21.8103 3.06151 19.8289 3.00164 17.4029L3.00134 6.4907C3.05934 4.0097 5.10834 2.0117 7.57134 2.0117L13.8494 2.01086C13.8904 2.00391 13.9325 2.0003 13.9754 2.0003ZM13.2253 3.5113L7.57334 3.5117C5.91634 3.5117 4.54034 4.8537 4.50134 6.5087V17.2037C4.46434 18.9167 5.81434 20.3277 7.51034 20.3657H15.5743C17.2433 20.2967 18.5653 18.9097 18.5534 17.2097L18.5533 8.9833L16.5434 8.9843C14.7134 8.9793 13.2254 7.4873 13.2254 5.6593L13.2253 3.5113ZM13.7886 14.6084C14.2026 14.6084 14.5386 14.9444 14.5386 15.3584C14.5386 15.7724 14.2026 16.1084 13.7886 16.1084H8.38864C7.97464 16.1084 7.63864 15.7724 7.63864 15.3584C7.63864 14.9444 7.97464 14.6084 8.38864 14.6084H13.7886ZM11.7437 10.8564C12.1577 10.8564 12.4937 11.1924 12.4937 11.6064C12.4937 12.0204 12.1577 12.3564 11.7437 12.3564H8.38774C7.97374 12.3564 7.63774 12.0204 7.63774 11.6064C7.63774 11.1924 7.97374 10.8564 8.38774 10.8564H11.7437ZM14.7253 4.3523L14.7254 5.6593C14.7254 6.6633 15.5424 7.4813 16.5454 7.4843L17.7313 7.4833L14.7253 4.3523Z" fill="#474747"/>
</svg>
