<svg width="23" height="22" viewBox="0 0 23 22" fill="none" xmlns="http://www.w3.org/2000/svg">
<path d="M18.001 21.7502C16.381 21.7502 14.851 20.9102 13.991 19.5302C13.531 18.8202 13.271 17.9701 13.251 17.1001C13.221 15.6401 13.8411 14.2801 14.9511 13.3601C15.7811 12.6701 16.8211 12.2802 17.8911 12.2502C19.1911 12.2402 20.361 12.6902 21.281 13.5702C22.201 14.4502 22.721 15.6302 22.741 16.9002C22.761 17.7702 22.541 18.6202 22.101 19.3702C21.861 19.7902 21.551 20.1802 21.181 20.5102C20.361 21.2802 19.261 21.7302 18.091 21.7502C18.071 21.7502 18.041 21.7502 18.001 21.7502ZM18.001 13.7502C17.981 13.7502 17.951 13.7502 17.931 13.7502C17.191 13.7702 16.491 14.0302 15.911 14.5102C15.151 15.1402 14.731 16.0702 14.751 17.0702C14.761 17.6602 14.941 18.2401 15.251 18.7301C15.861 19.7101 16.921 20.3102 18.061 20.2502C18.851 20.2302 19.6011 19.9302 20.1711 19.4002C20.4311 19.1702 20.641 18.9102 20.801 18.6302C21.101 18.1102 21.251 17.5302 21.241 16.9402C21.221 16.0702 20.871 15.2601 20.241 14.6601C19.641 14.0701 18.841 13.7502 18.001 13.7502Z" fill="#F6891F"/>
<path d="M17.4489 18.7497C17.2589 18.7497 17.0789 18.6797 16.9289 18.5397L15.9189 17.5797C15.6189 17.2897 15.6089 16.8197 15.8989 16.5197C16.1889 16.2197 16.6589 16.2097 16.9589 16.4997L17.4489 16.9697L19.0189 15.4497C19.3189 15.1597 19.7889 15.1697 20.0789 15.4697C20.3689 15.7697 20.3589 16.2397 20.0589 16.5297L17.9689 18.5497C17.8189 18.6797 17.6289 18.7497 17.4489 18.7497Z" fill="#F6891F"/>
<path d="M10.9994 12.2999C10.8694 12.2999 10.7394 12.2699 10.6194 12.1999L1.78936 7.0899C1.42936 6.8799 1.30934 6.41987 1.51934 6.05987C1.72934 5.69987 2.18936 5.57985 2.53936 5.78985L10.9893 10.6799L19.3894 5.81988C19.7494 5.60988 20.2094 5.7399 20.4094 6.0899C20.6194 6.4499 20.4894 6.90987 20.1394 7.11987L11.3694 12.1999C11.2594 12.2599 11.1294 12.2999 10.9994 12.2999Z" fill="#F6891F"/>
<path d="M11 21.36C10.59 21.36 10.25 21.02 10.25 20.61V11.54C10.25 11.13 10.59 10.79 11 10.79C11.41 10.79 11.75 11.13 11.75 11.54V20.61C11.75 21.02 11.41 21.36 11 21.36Z" fill="#F6891F"/>
<path d="M10.9989 21.7499C10.1189 21.7499 9.2389 21.5599 8.5589 21.1699L3.2189 18.2099C1.7689 17.4099 0.628906 15.4799 0.628906 13.8199V8.1599C0.628906 6.4999 1.7689 4.57994 3.2189 3.76994L8.5589 0.809922C9.9189 0.0399219 12.0589 0.0399219 13.4289 0.809922L18.7689 3.76994C20.2189 4.56994 21.3589 6.4999 21.3589 8.1599V13.8199C21.3589 13.9199 21.3589 13.9999 21.3389 14.0999C21.2889 14.3599 21.0989 14.5799 20.8489 14.6599C20.5989 14.7499 20.3189 14.6899 20.1089 14.5199C18.9589 13.5199 17.1789 13.4799 15.9689 14.4499C15.1989 15.0599 14.7489 15.9899 14.7489 16.9799C14.7489 17.5699 14.9089 18.1499 15.2189 18.6499C15.2989 18.7899 15.3789 18.8999 15.4689 19.0099C15.6189 19.1799 15.6789 19.4099 15.6389 19.6299C15.5989 19.8499 15.4589 20.0399 15.2589 20.1499L13.4289 21.1599C12.7489 21.5599 11.8789 21.7499 10.9989 21.7499ZM10.9989 1.7499C10.3789 1.7499 9.7489 1.87991 9.2989 2.12991L3.95889 5.08993C2.98889 5.61993 2.1489 7.05988 2.1489 8.15988V13.8199C2.1489 14.9199 2.99889 16.3599 3.95889 16.8899L9.2989 19.8499C10.2089 20.3599 11.7989 20.3599 12.7089 19.8499L13.8289 19.2299C13.4589 18.5599 13.2589 17.7799 13.2589 16.9799C13.2589 15.5199 13.9089 14.1699 15.0389 13.2699C16.3989 12.1799 18.3389 11.9499 19.8689 12.5999V8.13992C19.8689 7.03992 19.0189 5.59991 18.0589 5.06991L12.7189 2.10989C12.2489 1.87989 11.6189 1.7499 10.9989 1.7499Z" fill="#F6891F"/>
</svg>
