<svg width="22" height="22" viewBox="0 0 22 22" fill="none" xmlns="http://www.w3.org/2000/svg">
<path d="M10.9994 12.2999C10.8694 12.2999 10.7394 12.2699 10.6194 12.1999L1.78936 7.0899C1.42936 6.8799 1.30934 6.41987 1.51934 6.05987C1.72934 5.69987 2.17934 5.57985 2.54934 5.78985L10.9994 10.6799L19.3993 5.81988C19.7593 5.60988 20.2193 5.7399 20.4293 6.0899C20.6393 6.4499 20.5094 6.90987 20.1594 7.11987L11.3894 12.1999C11.2594 12.2599 11.1294 12.2999 10.9994 12.2999Z" fill="#F6891F"/>
<path d="M11 21.36C10.59 21.36 10.25 21.02 10.25 20.61V11.54C10.25 11.13 10.59 10.79 11 10.79C11.41 10.79 11.75 11.13 11.75 11.54V20.61C11.75 21.02 11.41 21.36 11 21.36Z" fill="#F6891F"/>
<path d="M11.0006 21.75C10.1206 21.75 9.2506 21.56 8.56061 21.18L3.22062 18.21C1.77062 17.41 0.640625 15.48 0.640625 13.82V8.16998C0.640625 6.50998 1.77062 4.59002 3.22062 3.78002L8.56061 0.82C9.9306 0.06 12.0706 0.06 13.4406 0.82L18.7806 3.78997C20.2306 4.58997 21.3606 6.51999 21.3606 8.17999V13.83C21.3606 15.49 20.2306 17.41 18.7806 18.22L13.4406 21.18C12.7506 21.56 11.8806 21.75 11.0006 21.75ZM11.0006 1.75C10.3706 1.75 9.7506 1.88001 9.2906 2.13001L3.95063 5.09998C2.99063 5.63998 2.14062 7.07 2.14062 8.18V13.83C2.14062 14.93 2.99063 16.37 3.95063 16.91L9.2906 19.88C10.2006 20.39 11.8006 20.39 12.7106 19.88L18.0506 16.91C19.0106 16.37 19.8606 14.94 19.8606 13.83V8.18C19.8606 7.08 19.0106 5.63998 18.0506 5.09998L12.7106 2.13001C12.2506 1.88001 11.6306 1.75 11.0006 1.75Z" fill="#F6891F"/>
<path d="M16.0012 12.99C15.5912 12.99 15.2512 12.65 15.2512 12.24V9.0201L6.13116 3.76007C5.77116 3.55007 5.65114 3.09005 5.86114 2.74005C6.07114 2.38005 6.52116 2.26003 6.88116 2.47003L16.3712 7.95007C16.6012 8.08007 16.7512 8.33003 16.7512 8.60003V12.2601C16.7512 12.6501 16.4112 12.99 16.0012 12.99Z" fill="#F6891F"/>
</svg>
