<svg width="22" height="22" viewBox="0 0 22 22" fill="none" xmlns="http://www.w3.org/2000/svg">
<path d="M14.2386 21.27H14.1086C9.6686 21.27 7.52855 19.52 7.15855 15.6C7.11855 15.19 7.41855 14.82 7.83855 14.78C8.23855 14.74 8.61855 15.05 8.65855 15.46C8.94855 18.6 10.4286 19.77 14.1186 19.77H14.2486C18.3186 19.77 19.7586 18.33 19.7586 14.26V7.73998C19.7586 3.66998 18.3186 2.22998 14.2486 2.22998H14.1186C10.4086 2.22998 8.92855 3.41998 8.65855 6.61998C8.60855 7.02998 8.25855 7.33998 7.83855 7.29998C7.41855 7.26998 7.11855 6.89998 7.14855 6.48998C7.48855 2.50998 9.6386 0.72998 14.1086 0.72998H14.2386C19.1486 0.72998 21.2486 2.82998 21.2486 7.73998V14.26C21.2486 19.17 19.1486 21.27 14.2386 21.27Z" fill="#F6891F"/>
<path d="M13.9991 11.75H2.61914C2.20914 11.75 1.86914 11.41 1.86914 11C1.86914 10.59 2.20914 10.25 2.61914 10.25H13.9991C14.4091 10.25 14.7491 10.59 14.7491 11C14.7491 11.41 14.4091 11.75 13.9991 11.75Z" fill="#F6891F"/>
<path d="M4.84945 15.0998C4.65945 15.0998 4.46945 15.0298 4.31945 14.8798L0.969453 11.5298C0.679453 11.2398 0.679453 10.7598 0.969453 10.4698L4.31945 7.11984C4.60945 6.82984 5.08945 6.82984 5.37945 7.11984C5.66945 7.40984 5.66945 7.88984 5.37945 8.17984L2.55945 10.9998L5.37945 13.8198C5.66945 14.1098 5.66945 14.5898 5.37945 14.8798C5.23945 15.0298 5.03945 15.0998 4.84945 15.0998Z" fill="#F6891F"/>
</svg>
