<svg width="20" height="20" viewBox="0 0 20 20" fill="none" xmlns="http://www.w3.org/2000/svg">
<path d="M9.06981 12.5581H10C10.3814 12.5581 10.6977 12.2419 10.6977 11.8605C10.6977 11.4791 10.3814 11.1628 10 11.1628H9.06981C8.42795 11.1628 7.90702 10.6419 7.90702 10V1.39535H15.5815C16.6791 1.39535 17.6838 1.99068 18.2233 2.94882C18.4094 3.2837 18.8373 3.40467 19.1721 3.21862C19.507 3.03258 19.628 2.60465 19.442 2.26977C18.6606 0.874419 17.1815 0 15.5815 0H7.20935C6.82795 0 6.51167 0.316279 6.51167 0.697674V10C6.51167 11.414 7.65586 12.5581 9.06981 12.5581Z" fill="#F6891F"/>
<path d="M3.48837 18.1396H4.4186C4.8 18.1396 5.11628 17.8233 5.11628 17.4419C5.11628 16.8001 5.63721 16.2791 6.27907 16.2791C6.92093 16.2791 7.44186 16.8001 7.44186 17.4419C7.44186 17.8233 7.75814 18.1396 8.13953 18.1396H11.8605C12.2419 18.1396 12.5581 17.8233 12.5581 17.4419C12.5581 16.8001 13.0791 16.2791 13.7209 16.2791C14.3628 16.2791 14.8837 16.8001 14.8837 17.4419C14.8837 17.8233 15.2 18.1396 15.5814 18.1396H16.5116C18.4372 18.1396 20 16.5768 20 14.6512C20 14.2698 19.6837 13.9536 19.3023 13.9536C18.9209 13.9536 18.6047 14.2698 18.6047 14.6512C18.6047 15.8047 17.6651 16.7443 16.5116 16.7443H16.1861C15.8791 15.6745 14.893 14.8838 13.7209 14.8838C12.5488 14.8838 11.5628 15.6745 11.2558 16.7443H8.73488C8.42791 15.6745 7.44186 14.8838 6.26977 14.8838C5.09767 14.8838 4.11163 15.6745 3.80465 16.7443H3.48837C2.33488 16.7443 1.39535 15.8047 1.39535 14.6512V12.5582H3.48837C4.3814 12.5582 5.11628 11.8233 5.11628 10.9303V8.13961C5.11628 7.24659 4.3907 6.5117 3.48837 6.5117L4.48372 4.77217C4.68837 4.40938 5.07907 4.18612 5.49767 4.18612H6.51163V10.0001C6.51163 11.414 7.65581 12.5582 9.06977 12.5582H10C10.3814 12.5582 10.6977 12.2419 10.6977 11.8605C10.6977 11.4791 10.3814 11.1629 10 11.1629H9.06977C8.42791 11.1629 7.90698 10.6419 7.90698 10.0001V3.48845C7.90698 3.10705 7.5907 2.79077 7.2093 2.79077H5.49767C4.57674 2.79077 3.73023 3.2838 3.27442 4.0838L1.68372 6.86519C1.56279 7.07914 1.56279 7.34891 1.68372 7.56286C1.80465 7.77682 2.03721 7.90705 2.28837 7.90705H3.48837C3.6186 7.90705 3.72093 8.00938 3.72093 8.13961V10.9303C3.72093 11.0605 3.6186 11.1629 3.48837 11.1629H0.697674C0.316278 11.1629 0 11.4791 0 11.8605V14.6512C0 16.5768 1.56279 18.1396 3.48837 18.1396Z" fill="#F6891F"/>
<path d="M13.7212 20.0001C15.1351 20.0001 16.2793 18.8559 16.2793 17.4419C16.2793 16.028 15.1351 14.8838 13.7212 14.8838C12.3072 14.8838 11.163 16.028 11.163 17.4419C11.163 18.8559 12.3072 20.0001 13.7212 20.0001ZM13.7212 16.2791C14.363 16.2791 14.8839 16.8001 14.8839 17.4419C14.8839 18.0838 14.363 18.6047 13.7212 18.6047C13.0793 18.6047 12.5584 18.0838 12.5584 17.4419C12.5584 16.8001 13.0793 16.2791 13.7212 16.2791Z" fill="#F6891F"/>
<path d="M6.27877 20.0001C7.69273 20.0001 8.83691 18.8559 8.83691 17.4419C8.83691 16.028 7.69273 14.8838 6.27877 14.8838C4.86482 14.8838 3.72064 16.028 3.72064 17.4419C3.72064 18.8559 4.86482 20.0001 6.27877 20.0001ZM6.27877 16.2791C6.92064 16.2791 7.44157 16.8001 7.44157 17.4419C7.44157 18.0838 6.92064 18.6047 6.27877 18.6047C5.63691 18.6047 5.11598 18.0838 5.11598 17.4419C5.11598 16.8001 5.63691 16.2791 6.27877 16.2791Z" fill="#F6891F"/>
<path d="M0.697607 12.558H3.4883C4.38133 12.558 5.11621 11.8231 5.11621 10.9301V8.13938C5.11621 7.24636 4.38133 6.51147 3.4883 6.51147H2.2883C2.03714 6.51147 1.80458 6.64171 1.68365 6.86496L0.0929561 9.65566C0.0371418 9.75799 -6.77109e-05 9.87892 -6.77109e-05 9.99985V11.8603C-6.77109e-05 12.2417 0.316211 12.558 0.697607 12.558ZM3.4883 7.90682C3.61854 7.90682 3.72086 8.00915 3.72086 8.13938V10.9301C3.72086 11.0603 3.61854 11.1626 3.4883 11.1626H1.39528V10.1859L2.69761 7.90682H3.4883Z" fill="#F6891F"/>
<path d="M13.7209 6.97689H19.3023C19.6837 6.97689 20 6.66061 20 6.27922C20 5.89782 19.6837 5.58154 19.3023 5.58154H13.7209C13.3395 5.58154 13.0233 5.89782 13.0233 6.27922C13.0233 6.66061 13.3395 6.97689 13.7209 6.97689Z" fill="#F6891F"/>
<path d="M15.5814 9.76766H19.3023C19.6837 9.76766 20 9.45138 20 9.06999C20 8.68859 19.6837 8.37231 19.3023 8.37231H15.5814C15.2 8.37231 14.8837 8.68859 14.8837 9.06999C14.8837 9.45138 15.2 9.76766 15.5814 9.76766Z" fill="#F6891F"/>
<path d="M17.4419 12.5584H19.3023C19.6837 12.5584 20 12.2422 20 11.8608C20 11.4794 19.6837 11.1631 19.3023 11.1631H17.4419C17.0605 11.1631 16.7442 11.4794 16.7442 11.8608C16.7442 12.2422 17.0605 12.5584 17.4419 12.5584Z" fill="#F6891F"/>
</svg>
