<svg width="22" height="20" viewBox="0 0 22 20" fill="none" xmlns="http://www.w3.org/2000/svg">
<path d="M15.1401 14.1237C15.0612 14.1237 14.9823 14.1055 14.9095 14.063L9.54918 10.961C9.33065 10.8335 9.25779 10.5542 9.38527 10.3357C9.51275 10.1171 9.78592 10.0443 10.0105 10.1718L15.1401 13.1403L20.2393 10.19C20.4578 10.0625 20.7371 10.1415 20.8646 10.3539C20.992 10.5725 20.9132 10.8517 20.7007 10.9792L15.3769 14.063C15.298 14.0994 15.2191 14.1237 15.1401 14.1237Z" fill="#333333"/>
<path fill-rule="evenodd" clip-rule="evenodd" d="M9.96082 10.2585C9.78301 10.1579 9.57094 10.2159 9.47165 10.3861C9.3719 10.5571 9.42892 10.7749 9.59944 10.8745L14.9595 13.9764C15.0154 14.009 15.0769 14.0237 15.1401 14.0237C15.1978 14.0237 15.2604 14.0062 15.3309 13.9741L20.6493 10.8934C20.8159 10.793 20.8768 10.574 20.7785 10.4048C20.678 10.2379 20.459 10.1776 20.2897 10.2764L15.1401 13.2558L9.96082 10.2585ZM9.29889 10.2853C9.45449 10.0186 9.78856 9.93081 10.0599 10.0848L15.1401 13.0247L20.1889 10.1036C20.4565 9.94766 20.7958 10.0449 20.9503 10.3025L20.9509 10.3035C21.107 10.5711 21.0098 10.9103 20.7522 11.0649L20.7508 11.0657L15.419 14.1542C15.3333 14.1937 15.2392 14.2237 15.1401 14.2237C15.0456 14.2237 14.949 14.2018 14.8592 14.1495L9.4991 11.0475C9.23264 10.8921 9.14371 10.5513 9.29889 10.2853Z" fill="#333333"/>
<path d="M15.1396 19.6238C14.8907 19.6238 14.6843 19.4174 14.6843 19.1685V13.6626C14.6843 13.4137 14.8907 13.2073 15.1396 13.2073C15.3884 13.2073 15.5948 13.4137 15.5948 13.6626V19.1685C15.5948 19.4174 15.3884 19.6238 15.1396 19.6238Z" fill="#333333"/>
<path fill-rule="evenodd" clip-rule="evenodd" d="M15.1396 13.3073C14.9459 13.3073 14.7843 13.4689 14.7843 13.6626V19.1685C14.7843 19.3622 14.9459 19.5238 15.1396 19.5238C15.3332 19.5238 15.4948 19.3622 15.4948 19.1685V13.6626C15.4948 13.4689 15.3332 13.3073 15.1396 13.3073ZM14.5843 13.6626C14.5843 13.3585 14.8354 13.1073 15.1396 13.1073C15.4437 13.1073 15.6948 13.3585 15.6948 13.6626V19.1685C15.6948 19.4727 15.4437 19.7238 15.1396 19.7238C14.8354 19.7238 14.5843 19.4727 14.5843 19.1685V13.6626Z" fill="#333333"/>
<path d="M15.1411 19.8588C14.6069 19.8588 14.0787 19.7435 13.6599 19.5128L10.4182 17.7099C9.538 17.2242 8.85205 16.0526 8.85205 15.0449V11.6151C8.85205 10.6074 9.538 9.44188 10.4182 8.95017L13.6599 7.15329C14.4915 6.69193 15.7906 6.69193 16.6223 7.15329L19.8639 8.95621C20.7441 9.44185 21.4301 10.6135 21.4301 11.6212V15.051C21.4301 16.0587 20.7441 17.2242 19.8639 17.716L16.6223 19.5128C16.2034 19.7435 15.6753 19.8588 15.1411 19.8588ZM15.1411 7.71785C14.7586 7.71785 14.3823 7.79677 14.103 7.94853L10.8614 9.75145C10.2786 10.0793 9.76262 10.9474 9.76262 11.6212V15.051C9.76262 15.7188 10.2786 16.5929 10.8614 16.9207L14.103 18.7237C14.6554 19.0333 15.6267 19.0333 16.1791 18.7237L19.4208 16.9207C20.0035 16.5929 20.5195 15.7248 20.5195 15.051V11.6212C20.5195 10.9534 20.0035 10.0793 19.4208 9.75145L16.1791 7.94853C15.8999 7.79677 15.5235 7.71785 15.1411 7.71785Z" fill="#333333"/>
<path fill-rule="evenodd" clip-rule="evenodd" d="M15.1411 6.90727C14.6213 6.90727 14.1062 7.02006 13.7084 7.24074L10.467 9.03747C10.0455 9.27295 9.66572 9.67301 9.39126 10.1398C9.11676 10.6067 8.95205 11.1327 8.95205 11.6151V15.0449C8.95205 15.5274 9.11679 16.0549 9.39129 16.5226C9.66581 16.9902 10.0454 17.39 10.4665 17.6223L13.7081 19.4252C14.1092 19.646 14.6201 19.7588 15.1411 19.7588C15.6621 19.7588 16.1728 19.6462 16.5738 19.4253L19.8151 17.6287C20.2366 17.3932 20.6164 16.9931 20.8909 16.5263C21.1654 16.0594 21.3301 15.5334 21.3301 15.051V11.6212C21.3301 11.1387 21.1654 10.6112 20.8909 10.1435C20.6163 9.67589 20.2367 9.2761 19.8156 9.04377L16.5738 7.24074M14.1508 8.03639L10.9104 9.83861C10.6388 9.99146 10.3754 10.2754 10.1796 10.6074C9.98377 10.9394 9.86262 11.3073 9.86262 11.6212V15.051C9.86262 15.3617 9.98371 15.7297 10.1796 16.0626C10.3755 16.3954 10.6387 16.6806 10.9101 16.8334L14.1516 18.6363C14.4084 18.7802 14.7712 18.8559 15.1411 18.8559C15.5109 18.8559 15.8735 18.7803 16.1302 18.6364L19.3717 16.8336C19.6433 16.6807 19.9068 16.3967 20.1026 16.0648C20.2984 15.7328 20.4195 15.3649 20.4195 15.051V11.6212C20.4195 11.3104 20.2984 10.9425 20.1025 10.6096C19.9066 10.2767 19.6434 9.9915 19.372 9.83873L16.1314 8.03639C15.8706 7.89479 15.5115 7.81785 15.1411 7.81785C14.7706 7.81785 14.4115 7.89479 14.1508 8.03639Z" fill="#333333"/>
<path d="M18.1754 14.5439C17.9265 14.5439 17.7201 14.3375 17.7201 14.0886V12.134L12.1838 8.9409C11.9653 8.81342 11.8924 8.53416 12.0199 8.3217C12.1474 8.10316 12.4206 8.0303 12.6391 8.15778L18.4 11.4844C18.5396 11.5634 18.6307 11.7151 18.6307 11.879V14.1008C18.6307 14.3376 18.4243 14.5439 18.1754 14.5439Z" fill="#333333"/>
<path fill-rule="evenodd" clip-rule="evenodd" d="M12.5887 8.24416C12.4182 8.1447 12.2061 8.20092 12.1063 8.37208L12.1056 8.37315C12.0075 8.53672 12.0627 8.75431 12.234 8.8544L17.8201 12.0762V14.0886C17.8201 14.2823 17.9817 14.4439 18.1754 14.4439C18.3708 14.4439 18.5307 14.2806 18.5307 14.1008V11.879C18.5307 11.7518 18.4596 11.633 18.3508 11.5715L12.5887 8.24416ZM12.6893 8.07129C12.4229 7.91605 12.089 8.00534 11.9338 8.27077C11.7775 8.532 11.868 8.87245 12.1334 9.02728L17.6201 12.1918V14.0886C17.6201 14.3928 17.8713 14.6439 18.1754 14.6439C18.4778 14.6439 18.7307 14.3946 18.7307 14.1008V11.879C18.7307 11.6786 18.6199 11.494 18.4496 11.3976L12.6893 8.07129Z" fill="#333333"/>
<path fill-rule="evenodd" clip-rule="evenodd" d="M6.88029 3.33411C6.71974 3.24321 6.52868 3.29561 6.43918 3.44904C6.34923 3.60323 6.40065 3.79963 6.55436 3.8894L11.3441 6.66124L11.5024 6.75286C11.5527 6.78219 11.6081 6.79545 11.6653 6.79545C11.7168 6.79545 11.7734 6.77981 11.8378 6.75049L11.9847 6.66543L16.7469 3.90691C16.8972 3.81627 16.952 3.6188 16.8635 3.4664C16.7728 3.31581 16.5753 3.2616 16.4228 3.35054L11.6653 6.10317L6.88029 3.33411ZM6.26642 3.34826C6.41222 3.09832 6.72529 3.01617 6.97935 3.16037L11.6653 5.8721L16.322 3.17779C16.5728 3.03162 16.8906 3.12281 17.0354 3.36403L17.036 3.36509C17.1823 3.61589 17.0911 3.93362 16.8498 4.0784L16.8485 4.0792L11.9259 6.9306C11.8463 6.96733 11.7583 6.99545 11.6653 6.99545C11.5768 6.99545 11.4863 6.97495 11.4021 6.9259L6.45403 4.06241C6.20437 3.91678 6.12104 3.59749 6.26642 3.34826Z" fill="#333333"/>
<path fill-rule="evenodd" clip-rule="evenodd" d="M11.3441 6.23743V6.66124V8.4509C11.3441 8.4509 11.3465 8.45402 11.3489 8.45656C11.3586 8.46642 11.3774 8.47986 11.4081 8.49331C11.4693 8.52007 11.5602 8.53915 11.6644 8.53915C11.7685 8.53915 11.8594 8.52007 11.9206 8.49331C11.9514 8.47986 11.9702 8.46642 11.9798 8.45656C11.9823 8.45402 11.9847 8.4509 11.9847 8.4509V6.66543V6.23743C11.9847 6.23743 11.9823 6.23431 11.9798 6.23177C11.9702 6.22191 11.9514 6.20847 11.9206 6.19502C11.8594 6.16826 11.7685 6.14918 11.6644 6.14918C11.5602 6.14918 11.4693 6.16826 11.4081 6.19502C11.3774 6.20847 11.3586 6.22191 11.3489 6.23177L11.3466 6.23427L11.3441 6.23743ZM11.328 6.01177C11.4195 5.97176 11.5388 5.94918 11.6644 5.94918C11.79 5.94918 11.9092 5.97176 12.0007 6.01177C12.0463 6.0317 12.0895 6.05793 12.1228 6.09194C12.1564 6.12629 12.1847 6.17407 12.1847 6.23295V8.45537C12.1847 8.51425 12.1564 8.56204 12.1228 8.59639C12.0895 8.6304 12.0463 8.65663 12.0007 8.67656C11.9092 8.71657 11.79 8.73915 11.6644 8.73915C11.5388 8.73915 11.4195 8.71657 11.328 8.67656C11.2824 8.65663 11.2392 8.6304 11.206 8.59639C11.1724 8.56204 11.1441 8.51425 11.1441 8.45537V6.23295C11.1441 6.17407 11.1724 6.12629 11.206 6.09194C11.2392 6.05793 11.2824 6.0317 11.328 6.01177Z" fill="#333333"/>
<path d="M7.30665 2.11918C6.4941 2.57309 5.86087 3.649 5.86087 4.57923V7.10777L6.70144 6.64809V4.58485C6.70144 3.96282 7.17777 3.16146 7.71574 2.85886L10.7082 1.19454C10.9659 1.05444 11.3134 0.981589 11.6664 0.981589C12.0195 0.981589 12.3669 1.05444 12.6247 1.19454L15.6171 2.85886C16.1551 3.16146 16.6314 3.96843 16.6314 4.58485V7.33231L17.472 7.75101V4.58484C17.472 3.65461 16.8387 2.57306 16.0262 2.12475L13.0338 0.460433C12.266 0.034543 11.0668 0.034543 10.2991 0.460433L7.30665 2.11918Z" fill="#333333"/>
<path fill-rule="evenodd" clip-rule="evenodd" d="M11.6664 0.241016C11.1876 0.241016 10.7134 0.344939 10.3476 0.547879L7.35542 2.20648C6.96779 2.42306 6.61808 2.79127 6.36526 3.22127C6.1124 3.65132 5.96087 4.13552 5.96087 4.57923V6.93911L6.60144 6.5888V4.58485C6.60144 4.25077 6.72838 3.87738 6.92072 3.55127C7.11307 3.22513 7.37803 2.93408 7.66671 2.7717L10.6596 1.10715C10.9358 0.957036 11.3016 0.881589 11.6664 0.881589C12.0312 0.881589 12.3962 0.956566 12.6724 1.10668L15.6657 2.77146C15.9546 2.93394 16.2199 3.22675 16.4122 3.55345C16.6044 3.88012 16.7314 4.2535 16.7314 4.58485V7.27041L17.372 7.58948V4.58484C17.372 4.14109 17.2204 3.65545 16.9676 3.2247C16.7147 2.79392 16.3652 2.42598 15.9779 2.21231L12.9852 0.547879C12.6194 0.344939 12.1453 0.241016 11.6664 0.241016ZM11.6664 0.0410156C12.1711 0.0410156 12.6804 0.150037 13.0823 0.372988L16.0745 2.03719C16.4997 2.27185 16.8732 2.6689 17.14 3.12345C17.4069 3.5781 17.572 4.09836 17.572 4.58484V7.91253L16.5314 7.39422V4.58485C16.5314 4.29978 16.4202 3.96147 16.2398 3.65489C16.0595 3.34845 15.8174 3.0863 15.5683 2.94614L12.5769 1.2824C12.3376 1.15246 12.0075 1.08159 11.6664 1.08159C11.3254 1.08159 10.9956 1.15224 10.7563 1.28217L7.76476 2.94602C7.51556 3.08627 7.27323 3.34727 7.09299 3.65287C6.91267 3.9586 6.80144 4.2969 6.80144 4.58485V6.70738L5.76087 7.27643V4.57923C5.76087 4.0927 5.92595 3.57384 6.19285 3.1199C6.45975 2.66595 6.83301 2.26922 7.25788 2.03187L10.2506 0.372988C10.6525 0.150037 11.1618 0.0410156 11.6664 0.0410156Z" fill="#333333"/>
<path d="M14.4665 7.28309C14.2367 7.28309 14.0462 7.09256 14.0462 6.86281V5.05843L8.93551 2.11081C8.73377 1.99312 8.66651 1.73534 8.78419 1.5392C8.90188 1.33747 9.15406 1.27021 9.3558 1.38789L14.6738 4.45881C14.8027 4.53166 14.8868 4.67173 14.8868 4.82303V6.87407C14.8868 7.09262 14.6963 7.28309 14.4665 7.28309Z" fill="#333333"/>
<path fill-rule="evenodd" clip-rule="evenodd" d="M9.30541 1.47427C9.15171 1.38461 8.96062 1.43523 8.87057 1.58959L8.86995 1.59066C8.78161 1.7379 8.83117 1.93403 8.9857 2.02431L14.1462 5.00067V6.86281C14.1462 7.03733 14.292 7.18309 14.4665 7.18309C14.6428 7.18309 14.7868 7.03564 14.7868 6.87407V4.82303C14.7868 4.70841 14.7227 4.60128 14.6246 4.54586L9.30541 1.47427ZM9.40598 1.3014C9.15642 1.15596 8.84354 1.23965 8.69813 1.48828C8.55159 1.73318 8.63651 2.05216 8.88512 2.19718L13.9462 5.1162V6.86281C13.9462 7.14779 14.1815 7.38309 14.4665 7.38309C14.7497 7.38309 14.9868 7.1496 14.9868 6.87407V4.82303C14.9868 4.63521 14.883 4.46233 14.7235 4.37198L9.40598 1.3014Z" fill="#333333"/>
<path fill-rule="evenodd" clip-rule="evenodd" d="M6.85875 19.1007C6.32454 19.1007 5.79641 18.9854 5.37755 18.7547L2.13591 16.9517C1.25569 16.4661 0.569727 15.2945 0.569727 14.2868V10.857C0.569727 9.84925 1.25569 8.68374 2.13591 8.19203L5.37755 6.39515C6.20921 5.9338 7.50829 5.9338 8.33995 6.39515L11.5816 8.19807C11.6619 8.24238 11.7406 8.29239 11.8173 8.34747L10.8957 8.85831L7.8968 7.19039C7.61756 7.03863 7.24119 6.95971 6.85875 6.95971C6.47631 6.95971 6.09994 7.03863 5.82069 7.19039L4.89283 7.70645L9.38827 10.3024C9.14892 10.7492 9.00581 11.2424 9.00581 11.7027V12.1973L7.31406 13.1773V18.1597C7.5307 18.1224 7.73232 18.0577 7.8968 17.9655L9.66948 16.9796C9.86278 17.2406 10.0892 17.4706 10.3363 17.6481L8.33995 18.7547C7.92108 18.9854 7.39295 19.1007 6.85875 19.1007ZM9.01875 11.1314L6.85841 12.3814L1.97311 9.55424C2.14963 9.3168 2.35961 9.11675 2.57906 8.99331L3.97015 8.21962L9.01875 11.1314ZM6.40348 13.1743L1.55843 10.3704C1.50823 10.539 1.4803 10.7063 1.4803 10.863V14.2929C1.4803 14.9606 1.99629 15.8348 2.57906 16.1626L5.82069 17.9655C5.98519 18.0577 6.18682 18.1225 6.40348 18.1597V13.1743Z" fill="#333333"/>
<path fill-rule="evenodd" clip-rule="evenodd" d="M6.85875 5.94913C7.40434 5.94913 7.95459 6.06702 8.38846 6.30771L11.6299 8.11051C11.7138 8.15681 11.796 8.20906 11.8756 8.26625L12.0039 8.35837L10.8956 8.97269L7.84905 7.27826C7.58827 7.13665 7.22921 7.05971 6.85875 7.05971C6.48829 7.05971 6.12965 7.13643 5.86887 7.27802L5.09563 7.70808L9.52216 10.2642L9.47643 10.3496C9.34526 10.5944 9.24443 10.8525 9.18128 11.1097L9.21867 11.1313L9.16948 11.1598C9.12793 11.3432 9.10581 11.5259 9.10581 11.7027V12.255L7.41406 13.2349V18.0379C7.57664 18.0009 7.72473 17.9473 7.84791 17.8783L9.69759 16.8495L9.74984 16.9201C9.93781 17.1739 10.1571 17.3962 10.3947 17.5669L10.5229 17.659L8.38843 18.8421C7.95181 19.0826 7.40606 19.2007 6.85875 19.2007C6.31144 19.2007 5.76592 19.0827 5.32931 18.8423L2.0876 17.0393C1.62857 16.786 1.22497 16.3571 0.936495 15.8657C0.647963 15.3742 0.469727 14.812 0.469727 14.2868V10.857C0.469727 10.3317 0.647991 9.77106 0.936531 9.28031C1.22507 8.78956 1.62843 8.36097 2.08714 8.10473L5.32904 6.30771C5.7629 6.06702 6.31316 5.94913 6.85875 5.94913ZM9.00137 11.006L3.97104 8.1047L2.53046 8.90592C2.29562 9.03802 2.07526 9.24923 1.89286 9.49458L1.82593 9.58461L6.8584 12.4969L8.93997 11.2925C8.91759 11.4304 8.90581 11.5677 8.90581 11.7027V12.1397L7.21406 13.1196V18.2784L7.33102 18.2583C7.5557 18.2196 7.76873 18.1519 7.9455 18.0529L9.64231 17.1091C9.79555 17.3058 9.96782 17.4842 10.1541 17.6348L8.29171 18.6671C7.89062 18.8879 7.37977 19.0007 6.85875 19.0007C6.33771 19.0007 5.82701 18.888 5.42592 18.6672L2.18451 16.8644C1.7634 16.632 1.38349 16.2321 1.10897 15.7644C0.83447 15.2968 0.669727 14.7693 0.669727 14.2868V10.857C0.669727 10.3745 0.834442 9.84854 1.10894 9.38168C1.3834 8.91488 1.76308 8.51489 2.18454 8.27941L5.42603 6.48261C5.82382 6.26194 6.33897 6.14913 6.85875 6.14913C7.37853 6.14913 7.89365 6.26193 8.29144 6.4826L11.533 8.28547C11.5639 8.30252 11.5949 8.32066 11.6254 8.3395L10.8958 8.74393L7.94541 7.103C7.64774 6.94122 7.25297 6.85971 6.85875 6.85971C6.46453 6.85971 6.07061 6.94075 5.77294 7.10253L4.69003 7.70482L9.25549 10.3412C9.14777 10.5556 9.06135 10.7798 9.00137 11.006ZM8.81883 11.1316L3.96925 8.33455L2.62809 9.08047C2.45106 9.18009 2.27686 9.33579 2.12247 9.52514L6.85841 12.2658L8.81883 11.1316ZM1.49878 10.2204L6.50348 13.1166V18.2784L6.38652 18.2583C6.16179 18.2196 5.94873 18.1519 5.77193 18.0528L2.53045 16.25C2.21922 16.0749 1.93274 15.759 1.72496 15.4059C1.5172 15.0529 1.3803 14.6499 1.3803 14.2929V10.863C1.3803 10.6947 1.41022 10.5177 1.46259 10.3419L1.49878 10.2204ZM1.62165 10.5226C1.59461 10.6405 1.5803 10.7552 1.5803 10.863V14.2929C1.5803 14.6036 1.70139 14.9716 1.89733 15.3045C2.09316 15.6373 2.35636 15.9225 2.62779 16.0753L5.8693 17.8781C5.9925 17.9472 6.14089 18.0009 6.30348 18.0379V13.232L1.62165 10.5226Z" fill="#333333"/>
<path fill-rule="evenodd" clip-rule="evenodd" d="M11.2441 6.71891L6.50411 3.97586C6.30238 3.85818 6.23512 3.60039 6.3528 3.39865C6.47048 3.19691 6.72265 3.12965 6.92999 3.24733L11.6653 5.98763L16.3724 3.26416C16.5741 3.14648 16.8319 3.21934 16.9496 3.41548C17.0673 3.61722 16.9945 3.87497 16.7984 3.99265L12.0847 6.72307V8.45537C12.0847 8.55584 11.8941 8.63915 11.6644 8.63915C11.4346 8.63915 11.2441 8.55584 11.2441 8.45537V6.71891ZM11.6653 6.79545C11.6081 6.79545 11.5527 6.78219 11.5024 6.75286L11.3441 6.66124V6.23743L11.3466 6.23427L11.3489 6.23177C11.3586 6.22191 11.3774 6.20847 11.4081 6.19502C11.4693 6.16826 11.5602 6.14918 11.6644 6.14918C11.7685 6.14918 11.8594 6.16826 11.9206 6.19502C11.9514 6.20847 11.9702 6.22191 11.9798 6.23177C11.9823 6.23431 11.9847 6.23743 11.9847 6.23743V6.66543L11.8378 6.75049C11.7734 6.77981 11.7168 6.79545 11.6653 6.79545Z" fill="#333333"/>
<path d="M11.5024 6.75286C11.5527 6.78219 11.6081 6.79545 11.6653 6.79545C11.7168 6.79545 11.7734 6.77981 11.8378 6.75049L11.9847 6.66543V6.23743C11.9847 6.23743 11.9823 6.23431 11.9798 6.23177C11.9702 6.22191 11.9514 6.20847 11.9206 6.19502C11.8594 6.16826 11.7685 6.14918 11.6644 6.14918C11.5602 6.14918 11.4693 6.16826 11.4081 6.19502C11.3774 6.20847 11.3586 6.22191 11.3489 6.23177L11.3466 6.23427L11.3441 6.23743V6.66124L11.5024 6.75286Z" fill="#333333"/>
</svg>
