<svg width="30" height="30" viewBox="0 0 30 30" fill="none" xmlns="http://www.w3.org/2000/svg">
<circle cx="15" cy="15" r="15" fill="#FAFAFA"/>
<path d="M14.378 20.1018C14.378 20.0194 14.378 19.9224 14.378 19.8109C14.378 19.6994 14.378 19.583 14.378 19.4618C14.378 19.3406 14.378 19.2218 14.378 19.1055C14.3829 18.9891 14.3877 18.8824 14.3926 18.7855V18.7927C14.3974 18.56 14.3998 18.32 14.3998 18.0727C14.4047 17.8206 14.4071 17.5564 14.4071 17.28C14.4071 16.7467 14.3998 16.1939 14.3853 15.6218C14.3756 15.0497 14.3416 14.4558 14.2835 13.84C14.2253 13.2194 14.1356 12.5794 14.0144 11.92C13.8932 11.2558 13.721 10.5673 13.498 9.85455L15.1926 9.30182C15.4398 10.0921 15.6313 10.8509 15.7671 11.5782C15.9077 12.3006 16.0095 12.9939 16.0726 13.6582C16.1404 14.3176 16.1816 14.9503 16.1962 15.5564C16.2107 16.1624 16.218 16.7442 16.218 17.3018C16.218 17.5782 16.2156 17.8448 16.2107 18.1018C16.2107 18.3539 16.2083 18.5964 16.2035 18.8291C16.1986 18.9261 16.1938 19.0327 16.1889 19.1491C16.1889 19.2606 16.1889 19.3745 16.1889 19.4909C16.1889 19.6073 16.1889 19.7188 16.1889 19.8255C16.1889 19.9321 16.1889 20.0242 16.1889 20.1018H14.378Z" fill="#C4C4C4"/>
</svg>
