<svg width="30" height="30" viewBox="0 0 30 30" fill="none" xmlns="http://www.w3.org/2000/svg">
<circle cx="15" cy="15" r="15" fill="#FAFAFA"/>
<path d="M18.173 9.34545C18.1876 9.38909 18.2191 9.49333 18.2676 9.65818C18.3161 9.82303 18.3646 10.0218 18.413 10.2545C18.4615 10.4824 18.5052 10.7297 18.5439 10.9964C18.5827 11.2582 18.6021 11.5103 18.6021 11.7527C18.6021 12.2521 18.5197 12.6861 18.3549 13.0545C18.19 13.423 17.9767 13.7285 17.7149 13.9709C17.453 14.2085 17.1549 14.3855 16.8203 14.5018C16.4906 14.6182 16.1585 14.6764 15.8239 14.6764C15.4943 14.6764 15.1912 14.6376 14.9149 14.56C14.6433 14.4776 14.3888 14.3685 14.1512 14.2327C14.1949 14.6545 14.2288 15.0739 14.253 15.4909C14.2773 15.9079 14.2943 16.3491 14.3039 16.8145C14.3136 17.2752 14.3185 17.7745 14.3185 18.3127C14.3233 18.8509 14.3233 19.4521 14.3185 20.1164H12.5294V18.3564C12.5294 17.7842 12.5197 17.1806 12.5003 16.5455C12.4858 15.9055 12.4421 15.2339 12.3694 14.5309C12.2967 13.8279 12.1852 13.0909 12.0349 12.32C11.8846 11.5491 11.6761 10.7442 11.4094 9.90545L13.133 9.35273L13.4312 10.24C13.4555 10.3127 13.4943 10.4291 13.5476 10.5891C13.6058 10.7442 13.6809 10.9212 13.773 11.12C13.8652 11.3139 13.9743 11.5152 14.1003 11.7236C14.2312 11.9273 14.3815 12.1164 14.5512 12.2909C14.7209 12.4606 14.91 12.6012 15.1185 12.7127C15.3318 12.8194 15.567 12.8727 15.8239 12.8727C15.8821 12.8727 15.9646 12.863 16.0712 12.8436C16.1827 12.8242 16.2918 12.7782 16.3985 12.7055C16.51 12.6279 16.607 12.5139 16.6894 12.3636C16.7718 12.2133 16.813 12.0097 16.813 11.7527C16.813 11.6024 16.8009 11.44 16.7767 11.2655C16.7524 11.0861 16.7209 10.9139 16.6821 10.7491C16.6482 10.5794 16.6094 10.4218 16.5658 10.2764C16.527 10.1261 16.4906 10 16.4567 9.89818L18.173 9.34545Z" fill="#C4C4C4"/>
</svg>
