<svg width="30" height="30" viewBox="0 0 30 30" fill="none" xmlns="http://www.w3.org/2000/svg">
<circle cx="15" cy="15" r="15" fill="#FAFAFA"/>
<path d="M19.2735 9.34545C19.3123 9.51515 19.3535 9.70182 19.3971 9.90545C19.4456 10.1091 19.4868 10.3248 19.5208 10.5527C19.5596 10.7758 19.5911 11.0085 19.6153 11.2509C19.6396 11.4885 19.6517 11.7285 19.6517 11.9709C19.6517 12.3297 19.608 12.6715 19.5208 12.9964C19.4335 13.3212 19.2953 13.6073 19.1062 13.8545C18.922 14.1018 18.6844 14.2982 18.3935 14.4436C18.1026 14.5891 17.7535 14.6618 17.3462 14.6618C17.2008 14.6618 17.0432 14.6473 16.8735 14.6182C16.7086 14.5891 16.5414 14.5406 16.3717 14.4727C16.202 14.4 16.0323 14.3055 15.8626 14.1891C15.6977 14.0679 15.5402 13.9152 15.3899 13.7309C15.162 14.0121 14.9147 14.2206 14.648 14.3564C14.3862 14.4921 14.1317 14.5891 13.8844 14.6473H13.8917C13.8189 14.6667 13.7389 14.6812 13.6517 14.6909C13.5644 14.6958 13.4771 14.6982 13.3899 14.6982C13.2832 14.6982 13.1717 14.6909 13.0553 14.6764C12.9389 14.657 12.8299 14.6303 12.728 14.5964C12.7911 15.343 12.8274 16.0485 12.8371 16.7127C12.8517 17.3721 12.8589 17.9733 12.8589 18.5164V20.1018H11.0553V18.6618C11.0553 18.0897 11.048 17.4473 11.0335 16.7345C11.0238 16.0218 10.9826 15.28 10.9099 14.5091C10.842 13.7333 10.7353 12.9527 10.5899 12.1673C10.4493 11.377 10.248 10.6206 9.98622 9.89818L11.6953 9.33091C11.7438 9.49576 11.7899 9.64606 11.8335 9.78182C11.8771 9.91758 11.9183 10.0558 11.9571 10.1964C11.9959 10.337 12.0347 10.4848 12.0735 10.64C12.1171 10.7952 12.1632 10.9745 12.2117 11.1782C12.2602 11.3624 12.3256 11.5564 12.408 11.76C12.4905 11.9588 12.585 12.1406 12.6917 12.3055C12.8032 12.4703 12.9268 12.6061 13.0626 12.7127C13.2032 12.8194 13.3559 12.8727 13.5208 12.8727C13.6323 12.8533 13.7365 12.8073 13.8335 12.7345C13.9305 12.6618 14.0153 12.5503 14.088 12.4C14.1608 12.2497 14.2165 12.0582 14.2553 11.8255C14.2989 11.5927 14.3208 11.3067 14.3208 10.9673C14.3208 10.8606 14.3208 10.7661 14.3208 10.6836C14.3208 10.5964 14.3183 10.5091 14.3135 10.4218C14.3135 10.3297 14.3086 10.2279 14.2989 10.1164C14.2893 10.0048 14.2771 9.86667 14.2626 9.70182L16.0517 9.54182C16.1099 10.1333 16.168 10.64 16.2262 11.0618C16.2844 11.4788 16.3547 11.8206 16.4371 12.0873C16.5196 12.3491 16.6238 12.5406 16.7499 12.6618C16.8808 12.783 17.0456 12.8436 17.2444 12.8436C17.4044 12.8436 17.545 12.7709 17.6662 12.6255C17.7874 12.48 17.848 12.2764 17.848 12.0145C17.848 11.8206 17.8359 11.6194 17.8117 11.4109C17.7874 11.2024 17.7583 11.0012 17.7244 10.8073C17.6905 10.6133 17.6541 10.4339 17.6153 10.2691C17.5765 10.1042 17.5402 9.96848 17.5062 9.86182L19.2735 9.34545Z" fill="#C4C4C4"/>
</svg>
