<svg width="20" height="20" viewBox="0 0 20 20" fill="none" xmlns="http://www.w3.org/2000/svg">
<path d="M11.1667 9.5V5.33333C11.1667 4.8731 10.7936 4.5 10.3333 4.5C9.8731 4.5 9.5 4.8731 9.5 5.33333V9.5H5.33333C4.8731 9.5 4.5 9.8731 4.5 10.3333C4.5 10.7936 4.8731 11.1667 5.33333 11.1667H9.5V15.3333V15.3333C9.5 15.7936 9.8731 16.1667 10.3333 16.1667C10.7936 16.1667 11.1667 15.7936 11.1667 15.3333V11.1667H15.3333C15.7936 11.1667 16.1667 10.7936 16.1667 10.3333C16.1667 9.8731 15.7936 9.5 15.3333 9.5H11.1667Z" fill="#1F75F6"/>
</svg>
