<svg width="13" height="13" viewBox="0 0 13 13" fill="none" xmlns="http://www.w3.org/2000/svg">
<path d="M10.9512 6.56275C10.9512 6.28698 10.7285 6.06424 10.4527 6.06424L6.99851 6.0607L6.99851 2.60295C6.99851 2.32718 6.77577 2.10444 6.5 2.10444C6.22423 2.10444 6.00149 2.32718 6.00149 2.60295L6.00149 6.0607L2.54374 6.0607C2.26797 6.0607 2.04523 6.28344 2.04523 6.55921C2.04523 6.83499 2.26797 7.05773 2.54374 7.05772L6.00149 7.05773L6.00149 10.5155C6.00149 10.7912 6.22423 11.014 6.5 11.014C6.77577 11.014 6.99851 10.7912 6.99851 10.5155L6.99851 7.05773L10.4563 7.05772C10.725 7.05773 10.9512 6.83145 10.9512 6.56275Z" fill="#2C2D30"/>
</svg>
