<svg width="20" height="20" viewBox="0 0 20 20" fill="none" xmlns="http://www.w3.org/2000/svg">
<path d="M6.81384 11.0349C6.81384 10.7036 7.08247 10.4349 7.41384 10.4349H12.5866C12.918 10.4349 13.1866 10.7036 13.1866 11.0349C13.1866 11.3663 12.918 11.6349 12.5866 11.6349H7.41384C7.08247 11.6349 6.81384 11.3663 6.81384 11.0349Z" fill="#333333"/>
<path d="M7.41384 13.0214C7.08247 13.0214 6.81384 13.29 6.81384 13.6214C6.81384 13.9527 7.08247 14.2214 7.41384 14.2214H12.5866C12.918 14.2214 13.1866 13.9527 13.1866 13.6214C13.1866 13.29 12.918 13.0214 12.5866 13.0214H7.41384Z" fill="#333333"/>
<path fill-rule="evenodd" clip-rule="evenodd" d="M15.2944 7.72136L10.7275 3.15445C10.421 2.84805 10.0054 2.67585 9.57203 2.67578H6.37937C5.19095 2.67578 4.22754 3.63919 4.22754 4.82761V15.1732C4.22754 16.3616 5.19095 17.325 6.37937 17.325H13.6213C14.8097 17.325 15.7731 16.3616 15.7731 15.1732V8.87692C15.773 8.44356 15.6008 8.02783 15.2944 7.72136ZM5.42754 4.82761C5.42754 4.30193 5.85369 3.87578 6.37937 3.87578H9.40027V7.41403C9.40027 8.31677 10.1321 9.04858 11.0348 9.04858H14.5731V15.1732C14.5731 15.6988 14.1469 16.125 13.6213 16.125H6.37937C5.85369 16.125 5.42754 15.6988 5.42754 15.1732V4.82761ZM10.6003 4.72427L13.7246 7.84858H11.0348C10.7948 7.84858 10.6003 7.65403 10.6003 7.41403V4.72427Z" fill="#333333"/>
</svg>
