<svg width="24" height="24" viewBox="0 0 24 24" fill="none" xmlns="http://www.w3.org/2000/svg">
<path fill-rule="evenodd" clip-rule="evenodd" d="M3.09961 18.9996C3.09961 16.2934 5.29341 14.0996 7.99961 14.0996H15.9996C18.7058 14.0996 20.8996 16.2934 20.8996 18.9996V20.9996C20.8996 21.4967 20.4967 21.8996 19.9996 21.8996C19.5026 21.8996 19.0996 21.4967 19.0996 20.9996V18.9996C19.0996 17.2875 17.7117 15.8996 15.9996 15.8996H7.99961C6.28753 15.8996 4.89961 17.2875 4.89961 18.9996V20.9996C4.89961 21.4967 4.49667 21.8996 3.99961 21.8996C3.50255 21.8996 3.09961 21.4967 3.09961 20.9996V18.9996Z" fill="#333333"/>
<path fill-rule="evenodd" clip-rule="evenodd" d="M14.1916 4.80758C12.981 3.59695 11.0182 3.59695 9.80758 4.80758L9.80758 4.80758C8.59695 6.0182 8.59695 7.98101 9.80758 9.19164L9.17118 9.82803L9.80758 9.19164C11.0182 10.4023 12.981 10.4023 14.1916 9.19164L14.828 9.82803L14.1916 9.19164C15.4023 7.98102 15.4023 6.01821 14.1916 4.80758ZM15.4644 3.53479C17.378 5.44836 17.378 8.55087 15.4644 10.4644C13.5509 12.378 10.4484 12.378 8.53479 10.4644C6.62122 8.55086 6.62121 5.44835 8.53479 3.53479C10.4484 1.62122 13.5509 1.62122 15.4644 3.53479Z" fill="#333333"/>
</svg>
