<svg width="16" height="16" viewBox="0 0 16 16" fill="none" xmlns="http://www.w3.org/2000/svg">
<path d="M6.10044 2.79069V2.13948V2.13948C6.10044 1.77983 6.3839 1.48828 6.73356 1.48828H9.26602V1.48828C9.61568 1.48828 9.89913 1.77983 9.89913 2.13948V2.79069H12.4316V2.79069C13.1309 2.79069 13.6978 3.3738 13.6978 4.09309V4.7443C13.6978 5.4636 13.1309 6.04671 12.4316 6.04671H12.3474L11.9169 12.689V12.689C11.8502 13.715 11.0217 14.5122 10.022 14.5124H5.99028V14.5124C4.99145 14.5123 4.16329 13.7166 4.09537 12.6916L3.65472 6.04671H3.56799H3.56799C2.86867 6.04671 2.30176 5.4636 2.30176 4.7443V4.09309L2.30176 4.09309C2.30176 3.3738 2.86867 2.79069 3.56799 2.79069H6.10044V2.79069ZM12.4316 4.09309H3.56799V4.7443H12.4316V4.09309ZM4.92348 6.04671L5.35843 12.603V12.603C5.38108 12.9448 5.65726 13.2101 5.99028 13.2099H10.022V13.2099C10.3554 13.21 10.6318 12.944 10.6538 12.6017L11.078 6.04671H4.92412H4.92348ZM6.73356 6.69791V6.69791C7.08322 6.69791 7.36667 6.98946 7.36667 7.34911V11.9075C7.36667 12.2672 7.08322 12.5587 6.73356 12.5587C6.3839 12.5587 6.10044 12.2672 6.10044 11.9075V7.34911V7.34911C6.10044 6.98946 6.3839 6.69791 6.73356 6.69791V6.69791ZM9.26602 6.69791V6.69791C9.61568 6.69791 9.89913 6.98946 9.89913 7.34911V11.9075C9.89913 12.2672 9.61568 12.5587 9.26602 12.5587C8.91636 12.5587 8.6329 12.2672 8.6329 11.9075V7.34911V7.34911C8.6329 6.98946 8.91636 6.69791 9.26602 6.69791V6.69791Z" fill="#FF0000"/>
</svg>
