<svg width="18" height="18" viewBox="0 0 18 18" fill="none" xmlns="http://www.w3.org/2000/svg">
<path fill-rule="evenodd" clip-rule="evenodd" d="M9.19587 1.5C5.16837 1.5 1.89237 4.776 1.89237 8.8035C1.89237 10.7037 2.62158 12.4367 3.81489 13.7374L1.46682 16.0805C1.24707 16.3003 1.24632 16.6558 1.46607 16.8755C1.57557 16.9865 1.72032 17.0413 1.86432 17.0413C2.00757 17.0413 2.15157 16.9865 2.26182 16.877L4.63823 14.5073C5.88832 15.5084 7.47336 16.1078 9.19587 16.1078C13.2234 16.1078 16.5001 12.831 16.5001 8.8035C16.5001 4.776 13.2234 1.5 9.19587 1.5ZM9.19587 2.625C12.6031 2.625 15.3751 5.39625 15.3751 8.8035C15.3751 12.2108 12.6031 14.9828 9.19587 14.9828C5.78937 14.9828 3.01737 12.2108 3.01737 8.8035C3.01737 5.39625 5.78937 2.625 9.19587 2.625Z" fill="#9CB4CC"/>
</svg>
