<svg width="20" height="20" viewBox="0 0 20 20" fill="none" xmlns="http://www.w3.org/2000/svg">
<path d="M15.3335 1.99992C13.8629 1.99992 12.6669 3.19593 12.6669 4.6666C12.6669 6.13727 13.8629 7.33328 15.3335 7.33328C16.8042 7.33328 18.0002 6.1373 18.0002 4.6666C18.0002 3.1959 16.8042 1.99992 15.3335 1.99992ZM15.3335 6.66662C14.2309 6.66662 13.3335 5.76927 13.3335 4.6666C13.3335 3.56394 14.2309 2.66659 15.3335 2.66659C16.4362 2.66659 17.3336 3.56394 17.3336 4.6666C17.3336 5.76927 16.4362 6.66662 15.3335 6.66662Z" fill="#474747" stroke="#474747" stroke-width="0.7"/>
<path d="M15.3335 12.6666C13.8629 12.6666 12.6669 13.8626 12.6669 15.3333C12.6669 16.804 13.8628 18 15.3335 18C16.8042 18 18.0002 16.804 18.0002 15.3333C18.0002 13.8627 16.8042 12.6666 15.3335 12.6666ZM15.3335 17.3333C14.2309 17.3333 13.3335 16.436 13.3335 15.3333C13.3335 14.2307 14.2309 13.3333 15.3335 13.3333C16.4362 13.3333 17.3336 14.2307 17.3336 15.3333C17.3336 16.436 16.4362 17.3333 15.3335 17.3333Z" fill="#474747" stroke="#474747" stroke-width="0.7"/>
<path d="M4.66668 7.33337C3.19601 7.33337 2 8.52938 2 10C2 11.4707 3.19601 12.6667 4.66668 12.6667C6.13735 12.6667 7.33336 11.4707 7.33336 10C7.33336 8.52938 6.13738 7.33337 4.66668 7.33337ZM4.66668 12.0001C3.56401 12.0001 2.66666 11.1027 2.66666 10C2.66666 8.89738 3.56401 8.00003 4.66668 8.00003C5.76934 8.00003 6.66669 8.89738 6.66669 10C6.66669 11.1027 5.76937 12.0001 4.66668 12.0001Z" fill="#474747" stroke="#474747" stroke-width="0.7"/>
<path d="M13.5448 5.56202C13.4615 5.39668 13.2628 5.33136 13.0975 5.41268L6.60543 8.6587C6.44077 8.74136 6.37408 8.94136 6.45608 9.10605C6.51474 9.22271 6.63209 9.29005 6.75409 9.29005C6.80409 9.29005 6.85474 9.27805 6.90343 9.2554L13.3955 6.00937C13.5601 5.92668 13.6268 5.72668 13.5448 5.56202Z" fill="#474747" stroke="#474747" stroke-width="0.7"/>
<path d="M13.3947 13.9914L6.9027 10.7453C6.7387 10.6653 6.53805 10.7293 6.45536 10.8947C6.37336 11.0593 6.44001 11.2593 6.6047 11.342L13.0967 14.5881C13.1454 14.6121 13.1961 14.6234 13.2461 14.6234C13.3681 14.6234 13.4861 14.5554 13.5441 14.4387C13.6261 14.274 13.5594 14.074 13.3947 13.9914Z" fill="#474747" stroke="#474747" stroke-width="0.7"/>
</svg>
