<svg width="24" height="24" viewBox="0 0 24 24" fill="none" xmlns="http://www.w3.org/2000/svg">
<path fill-rule="evenodd" clip-rule="evenodd" d="M12.0029 4.00051C16.1389 4.00351 19.8529 6.90251 21.9389 11.7565C22.0209 11.9455 22.0209 12.1595 21.9389 12.3485C19.8539 17.2035 16.1389 20.1025 12.0029 20.1055H11.9969C7.86087 20.1025 4.14687 17.2035 2.06087 12.3485C1.97987 12.1595 1.97987 11.9455 2.06087 11.7565C4.14687 6.90251 7.86187 4.00351 11.9969 4.00051H12.0029ZM11.9999 5.50051C8.56387 5.50151 5.42987 7.94451 3.56987 12.0525C5.42987 16.1615 8.56287 18.6045 11.9999 18.6055C15.4369 18.6045 18.5699 16.1615 20.4299 12.0525C18.5699 7.94451 15.4369 5.50151 11.9999 5.50051ZM11.9996 8.14131C14.1566 8.14131 15.9116 9.89631 15.9116 12.0533C15.9116 14.2093 14.1566 15.9633 11.9996 15.9633C9.84257 15.9633 8.08857 14.2093 8.08857 12.0533C8.08857 9.89631 9.84257 8.14131 11.9996 8.14131ZM11.9996 9.64131C10.6696 9.64131 9.58857 10.7233 9.58857 12.0533C9.58857 13.3823 10.6696 14.4633 11.9996 14.4633C13.3296 14.4633 14.4116 13.3823 14.4116 12.0533C14.4116 10.7233 13.3296 9.64131 11.9996 9.64131Z" fill="#474747"/>
</svg>
