<svg width="24" height="24" viewBox="0 0 24 24" fill="none" xmlns="http://www.w3.org/2000/svg">
<path d="M22.7784 11.4083L22.0527 10.7156C21.9847 10.6506 21.8924 10.6141 21.7962 10.6141H20.7076C20.5072 10.6141 20.3447 10.7692 20.3447 10.9605V12.6923H19.619V10.2677C19.619 10.0764 19.4566 9.92136 19.2562 9.92136H16.9103L15.5677 7.99731C15.5002 7.90068 15.3864 7.84283 15.2647 7.84318H13.0876V7.15045H15.6276C15.828 7.15045 15.9905 6.99537 15.9905 6.80409V5.41863C15.9905 5.22735 15.828 5.07227 15.6276 5.07227H8.37044C8.17005 5.07227 8.00758 5.22735 8.00758 5.41863V6.80409C8.00758 6.99537 8.17005 7.15045 8.37044 7.15045H10.9104V7.84318H8.7333C8.61201 7.84318 8.49871 7.90098 8.4314 7.99731L7.08773 9.92136H5.10472C4.90433 9.92136 4.74186 10.0764 4.74186 10.2677V12.3459H4.01614V10.2677C4.01614 10.0764 3.85367 9.92136 3.65329 9.92136H2.20185C2.08057 9.92136 1.96727 9.97916 1.89996 10.0755L1.17424 11.1146C1.1346 11.1716 1.11342 11.2384 1.11328 11.3068V12.3459C1.11342 12.4143 1.1346 12.4812 1.17424 12.5381L1.839 13.4889V16.5023C1.839 16.6936 2.00147 16.8486 2.20185 16.8486H3.65329C3.85367 16.8486 4.01614 16.6936 4.01614 16.5023V14.4241H4.74186V16.5023C4.74186 16.6936 4.90433 16.8486 5.10472 16.8486H7.08773L8.43031 18.7727C8.49785 18.8693 8.6116 18.9272 8.7333 18.9268H19.2562C19.4566 18.9268 19.619 18.7717 19.619 18.5805V15.4632H20.3447V17.8877C20.3447 18.079 20.5072 18.2341 20.7076 18.2341H21.7962C21.8924 18.2341 21.9847 18.1976 22.0527 18.1326L22.7784 17.4399C22.8465 17.3749 22.8847 17.2869 22.8847 17.195V11.6532C22.8847 11.5613 22.8465 11.4732 22.7784 11.4083ZM3.29043 16.1559H2.56471V13.385C2.56458 13.3166 2.54339 13.2498 2.50375 13.1928L1.839 12.242V11.4107L2.39598 10.6141H3.29043V16.1559ZM4.74186 13.7314H4.01614V13.0386H4.74186V13.7314ZM8.7333 6.45772V5.76499H15.2647V6.45772H8.7333ZM12.3619 7.15045V7.84318H11.6362V7.15045H12.3619ZM17.4419 18.2341H8.92742L7.58485 16.3101C7.51731 16.2134 7.40356 16.1556 7.28186 16.1559H5.46758V10.6141H7.28186C7.40315 10.6141 7.51645 10.5563 7.58376 10.46L8.92742 8.53591H15.0706L16.4132 10.46C16.4807 10.5566 16.5945 10.6144 16.7162 10.6141H17.4419V18.2341ZM18.8933 18.2341H18.1676V10.6141H18.8933V18.2341ZM20.3447 14.7705H19.619V13.385H20.3447V14.7705ZM22.159 17.0516L21.646 17.5414H21.0705V11.3068H21.646L22.159 11.7966V17.0516Z" fill="#333333"/>
<path d="M15.1693 12.8045C15.1006 12.733 15.0035 12.6923 14.9019 12.6923H13.1772L13.8046 9.99652C13.848 9.80979 13.7247 9.62478 13.5291 9.58326C13.4134 9.55871 13.2925 9.58963 13.2051 9.66609L8.85083 13.4761C8.70315 13.6054 8.69322 13.8245 8.82865 13.9655C8.89741 14.037 8.99443 14.0777 9.09612 14.0777H10.8208L10.1934 16.7735C10.15 16.9602 10.2733 17.1452 10.4689 17.1867C10.5846 17.2113 10.7055 17.1804 10.7928 17.1039L15.1471 13.2939C15.2948 13.1646 15.3048 12.9455 15.1693 12.8045ZM11.1517 15.8501L11.6274 13.8065C11.6709 13.6198 11.5476 13.4348 11.352 13.3933C11.3261 13.3878 11.2998 13.385 11.2733 13.385H10.029L12.8463 10.9199L12.3706 12.9635C12.3271 13.1502 12.4504 13.3353 12.646 13.3767C12.6719 13.3822 12.6982 13.385 12.7247 13.385H13.9689L11.1517 15.8501Z" fill="#333333"/>
<path d="M6.91906 13.0551C6.91906 12.8547 6.75661 12.6923 6.5562 12.6923C6.3558 12.6923 6.19335 12.8547 6.19335 13.0551V15.1003C6.19335 15.3007 6.3558 15.4632 6.5562 15.4632C6.75661 15.4632 6.91906 15.3007 6.91906 15.1003V13.0551Z" fill="#333333"/>
<path d="M6.91906 11.6532C6.91906 11.4619 6.76399 11.3068 6.5727 11.3068H6.53971C6.34842 11.3068 6.19335 11.4619 6.19335 11.6532C6.19335 11.8444 6.34842 11.9995 6.53971 11.9995H6.5727C6.76399 11.9995 6.91906 11.8444 6.91906 11.6532Z" fill="#333333"/>
</svg>
