<svg width="24" height="24" viewBox="0 0 24 24" fill="none" xmlns="http://www.w3.org/2000/svg">
<path d="M3.28906 15.8411H3.62719L3.77441 14.3536C3.79035 14.1926 3.93379 14.0748 4.0948 14.0909C4.25582 14.1068 4.37344 14.2503 4.3575 14.4113L4.21601 15.8411H5.67813L6.30035 4.38281H5.34988L4.48113 13.1613C4.46523 13.3223 4.32223 13.4397 4.16074 13.424C3.99973 13.4081 3.88211 13.2646 3.89805 13.1036L4.76352 4.35824C4.58699 4.29766 4.45957 4.13039 4.45957 3.93359V2.44922C4.45957 2.20152 4.66109 2 4.90879 2H15.6508C15.8126 2 15.9438 2.13113 15.9438 2.29297C15.9438 2.4548 15.8126 2.58594 15.6508 2.58594H5.04547V3.79688H18.9545V2.58594H16.8968C16.735 2.58594 16.6039 2.4548 16.6039 2.29297C16.6039 2.13113 16.735 2 16.8968 2H19.0912C19.3389 2 19.5404 2.20152 19.5404 2.44922V3.93359C19.5404 4.13039 19.413 4.29766 19.2365 4.35824L20.3729 15.8411H20.7109C20.9586 15.8411 21.1602 16.0427 21.1602 16.2904V17.7747C21.1602 18.0224 20.9586 18.2239 20.7109 18.2239H19.5404V19.01C19.5404 19.5674 19.087 20.0209 18.5296 20.0209H17.003C16.8412 20.0209 16.71 19.8897 16.71 19.7279C16.71 19.5661 16.8412 19.4349 17.003 19.4349H18.5296C18.7639 19.4349 18.9545 19.2443 18.9545 19.01V18.224H5.04551V19.01C5.04551 19.2443 5.23609 19.4349 5.47039 19.4349H15.747C15.9088 19.4349 16.04 19.5661 16.04 19.7279C16.04 19.8897 15.9088 20.0209 15.747 20.0209H14.7019V21.707C14.7019 21.8689 14.5707 22 14.4089 22H9.59109C9.4293 22 9.29813 21.8689 9.29813 21.707V20.0209H5.47039C4.91301 20.0209 4.45957 19.5674 4.45957 19.01V18.2239H3.28906C3.04137 18.2239 2.83984 18.0224 2.83984 17.7747V16.2904C2.83984 16.0427 3.04137 15.8411 3.28906 15.8411ZM9.88406 21.4141H14.1159V20.0209H9.88402L9.88406 21.4141ZM15.8973 4.38281L16.3122 15.8411H17.7352L17.1129 4.38281H15.8973ZM9.6975 15.8411L9.90492 4.38281H8.68898L8.27414 15.8411H9.6975ZM10.2835 15.8411H11.707V4.38281H10.4909L10.2835 15.8411ZM12.293 15.8411H13.7165L13.5091 4.38281H12.293V15.8411ZM14.3025 15.8411H15.7258L15.311 4.38281H14.0951L14.3025 15.8411ZM6.26484 15.8411H7.68781L8.10266 4.38281H6.88711L6.26484 15.8411ZM18.6501 4.38281H17.6996L18.3219 15.8411H19.784L18.6501 4.38281ZM3.42578 17.638H20.5742V16.4271H20.2134C20.1805 16.4396 20.1454 16.4466 20.1094 16.4466H3.89062C3.85461 16.4466 3.81949 16.4396 3.78656 16.4271H3.42578V17.638Z" fill="#333333"/>
<path d="M4.0948 14.0909C3.93379 14.0748 3.79035 14.1926 3.77441 14.3536L3.89805 13.1036C3.88211 13.2646 3.99973 13.4081 4.16074 13.424C4.32223 13.4397 4.46523 13.3223 4.48113 13.1613L4.3575 14.4113C4.37344 14.2503 4.25582 14.1068 4.0948 14.0909Z" fill="#333333"/>
<path d="M16.71 19.7279C16.71 19.8897 16.8412 20.0209 17.003 20.0209H15.747C15.9088 20.0209 16.04 19.8897 16.04 19.7279C16.04 19.5661 15.9088 19.4349 15.747 19.4349H17.003C16.8412 19.4349 16.71 19.5661 16.71 19.7279Z" fill="#333333"/>
<path d="M15.9438 2.29297C15.9438 2.13113 15.8126 2 15.6508 2H16.8968C16.735 2 16.6039 2.13113 16.6039 2.29297C16.6039 2.4548 16.735 2.58594 16.8968 2.58594H15.6508C15.8126 2.58594 15.9438 2.4548 15.9438 2.29297Z" fill="#333333"/>
</svg>
