<svg width="24" height="24" viewBox="0 0 24 24" fill="none" xmlns="http://www.w3.org/2000/svg">
<path d="M20.0236 1.46973H8.57798C8.44549 1.46909 8.32167 1.53541 8.24883 1.64606L3.64864 8.67565C3.60716 8.73982 3.58536 8.81476 3.58595 8.89117V14.9882C3.58595 15.2046 3.7614 15.38 3.97779 15.38C5.87821 15.4662 7.35544 16.0893 8.36247 17.2295C10.0983 19.1887 9.89064 22.0805 9.88672 22.1079C9.86938 22.3236 10.0302 22.5125 10.2459 22.5298C10.2568 22.5307 10.2677 22.5311 10.2786 22.5311H20.0236C20.24 22.5311 20.4154 22.3556 20.4154 22.1392V1.86157C20.4154 1.64518 20.24 1.46973 20.0236 1.46973ZM19.6318 21.7474H10.6626C10.6626 20.8031 10.4862 18.4795 8.93455 16.7162C7.84916 15.4819 6.31315 14.7805 4.36571 14.6199V9.00872L8.78957 2.25341H19.6318V21.7474Z" fill="#333333"/>
<path d="M18.4679 2.7981H9.45563C9.32314 2.79746 9.19932 2.86378 9.12649 2.97442L5.49414 8.5307C5.41342 8.65124 5.40587 8.80651 5.47454 8.9343C5.54243 9.06179 5.67492 9.14158 5.81936 9.14197H18.4679C18.6843 9.14197 18.8598 8.96653 18.8598 8.75013V3.18994C18.8598 2.97354 18.6843 2.7981 18.4679 2.7981ZM18.0761 8.35437H6.54427L9.67898 3.58177H18.0761V8.35437Z" fill="#333333"/>
<path d="M18.2681 10.8033H16.3089C16.0925 10.8033 15.917 10.9788 15.917 11.1952C15.917 11.4116 16.0925 11.587 16.3089 11.587H18.2681C18.4845 11.587 18.6599 11.4116 18.6599 11.1952C18.6599 10.9788 18.4845 10.8033 18.2681 10.8033Z" fill="#333333"/>
</svg>
