<svg width="24" height="24" viewBox="0 0 24 24" fill="none" xmlns="http://www.w3.org/2000/svg">
<path d="M15.9559 22.431L15.9559 18.8342L16.6753 18.8342L16.6753 20.6326C16.6753 20.8313 16.8363 20.9923 17.035 20.9923L19.1931 20.9923C19.3917 20.9923 19.5527 20.8313 19.5527 20.6326L19.5527 16.3165C19.5527 16.1178 19.3917 15.9568 19.1931 15.9568L17.035 15.9568C16.8363 15.9568 16.6753 16.1178 16.6753 16.3165L16.6753 18.1149L15.9559 18.1149L15.9559 12.0003C15.9559 11.9805 15.9542 11.9609 15.9509 11.9413L15.2366 7.65433L15.2366 6.60514L15.5963 6.60514C15.6917 6.60514 15.7831 6.5672 15.8506 6.49976L16.6753 5.67501L16.6753 6.96482C16.6753 7.16346 16.8363 7.3245 17.035 7.3245L19.1931 7.3245C19.3917 7.3245 19.5527 7.16346 19.5527 6.96482L19.5527 2.64868C19.5527 2.45004 19.3917 2.289 19.1931 2.289L17.035 2.289C16.8363 2.289 16.6753 2.45004 16.6753 2.64868L16.6753 4.44707L15.2366 4.44707L15.2366 1.56964C15.2366 1.37101 15.0755 1.20996 14.8769 1.20996L9.12205 1.20996C8.92341 1.20996 8.76237 1.37101 8.76237 1.56964L8.76237 4.44707L7.32365 4.44707L7.32365 2.64868C7.32365 2.45004 7.16261 2.289 6.96397 2.289L4.8059 2.289C4.60727 2.289 4.44622 2.45004 4.44622 2.64868L4.44622 6.96482C4.44622 7.16345 4.60727 7.3245 4.8059 7.3245L6.96397 7.3245C7.16261 7.3245 7.32365 7.16345 7.32365 6.96482L7.32365 5.67501L8.1484 6.49976C8.21584 6.5672 8.30728 6.60514 8.40269 6.60514L8.76237 6.60514L8.76237 7.65433L8.04804 11.9413C8.04476 11.9609 8.04305 11.9805 8.04301 12.0003L8.04301 18.1149L7.32365 18.1149L7.32365 16.3165C7.32365 16.1178 7.1626 15.9568 6.96397 15.9568L4.8059 15.9568C4.60727 15.9568 4.44622 16.1178 4.44622 16.3165L4.44622 20.6326C4.44622 20.8313 4.60727 20.9923 4.8059 20.9923L6.96397 20.9923C7.1626 20.9923 7.32365 20.8313 7.32365 20.6326L7.32365 18.8342L8.04301 18.8342L8.04301 22.431C8.04301 22.6296 8.20405 22.7907 8.40269 22.7907L15.5963 22.7907C15.7949 22.7907 15.9559 22.6296 15.9559 22.431ZM17.3947 16.6762L18.8334 16.6762L18.8334 20.2729L17.3947 20.2729L17.3947 16.6762ZM15.2366 14.8778L15.2366 18.1149L13.3871 18.1149C13.2562 17.6112 12.8628 17.2179 12.3592 17.0869L12.3592 14.8778L15.2366 14.8778ZM12.3592 9.48257L12.3592 9.84225L11.6398 9.84225L11.6398 9.48257L12.3592 9.48257ZM15.4474 5.88579L15.2366 5.88579L15.2366 5.16643L16.1667 5.16643L15.4474 5.88579ZM14.5172 5.88579L13.7979 5.88579L13.7979 5.16643L14.5172 5.16643L14.5172 5.88579ZM17.3947 3.00836L18.8334 3.00836L18.8334 6.60514L17.3947 6.60514L17.3947 3.00836ZM9.48173 1.92932L14.5172 1.92932L14.5172 4.44707L13.7979 4.44707L13.7979 3.36803C13.7979 3.1694 13.6368 3.00836 13.4382 3.00835L10.5608 3.00835C10.3621 3.00835 10.2011 3.1694 10.2011 3.36803L10.2011 4.44707L9.48173 4.44707L9.48173 1.92932ZM6.60429 6.60514L5.16558 6.60514L5.16558 3.00835L6.60429 3.00835L6.60429 6.60514ZM8.5516 5.88579L7.83224 5.16643L8.76237 5.16643L8.76237 5.88579L8.5516 5.88579ZM9.48173 5.88579L9.48173 5.16643L10.2011 5.16643L10.2011 5.88579L9.48173 5.88579ZM10.9204 3.72771L13.0785 3.72771L13.0785 7.3245L10.9204 7.3245L10.9204 3.72771ZM9.30692 8.76322L9.47669 7.74317C9.47997 7.72365 9.48168 7.70396 9.48173 7.68418L9.48173 6.60514L10.2011 6.60514L10.2011 7.68418C10.2011 7.88281 10.3621 8.04386 10.5608 8.04386L10.9204 8.04386L10.9204 8.76322L9.30692 8.76322ZM11.6398 8.76322L11.6398 8.04386L12.3592 8.04386L12.3592 8.76322L11.6398 8.76322ZM13.0785 8.76322L13.0785 8.04386L13.4382 8.04386C13.6368 8.04386 13.7979 7.88281 13.7979 7.68418L13.7979 6.60514L14.5172 6.60514L14.5172 7.68418C14.5173 7.70396 14.519 7.72366 14.5223 7.74317L14.692 8.76322L13.0785 8.76322ZM8.76237 14.1584L8.76237 12.0302L9.18679 9.48257L10.9204 9.48257L10.9204 10.2019C10.9204 10.4006 11.0815 10.5616 11.2801 10.5616L11.6398 10.5616L11.6398 14.1584L8.76237 14.1584ZM12.3592 14.1584L12.3592 10.5616L12.7188 10.5616C12.9175 10.5616 13.0785 10.4006 13.0785 10.2019L13.0785 9.48257L14.8122 9.48257L15.2366 12.0302L15.2366 14.1584L12.3592 14.1584ZM8.76237 14.8778L11.6398 14.8778L11.6398 17.0869C11.1362 17.2179 10.7428 17.6112 10.6118 18.1149L8.76237 18.1149L8.76237 14.8778ZM6.60429 20.2729L5.16558 20.2729L5.16558 16.6762L6.60429 16.6762L6.60429 20.2729ZM11.2801 18.4745C11.2801 18.0772 11.6022 17.7552 11.9995 17.7552C12.3968 17.7552 12.7188 18.0772 12.7188 18.4745C12.7188 18.8719 12.3968 19.1939 11.9995 19.1939C11.6022 19.1939 11.2801 18.8719 11.2801 18.4745ZM8.76237 22.0713L8.76237 18.8342L10.6118 18.8342C10.8069 19.6006 11.5863 20.0637 12.3526 19.8687C12.8609 19.7394 13.2577 19.3425 13.3871 18.8342L15.2366 18.8342L15.2366 22.0713L8.76237 22.0713Z" fill="#333333"/>
</svg>
