<svg width="24" height="24" viewBox="0 0 24 24" fill="none" xmlns="http://www.w3.org/2000/svg">
<path d="M12.3499 6.36893C9.23986 6.36893 6.71868 8.89012 6.71868 12.0001C6.72237 15.1086 9.24136 17.6276 12.3499 17.6313C15.4599 17.6313 17.981 15.1101 17.981 12.0001C17.981 8.89012 15.4599 6.36893 12.3499 6.36893ZM12.3499 16.9274C9.62859 16.9274 7.42257 14.7214 7.42257 12.0001C7.42548 9.28008 9.62982 7.07574 12.3499 7.07283C15.0711 7.07283 17.2771 9.27885 17.2771 12.0001C17.2771 14.7214 15.0711 16.9274 12.3499 16.9274Z" fill="#333333"/>
<path d="M15.5175 10.9442C14.9343 10.9442 14.4616 11.4169 14.4616 12.0001C14.4616 12.5832 14.9343 13.0559 15.5175 13.0559C16.1006 13.0559 16.5733 12.5832 16.5733 12.0001C16.5733 11.4169 16.1006 10.9442 15.5175 10.9442ZM15.5175 12.352C15.3231 12.352 15.1655 12.1944 15.1655 12.0001C15.1655 11.8057 15.3231 11.6481 15.5175 11.6481C15.7118 11.6481 15.8694 11.8057 15.8694 12.0001C15.8694 12.1944 15.7118 12.352 15.5175 12.352Z" fill="#333333"/>
<path d="M9.18237 10.9442C8.59923 10.9442 8.12652 11.4169 8.12652 12.0001C8.12652 12.5832 8.59923 13.0559 9.18237 13.0559C9.7655 13.0559 10.2382 12.5832 10.2382 12.0001C10.2382 11.4169 9.7655 10.9442 9.18237 10.9442ZM9.18237 12.352C8.988 12.352 8.83042 12.1944 8.83042 12.0001C8.83042 11.8057 8.988 11.6481 9.18237 11.6481C9.37673 11.6481 9.53432 11.8057 9.53432 12.0001C9.53432 12.1944 9.37673 12.352 9.18237 12.352Z" fill="#333333"/>
<path d="M12.3499 14.1118C11.7668 14.1118 11.2941 14.5845 11.2941 15.1676C11.2941 15.7507 11.7668 16.2235 12.3499 16.2235C12.933 16.2235 13.4058 15.7507 13.4058 15.1676C13.4058 14.5845 12.933 14.1118 12.3499 14.1118ZM12.3499 15.5196C12.1555 15.5196 11.998 15.362 11.998 15.1676C11.998 14.9732 12.1555 14.8157 12.3499 14.8157C12.5443 14.8157 12.7019 14.9732 12.7019 15.1676C12.7019 15.362 12.5443 15.5196 12.3499 15.5196Z" fill="#333333"/>
<path d="M12.3499 7.77678C11.7668 7.77678 11.2941 8.24949 11.2941 8.83262C11.2941 9.41576 11.7668 9.88847 12.3499 9.88847C12.933 9.88847 13.4058 9.41576 13.4058 8.83262C13.4058 8.24949 12.933 7.77678 12.3499 7.77678ZM12.3499 9.18457C12.1555 9.18457 11.998 9.02699 11.998 8.83262C11.998 8.63826 12.1555 8.48068 12.3499 8.48068C12.5443 8.48068 12.7019 8.63826 12.7019 8.83262C12.7019 9.02699 12.5443 9.18457 12.3499 9.18457Z" fill="#333333"/>
<path d="M19.1248 4.839C17.2938 3.10812 14.8695 2.14426 12.3499 2.14554C9.83202 2.13938 7.40872 3.10407 5.584 4.839C5.1599 4.642 4.65657 4.75115 4.35217 5.10613C0.937296 9.06767 0.937296 14.9322 4.35217 18.8937C4.54377 19.1149 4.81855 19.2467 5.11098 19.2577H5.14969C5.30002 19.2566 5.44836 19.2238 5.58505 19.1612C9.54004 22.9001 15.7772 22.725 19.516 18.77C23.2549 14.815 23.0798 8.57789 19.1248 4.839ZM5.40204 18.452C5.3324 18.5228 5.23627 18.5611 5.13702 18.5576C5.03997 18.5549 4.9486 18.5113 4.88538 18.4376C4.81323 18.3542 4.75058 18.2645 4.6816 18.1789L5.13258 17.7277C5.27013 17.5901 5.2701 17.367 5.13251 17.2294V17.2294C4.99515 17.0921 4.77251 17.0918 4.6348 17.2288L4.25328 17.6084C1.90934 14.2371 1.90934 9.76352 4.25328 6.39216H4.25504L4.6369 6.77402C4.77424 6.91136 4.99698 6.91112 5.13403 6.77349V6.77349C5.27066 6.63627 5.27043 6.41435 5.1335 6.27742L4.68125 5.82517C4.75164 5.73929 4.81323 5.64919 4.88538 5.56578C4.94855 5.49231 5.03979 5.44884 5.13667 5.44612H5.15039C5.24494 5.44612 5.33552 5.48417 5.40169 5.5517L6.89958 7.0496C7.02738 7.18162 7.03394 7.38914 6.91472 7.52895C4.77618 10.1275 4.77618 13.8763 6.91472 16.4748C7.0342 16.6145 7.02782 16.8221 6.89993 16.9541L5.40204 18.452ZM12.3477 21.1486C10.0438 21.1481 7.8249 20.2785 6.13409 18.7135L7.39759 17.45C7.78364 17.0626 7.8099 16.4445 7.45813 16.0257C5.53349 13.687 5.53349 10.3132 7.45813 7.97452C7.80981 7.55565 7.78337 6.93754 7.39724 6.55018L6.13374 5.28668C9.84245 1.85364 15.6321 2.07708 19.0651 5.78584C20.6304 7.47677 21.5001 9.69595 21.5005 12.0001C21.4994 17.0539 17.4015 21.1498 12.3477 21.1486Z" fill="#333333"/>
<path d="M17.329 7.02161C17.1915 6.88421 16.9687 6.88429 16.8313 7.02179V7.02179C16.6939 7.15929 16.694 7.38215 16.8315 7.51956V7.51956C16.969 7.65696 17.1918 7.65688 17.3292 7.51938V7.51938C17.4666 7.38188 17.4666 7.15902 17.329 7.02161V7.02161Z" fill="#333333"/>
<path d="M18.8202 6.52487C18.6827 6.38743 18.4599 6.38743 18.3224 6.52487V6.52487C18.185 6.66231 18.185 6.88515 18.3224 7.02259V7.02259C18.4599 7.16004 18.6827 7.16004 18.8202 7.0226V7.0226C18.9576 6.88515 18.9576 6.66231 18.8202 6.52487V6.52487Z" fill="#333333"/>
<path d="M17.3312 16.4799C17.1938 16.3424 16.971 16.3424 16.8335 16.4798V16.4798C16.696 16.6172 16.6959 16.84 16.8333 16.9775V16.9775C16.9707 17.115 17.1935 17.1151 17.331 16.9777V16.9777C17.4685 16.8403 17.4686 16.6174 17.3312 16.4799V16.4799Z" fill="#333333"/>
<path d="M17.8262 17.9712C17.6888 17.8338 17.4659 17.8338 17.3285 17.9712V17.9712C17.191 18.1086 17.191 18.3315 17.3285 18.4689V18.4689C17.4659 18.6064 17.6888 18.6064 17.8262 18.4689V18.4689C17.9636 18.3315 17.9636 18.1086 17.8262 17.9712V17.9712Z" fill="#333333"/>
<path d="M19.3888 12.0001C19.3888 11.8057 19.2313 11.6481 19.0369 11.6481V11.6481C18.8425 11.6481 18.6849 11.8057 18.6849 12.0001V12.0001C18.6849 12.1945 18.8425 12.352 19.0369 12.352V12.352C19.2313 12.352 19.3888 12.1945 19.3888 12.0001V12.0001Z" fill="#333333"/>
<path d="M20.7967 12.704C20.7967 12.5096 20.6391 12.3521 20.4447 12.3521V12.3521C20.2503 12.3521 20.0928 12.5096 20.0928 12.704V12.704C20.0928 12.8984 20.2503 13.056 20.4447 13.056V13.056C20.6391 13.056 20.7967 12.8984 20.7967 12.704V12.704Z" fill="#333333"/>
<path d="M12.7019 5.31314C12.7019 5.11877 12.5443 4.96119 12.3499 4.96119V4.96119C12.1556 4.96119 11.998 5.11877 11.998 5.31314V5.31314C11.998 5.50752 12.1556 5.66509 12.3499 5.66509V5.66509C12.5443 5.66509 12.7019 5.50752 12.7019 5.31314V5.31314Z" fill="#333333"/>
<path d="M12.7019 18.6871C12.7019 18.4928 12.5443 18.3352 12.3499 18.3352V18.3352C12.1556 18.3352 11.998 18.4928 11.998 18.6871V18.6871C11.998 18.8815 12.1556 19.0391 12.3499 19.0391V19.0391C12.5443 19.0391 12.7019 18.8815 12.7019 18.6871V18.6871Z" fill="#333333"/>
<path d="M13.4058 3.9053C13.4058 3.71092 13.2482 3.55335 13.0539 3.55335V3.55335C12.8595 3.55335 12.7019 3.71092 12.7019 3.9053V3.9053C12.7019 4.09968 12.8595 4.25725 13.0539 4.25725V4.25725C13.2482 4.25725 13.4058 4.09968 13.4058 3.9053V3.9053Z" fill="#333333"/>
<path d="M11.998 20.095C11.998 19.9006 11.8404 19.743 11.646 19.743V19.743C11.4516 19.743 11.2941 19.9006 11.2941 20.095V20.095C11.2941 20.2894 11.4516 20.4469 11.646 20.4469V20.4469C11.8404 20.4469 11.998 20.2894 11.998 20.095V20.095Z" fill="#333333"/>
<path d="M12.35 10.5923C11.5725 10.5923 10.9422 11.2226 10.9422 12.0001C10.9422 12.7776 11.5725 13.4079 12.35 13.4079C13.1275 13.4079 13.7578 12.7776 13.7578 12.0001C13.7578 11.2226 13.1275 10.5923 12.35 10.5923ZM12.35 12.704C11.9612 12.704 11.6461 12.3888 11.6461 12.0001C11.6461 11.6113 11.9612 11.2962 12.35 11.2962C12.7388 11.2962 13.0539 11.6113 13.0539 12.0001C13.0539 12.3888 12.7387 12.704 12.35 12.704Z" fill="#333333"/>
<path d="M5.05187 8.51701C5.13657 8.34163 5.07291 8.12797 4.90119 8.03608V8.03608C4.73005 7.94449 4.51632 8.00853 4.4313 8.18304C3.25774 10.5918 3.25774 13.4084 4.4313 15.8172C4.51632 15.9917 4.73005 16.0558 4.90119 15.9642V15.9642C5.07291 15.8723 5.13657 15.6586 5.05187 15.4832C3.9894 13.2834 3.9894 10.7169 5.05187 8.51701Z" fill="#333333"/>
<path d="M6.12802 7.27157C5.99058 7.13413 5.76774 7.13413 5.6303 7.27157V7.27157C5.49285 7.40902 5.49285 7.63186 5.6303 7.7693V7.7693C5.76774 7.90675 5.99058 7.90675 6.12802 7.7693V7.7693C6.26547 7.63186 6.26547 7.40902 6.12802 7.27157V7.27157Z" fill="#333333"/>
<path d="M6.12802 16.2308C5.99058 16.0934 5.76774 16.0934 5.6303 16.2308V16.2308C5.49285 16.3683 5.49285 16.5911 5.6303 16.7285V16.7285C5.76774 16.866 5.99058 16.866 6.12802 16.7285V16.7285C6.26547 16.5911 6.26547 16.3683 6.12802 16.2308V16.2308Z" fill="#333333"/>
</svg>
