<svg width="24" height="24" viewBox="0 0 24 24" fill="none" xmlns="http://www.w3.org/2000/svg">
<g clip-path="url(#clip0_853_12327)">
<path d="M21.8344 1.46289L21.4531 2.16602L22.1562 2.54729L22.5375 1.84417L21.8344 1.46289Z" fill="#333333"/>
<path d="M21.08 8.80065L16.1739 7.50454C15.9603 7.4482 15.7415 7.57567 15.6852 7.78922V7.78927C15.6289 8.00282 15.7563 8.22163 15.9699 8.27796H15.9699L20.8757 9.57407C20.9091 9.58272 20.9435 9.58717 20.9781 9.58727C21.1989 9.58732 21.378 9.40831 21.3781 9.18746C21.3781 9.0058 21.2557 8.84694 21.08 8.80065Z" fill="#333333"/>
<path d="M21.882 7.36037L16.9343 6.09744C16.7203 6.0429 16.5026 6.17218 16.448 6.38618C16.3935 6.60018 16.5228 6.81793 16.7368 6.87247L21.6845 8.135C21.7167 8.14339 21.7499 8.14754 21.7832 8.14739C22.0041 8.14654 22.1824 7.96678 22.1816 7.74593C22.1809 7.56427 22.0578 7.40596 21.882 7.36037Z" fill="#333333"/>
<path d="M15.1475 14.9619H14.3477V15.7617H15.1475V14.9619Z" fill="#333333"/>
<path d="M23.9773 1.70801C23.8162 0.615495 22.7999 -0.13949 21.7074 0.0216746C20.6149 0.182839 19.8599 1.19912 20.021 2.29163C20.0487 2.47909 20.1028 2.66165 20.1819 2.83381L19.7951 3.54205L19.4444 3.3513C19.2505 3.24582 19.0078 3.3174 18.9021 3.51126L18.2471 4.7178L17.6724 4.56423C17.4592 4.50659 17.2396 4.63272 17.1819 4.84597C17.1243 5.05922 17.2504 5.27882 17.4637 5.33646L22.4818 6.69616C22.5157 6.70551 22.5509 6.71021 22.5861 6.71016C22.807 6.71071 22.9865 6.5321 22.987 6.31125C22.9875 6.12984 22.8658 5.97082 22.6905 5.92393L22.2142 5.79516L22.417 5.42124C22.5224 5.22734 22.4509 4.98459 22.257 4.87896L21.9055 4.6882L22.291 3.97796C23.3835 3.81679 24.1385 2.80052 23.9773 1.70801ZM21.4196 5.57881L20.595 5.35486L19.0389 4.93335L19.4124 4.2451L20.1887 4.66661L21.1716 5.20009L21.522 5.39005L21.4196 5.57881ZM21.6887 3.40688L21.2016 4.30469L20.4986 3.92437L20.9861 3.02577C21.054 2.90054 21.0502 2.74868 20.9761 2.62705C20.6289 2.06273 20.8049 1.32374 21.3692 0.976566C21.9336 0.629342 22.6726 0.805403 23.0197 1.36973C23.367 1.93406 23.1909 2.67304 22.6266 3.02022C22.4463 3.13114 22.2399 3.19238 22.0283 3.19773C21.8859 3.20203 21.7566 3.28171 21.6887 3.40688Z" fill="#333333"/>
<path d="M23.5948 12.403H21.1954C20.9745 12.403 20.7955 12.582 20.7955 12.8029V14.0026H18.216L18.7643 12.9924C18.8698 12.7985 18.7982 12.5558 18.6043 12.4502L17.9013 12.0686L18.6799 10.6334L20.0692 11.0129C20.2824 11.0711 20.5023 10.9455 20.5605 10.7323C20.6187 10.5192 20.4931 10.2992 20.28 10.241L15.4142 8.91213C15.2002 8.85764 14.9825 8.98701 14.928 9.20106C14.8749 9.40982 14.9967 9.62317 15.2035 9.68356L16.3016 9.98389L15.7913 10.9233L15.0883 10.5418C14.8944 10.4365 14.652 10.5081 14.5464 10.7017L13.7834 12.1078C13.6779 12.3017 13.7495 12.5445 13.9433 12.6501L14.6464 13.0312L14.452 13.3911C14.3174 13.411 14.1851 13.4445 14.0573 13.4911C13.7661 13.5989 13.5046 13.7742 13.2943 14.0026H10.3977V12.8029C10.3977 12.582 10.2187 12.403 9.99781 12.403H8.79807V9.20366C8.79678 8.09991 7.90227 7.2054 6.79851 7.2041H1.99956C0.895804 7.2054 0.00129972 8.09991 0 9.20366V22.0009C0.00129972 23.1046 0.895804 23.9991 1.99956 24.0004H6.79851C7.90227 23.9991 8.79678 23.1046 8.79807 22.0009V18.8016H9.99781C10.2187 18.8016 10.3977 18.6225 10.3977 18.4017V17.2019H13.9865C14.4751 17.4109 15.028 17.4109 15.5166 17.2019H20.7955V18.4017C20.7955 18.6225 20.9745 18.8016 21.1954 18.8016H23.5948C23.8157 18.8016 23.9948 18.6225 23.9948 18.4017V12.8029C23.9948 12.582 23.8157 12.403 23.5948 12.403ZM1.59965 23.127C1.122 22.9582 0.801925 22.5075 0.799825 22.0009V9.20366C0.801925 8.69707 1.122 8.24637 1.59965 8.07751V23.127ZM3.1993 23.2006H2.39948V8.00393H3.1993V23.2006ZM4.79895 23.2006H3.99913V8.00393H4.79895V23.2006ZM6.3986 23.2006H5.59877V8.00393H6.3986V23.2006ZM7.99825 12.8029V22.0009C7.99615 22.5075 7.67607 22.9582 7.19843 23.127V8.07751C7.67607 8.24637 7.99615 8.69707 7.99825 9.20366V12.8029ZM9.5979 14.4025V18.0017H8.79807V13.2028H9.5979V14.4025ZM10.3977 16.4021V14.8024H12.8288C12.7971 14.9131 12.7753 15.0263 12.7636 15.1408C12.7636 15.1552 12.7596 15.1696 12.758 15.184C12.7484 15.2973 12.7484 15.4113 12.758 15.5247C12.758 15.5423 12.7604 15.5595 12.7624 15.5771C12.7745 15.6877 12.7959 15.7972 12.8264 15.9042C12.8312 15.9218 12.8364 15.9394 12.842 15.957C12.8748 16.0633 12.9164 16.1667 12.9664 16.2661C12.9744 16.2817 12.9832 16.2969 12.9916 16.3129C13.0076 16.3425 13.022 16.3733 13.0395 16.4021H10.3977ZM17.0323 10.3146L17.7985 10.5786L17.1962 11.6871L16.4932 11.3056L17.0323 10.3146ZM15.0583 11.4368L17.8705 12.9628L17.489 13.6655L15.8301 12.7657L15.3802 12.5229L14.6768 12.1398L15.0583 11.4368ZM15.7666 14.7413C16.1115 15.3023 15.9364 16.0368 15.3753 16.3817C15.0307 16.5937 14.602 16.6164 14.2369 16.4421C14.2261 16.4369 14.1881 16.4225 14.1769 16.4185C13.5947 16.1025 13.3788 15.3744 13.6946 14.792C13.7238 14.7404 13.7571 14.6912 13.7942 14.6449C13.931 14.4623 14.1178 14.3233 14.3321 14.245C14.4551 14.2003 14.5844 14.1755 14.7152 14.1714C14.8574 14.1672 14.9867 14.0876 15.0547 13.9626L15.351 13.4159L16.0541 13.7975L15.7566 14.3425C15.6886 14.4678 15.6924 14.6196 15.7666 14.7413ZM19.1958 16.4021H16.4564C16.4736 16.3741 16.49 16.3457 16.5056 16.3165C16.5613 16.2116 16.6074 16.1019 16.6432 15.9886C16.6492 15.969 16.6564 15.9486 16.662 15.9306C16.6932 15.8232 16.7153 15.7134 16.7279 15.6023C16.7303 15.5803 16.7319 15.5583 16.7339 15.5363C16.7437 15.4224 16.7437 15.3078 16.7339 15.194C16.7339 15.184 16.7307 15.1748 16.7299 15.1648C16.7179 15.0547 16.6969 14.9459 16.6672 14.8392C16.664 14.8276 16.6636 14.8152 16.6604 14.8036H19.1958V16.4021ZM20.7955 16.4021H19.9956V14.8024H20.7955V16.4021ZM23.1949 18.0017H21.5953V13.2028H23.1949V18.0017Z" fill="#333333"/>
</g>
<defs>
<clipPath id="clip0_853_12327">
<rect width="24" height="24" fill="white"/>
</clipPath>
</defs>
</svg>
