<svg width="40" height="40" viewBox="0 0 40 40" fill="none" xmlns="http://www.w3.org/2000/svg">
<path d="M27.8443 18.8213C28.4951 19.4684 28.4981 20.5205 27.8511 21.1713C27.8488 21.1735 27.8466 21.1758 27.8443 21.178L20.7727 28.2497C20.1332 28.9118 19.0781 28.9301 18.416 28.2906C17.7539 27.6512 17.7356 26.5961 18.3751 25.934C18.3885 25.9201 18.4021 25.9064 18.416 25.893L22.6427 21.6663H13.3327C12.4122 21.6663 11.666 20.9202 11.666 19.9997C11.666 19.0792 12.4122 18.333 13.3327 18.333H22.6427L18.416 14.1063C17.7539 13.4669 17.7356 12.4118 18.3751 11.7497C19.0145 11.0876 20.0696 11.0693 20.7317 11.7087C20.7456 11.7221 20.7593 11.7358 20.7727 11.7497L27.8443 18.8214V18.8213ZM29.9993 3.33301H9.99935V3.33301C6.31745 3.33301 3.33268 6.31777 3.33268 9.99967V29.9997C3.33268 33.6816 6.31745 36.6663 9.99935 36.6663H29.9993C33.6812 36.6663 36.666 33.6816 36.666 29.9997V9.99967L36.666 9.99968C36.666 6.31778 33.6812 3.33301 29.9993 3.33301L29.9993 3.33301Z" fill="white"/>
</svg>
