<svg width="16" height="14" viewBox="0 0 16 14" fill="none" xmlns="http://www.w3.org/2000/svg">
<path fill-rule="evenodd" clip-rule="evenodd" d="M8.53557 0.580623L10.2726 4.07487C10.3596 4.25112 10.5276 4.37412 10.7226 4.40262L14.6113 4.96437C14.7688 4.98537 14.9106 5.06787 15.0073 5.19387C15.1888 5.43012 15.1611 5.7646 14.9436 5.96785L12.1251 8.69335C11.9818 8.82835 11.9181 9.02635 11.9556 9.2191L12.6306 13.0651C12.6778 13.3839 12.4603 13.6824 12.1416 13.7341C12.0096 13.7543 11.8746 13.7333 11.7546 13.6741L8.29107 11.8584C8.11707 11.7639 7.90858 11.7639 7.73457 11.8584L4.2456 13.6839C3.95385 13.8324 3.59685 13.7221 3.43785 13.4363C3.3771 13.3209 3.3561 13.1896 3.3771 13.0613L4.0521 9.21535C4.08585 9.02335 4.0221 8.8261 3.8826 8.69035L1.0491 5.9656C0.818097 5.7361 0.816597 5.36262 1.04685 5.13162C1.0476 5.13087 1.04835 5.12937 1.0491 5.12862C1.14435 5.04237 1.26135 4.98462 1.3881 4.96212L5.2776 4.40037C5.47185 4.36962 5.6391 4.24812 5.7276 4.07187L7.46307 0.580623C7.53282 0.438873 7.65657 0.330123 7.80657 0.280623C7.95732 0.230373 8.12232 0.242373 8.26408 0.313623C8.38033 0.371373 8.47557 0.465123 8.53557 0.580623Z" fill="#FFAC2F"/>
</svg>
