<svg width="30" height="24" viewBox="0 0 30 24" fill="none" xmlns="http://www.w3.org/2000/svg">
<path d="M27 12.7545V4.5C27 3.67157 26.3284 3 25.5 3H4.5V3C3.67157 3 3 3.67157 3 4.5V19.5V19.5C3 20.3284 3.67157 21 4.5 21H9.756L16.341 10.017V10.017C17.6195 7.88577 20.3836 7.19448 22.5148 8.47295C22.828 8.66085 23.1172 8.88619 23.376 9.144L27 12.7545L27 12.7545ZM27 16.989L21.258 11.268V11.268C20.6706 10.6838 19.7209 10.6863 19.1367 11.2737C19.0509 11.3599 18.976 11.4562 18.9135 11.5605L13.254 21H25.5V21C26.3284 21 27 20.3284 27 19.5V16.989H27ZM4.5 0H25.5V0C27.9853 -1.08635e-07 30 2.01473 30 4.5V19.5C30 21.9853 27.9853 24 25.5 24H4.5V24C2.01473 24 0 21.9853 0 19.5V19.5V4.5L0 4.5C-3.75267e-07 2.01473 2.01473 6.7948e-07 4.5 6.7948e-07L4.5 0ZM9 13.5V13.5C6.51473 13.5 4.5 11.4853 4.5 9C4.5 6.51473 6.51473 4.5 9 4.5H9C11.4853 4.5 13.5 6.51473 13.5 9C13.5 11.4853 11.4853 13.5 9 13.5H9ZM9 10.5V10.5C9.82843 10.5 10.5 9.82843 10.5 9C10.5 8.17157 9.82843 7.5 9 7.5V7.5C8.17157 7.5 7.5 8.17157 7.5 9C7.5 9.82843 8.17157 10.5 9 10.5V10.5Z" fill="#C4C4C4"/>
</svg>
