<svg width="32" height="32" viewBox="0 0 32 32" fill="none" xmlns="http://www.w3.org/2000/svg">
<path d="M6.66667 28C5.19392 28 4 26.8061 4 25.3333V6.66667C4 5.19392 5.19392 4 6.66667 4H25.3333C26.8061 4 28 5.19392 28 6.66667V25.3333C28 26.8061 26.8061 28 25.3333 28H6.66667Z" stroke="#C4C4C4" stroke-width="2" stroke-linecap="round" stroke-linejoin="round"/>
<path d="M12.7472 9.91916C13.5283 10.7002 13.5283 11.9665 12.7472 12.7476C11.9662 13.5286 10.6998 13.5286 9.91879 12.7476C9.13775 11.9665 9.13775 10.7002 9.91879 9.91916C10.6998 9.13811 11.9662 9.13811 12.7472 9.91916" stroke="#C4C4C4" stroke-width="2" stroke-linecap="round" stroke-linejoin="round"/>
<path d="M28.0003 20L21.3337 13.3334L6.66699 28" stroke="#C4C4C4" stroke-width="2" stroke-linecap="round" stroke-linejoin="round"/>
</svg>
