<svg width="18" height="18" viewBox="0 0 18 18" fill="none" xmlns="http://www.w3.org/2000/svg">
<path d="M8.5959 0.676477C4.1709 0.88481 0.680064 4.54314 0.693397 8.94064L0.693397 8.94063C0.695587 10.235 1.00549 11.5104 1.59756 12.6615L0.715897 16.9123L0.715897 16.9123C0.680562 17.0869 0.793435 17.257 0.968007 17.2924C1.01416 17.3017 1.06179 17.3008 1.10756 17.2898L5.30256 16.3031H5.30256C6.41363 16.8522 7.63336 17.146 8.87256 17.1631C13.3951 17.2323 17.1651 13.6673 17.3059 9.17981C17.4576 4.36731 13.4584 0.445643 8.5959 0.675642L8.5959 0.676477ZM13.6017 13.4823C12.3807 14.699 10.7255 15.3797 9.00173 15.374H9.00173C7.99757 15.3771 7.00646 15.1465 6.10673 14.7006L5.52256 14.4115L2.95006 15.0165L3.49173 12.4073L3.2034 11.8473C2.73598 10.9413 2.49359 9.93598 2.49673 8.91648C2.49673 7.19148 3.1734 5.56898 4.40173 4.34981V4.34981C5.62606 3.13789 7.27902 2.45784 9.00173 2.45731C10.7401 2.45731 12.3734 3.12898 13.6017 4.34898C14.8242 5.55368 15.511 7.19931 15.5076 8.91564C15.5076 10.6256 14.8201 12.274 13.6017 13.4831L13.6017 13.4823Z" fill="white"/>
<path d="M13.0347 10.7037L11.4255 10.2453C11.214 10.1846 10.9862 10.244 10.8313 10.4003L10.438 10.7987C10.2716 10.9672 10.0205 11.0197 9.8005 10.932C9.03967 10.6262 7.438 9.21283 7.02883 8.50533C6.9115 8.30091 6.92996 8.04573 7.0755 7.86033L7.41883 7.41866C7.55352 7.24622 7.58205 7.01353 7.493 6.81366L6.81633 5.29366C6.67966 4.99027 6.32293 4.85512 6.01954 4.99179C5.96877 5.01466 5.92142 5.04446 5.87883 5.08033C5.42967 5.45783 4.89633 6.03033 4.83217 6.66616C4.718 7.78533 5.20133 9.19616 7.02967 10.8912C9.14217 12.8487 10.8347 13.1078 11.9355 12.842C12.5605 12.692 13.0605 12.0895 13.3747 11.597C13.552 11.3209 13.4719 10.9533 13.1958 10.776C13.146 10.744 13.0917 10.7196 13.0347 10.7037Z" fill="white"/>
</svg>
