<svg width="10" height="10" viewBox="0 0 10 10" fill="none" xmlns="http://www.w3.org/2000/svg">
<path d="M6.09485 4.91652L9.04068 1.96985C9.37173 1.65012 9.3809 1.12256 9.06116 0.791517C8.74143 0.460474 8.21387 0.451304 7.88283 0.771037C7.87589 0.777744 7.86906 0.784572 7.86235 0.791517L4.91568 3.73735L1.96985 0.791517V0.791517C1.65012 0.460474 1.12256 0.451305 0.791517 0.771037C0.460474 1.09077 0.451305 1.61833 0.771037 1.94937C0.777744 1.95631 0.784572 1.96314 0.791517 1.96985L3.73735 4.91568L0.791517 7.86235H0.791517C0.460474 8.18208 0.451304 8.70964 0.771037 9.04068C1.09077 9.37173 1.61833 9.3809 1.94937 9.06116C1.95632 9.05446 1.96314 9.04763 1.96985 9.04068L4.91568 6.09485L7.86235 9.04068C8.18208 9.37173 8.70964 9.3809 9.04068 9.06116C9.37173 8.74143 9.3809 8.21387 9.06116 7.88283C9.05446 7.87589 9.04763 7.86906 9.04068 7.86235L6.09485 4.91568V4.91652Z" fill="#333333"/>
</svg>
